<svg width="1599" height="759" viewBox="0 0 1599 759" fill="none" xmlns="http://www.w3.org/2000/svg">
<rect x="73.9001" y="498" width="1455.1" height="257.3" fill="#FEBA91"/>
<path fill-rule="evenodd" clip-rule="evenodd" d="M944.3 88.7998H620.1C614.7 88.7998 610.3 93.1998 610.3 98.5998V298.1C610.3 303.5 614.7 307.9 620.1 307.9H746.8L727.7 381.2H847L828.5 307.9H944.3C949.7 307.9 954.1 303.5 954.1 298.1V98.5998C954.2 93.1998 949.7 88.7998 944.3 88.7998Z" fill="#FE7624"/>
<path fill-rule="evenodd" clip-rule="evenodd" d="M913.7 288.8H637.7C631.6 288.8 626.7 283.9 626.7 277.8V112.9C626.7 106.8 631.6 101.9 637.7 101.9H913.7C919.8 101.9 924.7 106.8 924.7 112.9V277.7C924.7 283.8 919.8 288.8 913.7 288.8Z" fill="white"/>
<path fill-rule="evenodd" clip-rule="evenodd" d="M785.7 323.4C776.058 323.4 768.3 331.535 768.3 341.5C768.3 351.465 776.058 359.6 785.7 359.6C795.342 359.6 803.1 351.465 803.1 341.5C803.1 331.535 795.342 323.4 785.7 323.4ZM785.7 329.4C791.963 329.4 797.1 334.786 797.1 341.5C797.1 348.214 791.963 353.6 785.7 353.6C779.437 353.6 774.3 348.214 774.3 341.5C774.3 334.786 779.437 329.4 785.7 329.4Z" fill="#2E186A"/>
<path fill-rule="evenodd" clip-rule="evenodd" d="M816.94 305.273C818.498 304.922 820.047 305.853 820.483 307.369L820.526 307.539L836.526 378.439C836.891 380.056 835.877 381.662 834.26 382.026C832.702 382.378 831.153 381.447 830.717 379.931L830.674 379.76L814.674 308.86C814.309 307.244 815.323 305.638 816.94 305.273Z" fill="#2E186A"/>
<path fill-rule="evenodd" clip-rule="evenodd" d="M827.9 304.8C829.557 304.8 830.9 306.143 830.9 307.8C830.9 309.397 829.651 310.703 828.076 310.795L827.9 310.8H747.1C745.443 310.8 744.1 309.457 744.1 307.8C744.1 306.202 745.349 304.896 746.924 304.805L747.1 304.8H827.9Z" fill="#2E186A"/>
<path fill-rule="evenodd" clip-rule="evenodd" d="M927.3 88.7998C934.484 88.7998 940.333 94.7029 940.497 101.987L940.5 102.3V297.4C940.5 299.057 939.157 300.4 937.5 300.4C935.902 300.4 934.596 299.151 934.505 297.576L934.5 297.4V102.3C934.5 98.1512 931.237 94.7998 927.3 94.7998C925.643 94.7998 924.3 93.4567 924.3 91.7998C924.3 90.143 925.643 88.7998 927.3 88.7998Z" fill="#2E186A"/>
<path fill-rule="evenodd" clip-rule="evenodd" d="M745 156.6H741.9C740.1 156.6 738.6 155.1 738.6 153.3V146C738.6 144.2 740.1 142.7 741.9 142.7H745C746.8 142.7 748.3 144.2 748.3 146V153.3C748.3 155.1 746.8 156.6 745 156.6Z" fill="#FEBA91"/>
<path fill-rule="evenodd" clip-rule="evenodd" d="M730.3 156.6H672.6C670.1 156.6 668.1 154.6 668.1 152.1V147.3C668.1 144.8 670.1 142.8 672.6 142.8H730.3C732.8 142.8 734.8 144.8 734.8 147.3V152.1C734.9 154.6 732.8 156.6 730.3 156.6Z" fill="#5D21D1"/>
<path fill-rule="evenodd" clip-rule="evenodd" d="M736.4 221.1H672.7C670.2 221.1 668.2 219.1 668.2 216.6V211.8C668.2 209.3 670.2 207.3 672.7 207.3H736.4C738.9 207.3 740.9 209.3 740.9 211.8V216.6C740.9 219 738.9 221.1 736.4 221.1Z" fill="#5D21D1"/>
<path fill-rule="evenodd" clip-rule="evenodd" d="M794.9 199.6H691.1C688.6 199.6 686.6 197.6 686.6 195.1V190.3C686.6 187.8 688.6 185.8 691.1 185.8H794.9C797.4 185.8 799.4 187.8 799.4 190.3V195.1C799.4 197.6 797.4 199.6 794.9 199.6Z" fill="#FEBA91"/>
<path fill-rule="evenodd" clip-rule="evenodd" d="M862.2 199.6H810.3C807.8 199.6 805.8 197.6 805.8 195.1V190.3C805.8 187.8 807.8 185.8 810.3 185.8H862.2C864.7 185.8 866.7 187.8 866.7 190.3V195.1C866.7 197.6 864.7 199.6 862.2 199.6Z" fill="#FEBA91"/>
<path fill-rule="evenodd" clip-rule="evenodd" d="M884 178.1H880.9C879.1 178.1 877.6 176.6 877.6 174.8V167.5C877.6 165.7 879.1 164.2 880.9 164.2H884C885.8 164.2 887.3 165.7 887.3 167.5V174.8C887.3 176.7 885.9 178.1 884 178.1Z" fill="#5D21D1"/>
<path fill-rule="evenodd" clip-rule="evenodd" d="M780.3 178.1H672.7C670.2 178.1 668.2 176.1 668.2 173.6V168.8C668.2 166.3 670.2 164.3 672.7 164.3H780.3C782.8 164.3 784.8 166.3 784.8 168.8V173.6C784.9 176.1 782.8 178.1 780.3 178.1Z" fill="#5D21D1"/>
<path fill-rule="evenodd" clip-rule="evenodd" d="M814.8 156.6H757.1C754.6 156.6 752.6 154.6 752.6 152.1V147.3C752.6 144.8 754.6 142.8 757.1 142.8H814.8C817.3 142.8 819.3 144.8 819.3 147.3V152.1C819.3 154.6 817.3 156.6 814.8 156.6Z" fill="#5D21D1"/>
<path fill-rule="evenodd" clip-rule="evenodd" d="M867.8 178.1H794.6C792.1 178.1 790 176.1 790 173.5V168.7C790 166.2 792 164.1 794.6 164.1H867.8C870.3 164.1 872.4 166.1 872.4 168.7V173.5C872.4 176.1 870.4 178.1 867.8 178.1Z" fill="#FE7624"/>
<path fill-rule="evenodd" clip-rule="evenodd" d="M619.4 377.4L634.7 351.8C634.7 351.8 620.1 286.9 610.9 254.7C602.7 225.8 583.5 218.7 569.2 222.8L467.2 240.1C466.4 240 465.7 240 465 239.9C447.1 239.5 417.6 304.2 410.6 341.8C419.9 338.8 440.8 335.7 467.4 339.2C468.2 337.6 471 332.9 474.8 326.2C475.2 327 475.7 327.7 476.1 328.4C482.4 338.9 499.5 374.5 511 378.1L619.5 381.5L618.2 377.3C619 377.5 619.4 377.4 619.4 377.4Z" fill="#2E186A"/>
<path fill-rule="evenodd" clip-rule="evenodd" d="M512.9 190.1L509.9 192C509.9 192 492.1 201.7 486.5 183.7C482.3 170.1 495.3 165.8 501.9 164.5" fill="white"/>
<path fill-rule="evenodd" clip-rule="evenodd" d="M501.32 161.557C502.946 161.236 504.523 162.295 504.843 163.92C505.164 165.546 504.105 167.123 502.48 167.444C492.266 169.455 486.671 174.086 489.365 182.809C491.075 188.308 493.947 190.86 497.832 191.469C500.302 191.856 503.084 191.435 505.844 190.472C506.569 190.219 507.232 189.949 507.816 189.681L508.183 189.508L508.391 189.404L511.295 187.566C512.643 186.712 514.411 187.066 515.332 188.343L515.434 188.495C516.288 189.843 515.934 191.611 514.657 192.532L514.505 192.635L511.505 194.535L511.335 194.634C510.602 195.034 509.391 195.59 507.819 196.138C504.208 197.397 500.494 197.959 496.903 197.396C490.726 196.428 486.016 192.244 483.634 184.585C481.369 177.252 483.224 171.324 488.237 167.176C491.707 164.306 496.289 162.548 501.32 161.557Z" fill="#2E186A"/>
<path fill-rule="evenodd" clip-rule="evenodd" d="M554.2 214.4L547.4 229.5L557.5 227.3C558.6 229.3 571.7 257.6 539.9 264.9C519 269.7 494.9 252.7 484 237.3L501.6 234.1L516 199.4L554.2 214.4Z" fill="white"/>
<path fill-rule="evenodd" clip-rule="evenodd" d="M513.229 198.25L499.456 231.44L483.463 234.349C481.305 234.741 480.284 237.242 481.551 239.033C495.166 258.269 520.552 272.422 540.572 267.824C555.836 264.32 563.247 255.797 564.031 244.317C564.306 240.285 563.733 236.167 562.567 232.155C561.799 229.514 560.799 227.074 560.129 225.854L560.033 225.692C559.362 224.635 558.098 224.1 556.862 224.369L552.581 225.3L556.935 215.632C557.639 214.069 556.892 212.234 555.297 211.608L517.097 196.608C515.575 196.01 513.856 196.741 513.229 198.25ZM517.642 203.267L550.17 216.04L544.665 228.268L544.6 228.422C543.743 230.624 545.686 232.944 548.039 232.431L555.757 230.75L555.955 231.264C556.255 232.068 556.543 232.929 556.805 233.83C557.788 237.213 558.267 240.65 558.045 243.908C557.442 252.727 551.937 259.059 539.229 261.976L538.709 262.09C522.903 265.39 502.331 254.811 489.612 239.662L489.372 239.372L502.137 237.052C503.139 236.87 503.98 236.191 504.371 235.25L517.642 203.267Z" fill="#2E186A"/>
<path fill-rule="evenodd" clip-rule="evenodd" d="M576.6 156.2C579 164.4 586 203.6 560.9 213.3C535.8 223 512.3 203.5 503.4 179.4C494.5 155.3 500.1 131.8 515.8 125.3C531.5 118.8 559 96.5003 576.6 156.2Z" fill="white"/>
<path fill-rule="evenodd" clip-rule="evenodd" d="M522.522 118.823C521.296 119.414 518.873 120.595 518.522 120.765L517.389 121.305C516.562 121.695 515.854 122.016 515.201 122.297L514.653 122.528C497.113 129.79 491.237 155.123 500.586 180.439C510.985 208.598 537.004 225.751 561.981 216.098C574.398 211.3 580.655 199.898 582.05 184.458C582.958 174.413 581.62 162.969 579.61 155.812L579.478 155.352C571.893 129.623 561.838 116.506 549.082 113.487C541.215 111.624 533.946 113.423 523.52 118.347L522.522 118.823ZM573.721 157.043C575.603 163.473 576.93 174.455 576.075 183.918C574.864 197.317 569.73 206.672 559.819 210.502C538.428 218.768 515.572 203.7 506.214 178.361C497.855 155.725 502.922 133.879 516.948 128.072L517.556 127.816C518.379 127.462 519.261 127.059 520.308 126.561L525.535 124.032C535.116 119.454 541.41 117.836 547.699 119.325C557.825 121.722 566.507 132.941 573.511 156.336L573.721 157.043Z" fill="#2E186A"/>
<path fill-rule="evenodd" clip-rule="evenodd" d="M550.9 187.9C556 188.8 559.9 187.4 562 186.3C563 185.8 564.1 186.4 564.3 187.5C564.8 190.6 564.7 196 557.9 197.6C550.8 199.3 549.3 193.1 549 189.6C549 188.6 549.9 187.7 550.9 187.9Z" fill="#2E186A"/>
<path fill-rule="evenodd" clip-rule="evenodd" d="M551.278 142.18C552.78 141.635 554.433 142.365 555.056 143.814L555.12 143.978L565.92 173.778C566.503 175.386 565.625 177.141 564.02 177.656L563.845 177.706L556.045 179.706C554.44 180.118 552.805 179.15 552.394 177.545C551.997 175.998 552.882 174.423 554.385 173.943L554.555 173.894L559.153 172.715L549.479 146.023C548.935 144.52 549.664 142.867 551.114 142.245L551.278 142.18Z" fill="#2E186A"/>
<path fill-rule="evenodd" clip-rule="evenodd" d="M529.182 149.786C532.273 146.537 536.207 145.119 540.531 147.065C542.042 147.745 542.716 149.521 542.036 151.031C541.38 152.488 539.705 153.167 538.232 152.604L538.069 152.536C536.466 151.815 535.047 152.327 533.53 153.922C533.106 154.367 532.725 154.855 532.4 155.341L532.257 155.56C532.194 155.659 532.144 155.741 532.108 155.803L532.054 155.899C531.282 157.365 529.467 157.927 528.001 157.154C526.536 156.382 525.974 154.567 526.746 153.102C527.213 152.216 528.02 151.008 529.182 149.786Z" fill="#2E186A"/>
<path fill-rule="evenodd" clip-rule="evenodd" d="M553.463 132.587C557.011 129.578 561.235 128.585 565.422 131.277C566.816 132.173 567.219 134.029 566.323 135.423C565.461 136.765 563.708 137.188 562.334 136.418L562.178 136.324C560.616 135.32 559.095 135.677 557.344 137.163C556.922 137.52 556.536 137.91 556.202 138.297L555.996 138.542C555.941 138.61 555.9 138.664 555.873 138.7L555.851 138.73C554.895 140.084 553.023 140.407 551.67 139.451C550.316 138.496 549.994 136.624 550.949 135.27C551.458 134.549 552.304 133.57 553.463 132.587Z" fill="#2E186A"/>
<path fill-rule="evenodd" clip-rule="evenodd" d="M546.375 167.983C547.836 167.682 548.641 165.597 548.173 163.325C547.705 161.053 546.142 159.454 544.682 159.755C543.221 160.056 542.416 162.141 542.884 164.413C543.351 166.685 544.915 168.283 546.375 167.983Z" fill="#2E186A"/>
<path fill-rule="evenodd" clip-rule="evenodd" d="M571.877 162.897C573.338 162.596 574.142 160.511 573.675 158.239C573.207 155.967 571.644 154.368 570.183 154.669C568.723 154.97 567.918 157.055 568.386 159.327C568.853 161.599 570.416 163.197 571.877 162.897Z" fill="#2E186A"/>
<path fill-rule="evenodd" clip-rule="evenodd" d="M531.517 138.577C520.921 140.376 514.535 152.959 516.83 166.479C519.126 179.999 529.308 189.769 539.904 187.97C550.499 186.171 556.886 173.588 554.59 160.068C552.295 146.547 542.113 136.777 531.517 138.577ZM532.27 143.013C540.079 141.687 548.234 149.512 550.154 160.821C552.074 172.13 546.959 182.208 539.15 183.534C531.342 184.859 523.187 177.035 521.267 165.726C519.347 154.417 524.462 144.339 532.27 143.013Z" fill="#FE7624"/>
<path fill-rule="evenodd" clip-rule="evenodd" d="M575.321 130.175C564.725 131.974 558.339 144.557 560.634 158.077C562.93 171.597 573.112 181.367 583.708 179.568C594.303 177.769 600.69 165.186 598.394 151.666C596.099 138.145 585.917 128.376 575.321 130.175ZM576.074 134.611C583.883 133.285 592.038 141.11 593.958 152.419C595.878 163.728 590.763 173.806 582.954 175.132C575.146 176.458 566.991 168.633 565.071 157.324C563.151 146.015 568.266 135.937 576.074 134.611Z" fill="#FE7624"/>
<path fill-rule="evenodd" clip-rule="evenodd" d="M561.496 149.987C562.718 149.763 563.89 150.573 564.113 151.796C564.327 152.965 563.595 154.088 562.461 154.379L562.304 154.413L551.904 156.313C550.682 156.537 549.51 155.727 549.287 154.504C549.073 153.335 549.805 152.212 550.938 151.921L551.096 151.887L561.496 149.987Z" fill="#FE7624"/>
<path fill-rule="evenodd" clip-rule="evenodd" d="M517.58 156.168C518.758 155.771 520.034 156.403 520.432 157.58C520.812 158.706 520.25 159.923 519.17 160.375L519.02 160.432L495.62 168.332C494.442 168.729 493.166 168.097 492.768 166.92C492.388 165.793 492.95 164.576 494.03 164.125L494.18 164.068L517.58 156.168Z" fill="#FE7624"/>
<path fill-rule="evenodd" clip-rule="evenodd" d="M583.9 111.2C564.8 72.0002 531.9 94.3002 510 116.6C492.9 116.3 471.2 133.6 466.6 147.5C461 164.2 463 188.2 474.6 203.6C497 228.2 516.1 222.9 529.8 211.1C521.8 206.9 514.9 200.1 509.7 192C507.7 193 491.8 200.5 486.5 183.6C484.2 176.4 486.9 171.7 490.8 168.8C492.4 169.3 494.4 169 497.1 167.8C510.2 161.8 515 146.9 516.8 137.5L579.2 121.3C583.6 120.4 585.9 115.4 583.9 111.2Z" fill="#2E186A"/>
<path fill-rule="evenodd" clip-rule="evenodd" d="M551.2 351.5C524.6 350.2 463.3 341.7 463.3 341.7L464.3 339C442.1 336.4 424.1 338.4 414.1 341C411 349.8 409.8 357.3 411.5 362.3C413.7 368.9 421.3 374.5 428.2 375.5C485.6 383.8 553.9 377.6 553.9 377.6L573.3 362.8C573.2 362.6 552.4 351.6 551.2 351.5Z" fill="white"/>
<path fill-rule="evenodd" clip-rule="evenodd" d="M413.345 338.097C412.379 338.348 411.602 339.062 411.27 340.003C407.798 349.862 406.764 357.692 408.66 363.266C411.164 370.781 419.565 377.28 427.77 378.469C435.465 379.582 443.582 380.47 452.073 381.148C479.173 383.311 508.02 383.256 535.399 381.837L537.811 381.708C541.668 381.496 545.199 381.271 548.361 381.044L551.927 380.775L554.171 380.588C554.734 380.537 555.27 380.328 555.719 379.985L575.119 365.185C576.215 364.35 576.594 362.882 576.062 361.628L575.983 361.459C575.631 360.755 576.123 360.965 575.401 360.538L574.16 359.823L572.894 359.129C572.453 358.89 571.947 358.618 571.389 358.319L568.178 356.615C567.032 356.01 565.831 355.38 564.64 354.76L560.935 352.84C555.116 349.842 552.478 348.596 551.449 348.511L551.346 348.504L549.89 348.427C541.424 347.955 529.317 346.805 514.502 345.128L510.468 344.666C507.812 344.359 505.095 344.038 502.328 343.705C494.414 342.752 486.396 341.74 478.594 340.721L471.215 339.746L467.293 339.217L467.296 339.184C467.393 337.646 466.277 336.211 464.649 336.021C444.775 333.693 426.061 334.791 413.345 338.097ZM460.301 341.589L460.298 341.674C460.285 343.071 461.262 344.351 462.705 344.641L462.957 344.681L470.42 345.693C471.714 345.866 473.069 346.046 474.479 346.232C483.339 347.401 492.542 348.57 501.611 349.662L504.918 350.057C506.558 350.251 508.179 350.441 509.779 350.627L513.846 351.093L518.235 351.583C531.15 353.004 541.798 353.984 549.543 354.417L550.653 354.476L551.074 354.659L551.653 354.924C552.23 355.193 552.957 355.545 553.815 355.969L555.401 356.761C556.955 357.543 558.771 358.473 560.738 359.494L563.345 360.853C564.327 361.367 565.298 361.878 566.219 362.365L567.813 363.211L552.773 374.685L551.057 374.825L549.347 374.956C545.869 375.215 541.892 375.475 537.482 375.717C509.635 377.247 480.14 377.369 452.551 375.167C444.182 374.499 436.191 373.625 428.629 372.531C422.589 371.656 416.11 366.643 414.346 361.352L414.264 361.098C413.13 357.418 413.791 351.612 416.209 344.128L416.408 343.519L416.606 343.473C427.548 340.929 442.884 339.999 459.415 341.507L460.301 341.589Z" fill="#2E186A"/>
<path fill-rule="evenodd" clip-rule="evenodd" d="M545.4 351.6C545.4 351.6 558.5 351 572.3 353.1C580.6 354.4 594.6 356.5 596 358.4C599.3 362.8 586.7 365.1 580.7 361.4" fill="white"/>
<path fill-rule="evenodd" clip-rule="evenodd" d="M571.742 349.985L573.53 350.256L576.993 350.799L580.011 351.285L581.661 351.559C587.763 352.59 592.083 353.494 594.76 354.404C596.527 355.004 597.653 355.586 598.4 356.6C600.099 358.865 599.872 361.543 597.92 363.412C596.636 364.642 594.706 365.446 592.397 365.885C587.895 366.74 582.622 366.11 579.125 363.954C577.715 363.084 577.277 361.236 578.146 359.826C578.984 358.468 580.729 358.011 582.116 358.755L582.275 358.847C584.364 360.135 588.139 360.587 591.278 359.99C591.447 359.958 591.611 359.923 591.767 359.887L592.009 359.826L591.892 359.791C589.768 359.173 586.536 358.498 582.284 357.754L580.662 357.476C579.78 357.327 578.87 357.177 577.893 357.019L571.849 356.066C563.394 354.78 554.772 354.402 547.529 354.541L546.7 354.56C546.127 354.574 545.734 354.588 545.537 354.597C543.882 354.673 542.479 353.393 542.403 351.738C542.33 350.141 543.518 348.78 545.087 348.617L545.32 348.601L546.549 348.562C553.994 348.375 562.882 348.71 571.742 349.985Z" fill="#2E186A"/>
<path fill-rule="evenodd" clip-rule="evenodd" d="M575.6 366.7C587.3 369.8 593.4 370.3 590.9 365.7C589.5 363.1 569.9 354.1 566.1 353.1C562.3 352.1 541.4 350.8 541.4 350.8" fill="white"/>
<path fill-rule="evenodd" clip-rule="evenodd" d="M541.41 347.8L541.874 347.824L545.558 348.069L548.104 348.248C550.218 348.401 552.304 348.56 554.291 348.724L556.607 348.92C558.832 349.116 560.772 349.307 562.371 349.491L563.493 349.627C565.01 349.819 566.122 350.004 566.863 350.199L567.183 350.289C569.405 350.952 574.488 353.12 579.547 355.54L580.712 356.102C588.112 359.702 592.442 362.235 593.536 364.267C595.915 368.646 593.483 371.974 588.645 372.087C585.738 372.155 581.347 371.326 574.832 369.6C573.23 369.176 572.276 367.533 572.7 365.932C573.124 364.33 574.767 363.376 576.368 363.8L577.415 364.074C581.004 365.002 583.824 365.607 585.908 365.895L586.452 365.964L586.089 365.743L585.454 365.364L584.707 364.935C583.026 363.983 580.941 362.896 578.626 361.761L577.375 361.153C572.253 358.689 566.924 356.419 565.337 356.001C564.865 355.877 563.822 355.711 562.354 355.532L561.285 355.407C559.42 355.198 557.085 354.978 554.383 354.752L553.798 354.703C551.833 354.542 549.766 354.384 547.67 354.233L544.137 353.986L541.214 353.794C539.56 353.691 538.303 352.267 538.406 350.614C538.505 349.019 539.833 347.793 541.41 347.8Z" fill="#2E186A"/>
<path fill-rule="evenodd" clip-rule="evenodd" d="M561 359.7C561 359.7 568.9 362.1 575.1 364.9C581.2 367.7 584.9 370.7 584.5 371.9C584.1 373.1 579.5 375.5 575.5 374.1C569.9 371 557.3 367.8 557.3 367.8C558.6 367.5 567.4 371.1 572.2 372.7C577 374.2 580.9 378.9 569.2 378.2L551.5 377.6" fill="white"/>
<path fill-rule="evenodd" clip-rule="evenodd" d="M558.129 358.828C558.594 357.3 560.168 356.413 561.702 356.784L561.916 356.843L562.827 357.128L564.257 357.59C564.593 357.701 564.94 357.816 565.298 357.936C567.855 358.794 570.413 359.718 572.812 360.676C574.064 361.176 575.242 361.673 576.351 362.174L577.086 362.516C584.212 365.878 588.524 369.315 587.346 372.849C586.599 375.09 583.447 376.854 580.006 377.354L579.781 377.385L579.754 377.495C579.347 378.994 578.081 380.073 576.376 380.646L576.151 380.718C574.558 381.201 572.377 381.363 569.595 381.226L569.098 381.199L551.398 380.599C549.742 380.543 548.445 379.155 548.502 377.499C548.556 375.902 549.848 374.639 551.425 374.601L551.601 374.602L569.379 375.206L569.741 375.226L570.384 375.253L568.854 374.711L563.32 372.685L562.288 372.313L561.787 372.162L560.764 371.863L559.739 371.57C559.067 371.38 558.435 371.206 557.851 371.049L556.561 370.708C553.512 369.934 553.559 365.585 556.625 364.877L556.82 364.836C558.016 364.606 559.186 364.843 562.857 366.139L564.257 366.64L565.082 366.89C565.899 367.141 566.706 367.397 567.5 367.657L568.679 368.05C571.792 369.108 574.393 370.142 576.349 371.153L576.683 371.329L576.736 371.346C577.731 371.627 578.921 371.574 580.095 371.227L580.172 371.202L580.139 371.177C578.707 370.128 576.689 368.962 574.339 367.855L573.865 367.635C572.859 367.18 571.761 366.717 570.587 366.248C568.304 365.336 565.847 364.449 563.389 363.624L562.386 363.291L560.677 362.742C560.425 362.662 560.239 362.605 560.128 362.571C558.542 362.089 557.648 360.414 558.129 358.828Z" fill="#2E186A"/>
<path fill-rule="evenodd" clip-rule="evenodd" d="M709.3 274.701C709.3 274.701 728 274.101 740.2 267.001C747.5 262.701 756.9 256.901 757.4 254.401C758.3 249.701 746.7 254.501 744.9 255.101" fill="white"/>
<path fill-rule="evenodd" clip-rule="evenodd" d="M750.278 250.142C752.561 249.527 754.442 249.239 756.011 249.402C758.95 249.706 760.946 251.832 760.342 254.989C759.645 258.47 754.215 262.227 741.709 269.593C738.541 271.437 734.855 272.949 730.752 274.173C726.067 275.571 721.079 276.527 716.096 277.13C714.354 277.34 712.736 277.491 711.28 277.593L709.959 277.675C709.728 277.686 709.539 277.694 709.396 277.699C707.74 277.752 706.355 276.453 706.301 274.797C706.25 273.2 707.457 271.854 709.028 271.713L710.07 271.659C710.313 271.645 710.577 271.628 710.86 271.608C712.219 271.513 713.738 271.371 715.376 271.173C720.046 270.609 724.712 269.714 729.037 268.424C732.715 267.326 735.971 265.99 738.677 264.416L740.989 263.044C744.501 260.942 747.321 259.165 749.643 257.558C750.257 257.134 750.823 256.729 751.337 256.348L751.907 255.916L751.839 255.935C751.283 256.085 750.698 256.259 750.083 256.456L749.19 256.752C747.933 257.184 745.842 257.949 745.849 257.946C744.277 258.47 742.578 257.621 742.054 256.049C741.549 254.533 742.32 252.899 743.786 252.315L745.586 251.66C746.334 251.392 747.176 251.095 747.735 250.911C748.621 250.618 749.466 250.361 750.278 250.142Z" fill="#2E186A"/>
<path fill-rule="evenodd" clip-rule="evenodd" d="M722.5 261.5C722.5 261.5 732.5 256.3 736.9 251C741.3 245.7 744.3 241.6 743.5 240.5C742.7 239.5 737 239.6 734 242.6C730.2 248 718.5 253.8 718.5 253.8C719.8 253.6 727.4 248.4 731.1 244.9C734.8 241.5 736.5 235.1 726.3 240.2C726.3 240.2 715.5 246 711.4 247.6C711.4 247.6 694.4 249.7 688.9 255.5C685.2 259.4 656.3 288.8 634.7 307.3C622.2 315.4 587.9 375.1 620.5 375.4C627.2 375.7 635.9 371.2 639.4 366.3L704.3 275.7C714.7 274 722.1 271.4 727.1 268.7C733.5 265.2 753.2 248.9 753.6 246.8C754.6 241.1 744.9 241.3 737.7 250.4" fill="white"/>
<path fill-rule="evenodd" clip-rule="evenodd" d="M731.716 235.309C733.744 235.202 735.483 235.964 736.372 237.518L736.489 237.738L736.706 237.664C740.192 236.52 744.053 236.65 745.71 238.471L745.843 238.626L745.926 238.736C746.325 239.284 746.568 239.82 746.671 240.37L746.679 240.424L746.814 240.387C747.185 240.289 747.554 240.208 747.919 240.142L748.284 240.083C753.413 239.322 757.444 242.252 756.547 247.362C756.175 249.314 752.624 252.758 746.076 258.237L744.512 259.537C738.075 264.859 731.748 269.578 728.525 271.34C722.98 274.335 715.572 276.758 706.417 278.383L706.019 278.451L641.841 368.044C637.706 373.833 628.212 378.574 620.744 378.41L620.438 378.399L620.056 378.393C611.366 378.186 605.963 373.995 604.342 366.719L604.268 366.371C603.031 360.291 604.418 352.341 607.883 343.211C613.765 327.71 625.497 309.92 632.821 304.947L632.887 304.902L633.4 304.462C642.124 296.954 652.579 287.228 663.827 276.302L668.033 272.197C675.985 264.396 683.87 256.444 686.723 253.436C689.168 250.858 693.189 248.9 698.432 247.311C701.198 246.472 704.14 245.791 707.078 245.252C707.934 245.096 708.739 244.96 709.48 244.845L710.443 244.702L710.632 244.675L711.137 244.464C712.401 243.919 714.182 243.07 716.339 241.991L717.459 241.426C718.795 240.75 720.183 240.034 721.567 239.309L724.958 237.517C727.714 236.139 729.929 235.403 731.716 235.309ZM729.82 241.9L729.721 241.939C729.129 242.174 728.458 242.474 727.719 242.843L726.448 243.521C726.117 243.696 725.767 243.881 725.399 244.074C723.999 244.811 722.581 245.549 721.199 246.255L719.421 247.157L717.763 247.982C715.52 249.086 713.732 249.911 712.491 250.395C712.316 250.463 712.136 250.515 711.952 250.549L710.803 250.713L709.978 250.841C709.408 250.933 708.8 251.037 708.161 251.154C705.429 251.655 702.7 252.286 700.173 253.052C695.849 254.364 692.623 255.934 691.076 257.565L689.601 259.1C685.841 262.977 678.598 270.25 671.435 277.263L668.896 279.742C656.946 291.374 645.843 301.706 636.651 309.579C636.55 309.666 636.443 309.745 636.331 309.818C630.303 313.724 619.031 330.746 613.492 345.34C610.393 353.505 609.184 360.439 610.147 365.174C611.097 369.841 614.098 372.249 620.167 372.395L620.634 372.403C626.012 372.644 633.635 368.942 636.784 364.793L636.961 364.553L701.861 273.953C702.325 273.305 703.029 272.868 703.816 272.74C713.102 271.222 720.431 268.892 725.66 266.068C728.429 264.554 734.538 259.998 740.688 254.913L741.701 254.071C744.202 251.98 746.451 250.01 748.139 248.427L748.646 247.947C749.294 247.327 749.83 246.789 750.235 246.351L750.535 246.017L750.418 245.995C750.091 245.941 749.665 245.944 749.165 246.018C746.402 246.428 742.921 248.637 740.053 252.262C739.815 252.562 739.532 252.804 739.221 252.987L739.086 253.06L738.894 253.285C737.394 255.008 735.389 256.745 732.982 258.5L732.46 258.876C730.581 260.216 728.581 261.488 726.582 262.656L725.767 263.126C725.504 263.276 725.25 263.419 725.006 263.554L724.037 264.081C723.977 264.113 723.926 264.14 723.884 264.162C722.414 264.926 720.603 264.354 719.838 262.884C719.074 261.414 719.646 259.603 721.116 258.839L721.765 258.489L722.441 258.114C722.793 257.917 723.165 257.703 723.555 257.476C725.408 256.393 727.26 255.215 728.976 253.991C731.407 252.258 733.348 250.582 734.592 249.084L735.569 247.898C736.918 246.247 737.994 244.866 738.821 243.717L739.207 243.171L739.13 243.189C737.993 243.466 736.982 243.947 736.288 244.565L736.264 244.587L736.218 244.651C736.057 244.866 735.887 245.082 735.707 245.298L735.431 245.622C733.77 247.524 731.413 249.45 728.517 251.405C726.886 252.507 725.164 253.562 723.43 254.55L722.663 254.98L722.474 255.096C721.02 255.972 719.804 256.583 719.085 256.741L718.956 256.765C715.628 257.278 714.149 252.797 717.01 251.195L717.83 250.773L718.516 250.41C718.755 250.283 719.003 250.149 719.259 250.008L719.649 249.793L719.984 249.603L720.127 249.513C720.654 249.172 721.226 248.789 721.822 248.378L722.183 248.128C724.832 246.279 727.438 244.235 729.07 242.691C729.319 242.463 729.557 242.213 729.777 241.954L729.82 241.9Z" fill="#2E186A"/>
<path fill-rule="evenodd" clip-rule="evenodd" d="M502.987 230.194C510.769 216.323 507.317 199.601 495.276 192.845C483.235 186.089 467.164 191.858 459.382 205.729C451.599 219.601 455.051 236.322 467.092 243.078C479.133 249.834 495.204 244.066 502.987 230.194Z" fill="#2E186A"/>
<path fill-rule="evenodd" clip-rule="evenodd" d="M529.156 247.048C531.118 235.729 524.724 225.169 514.874 223.462C505.025 221.755 495.45 229.546 493.488 240.865C491.526 252.183 497.92 262.743 507.769 264.45C517.618 266.158 527.193 258.366 529.156 247.048Z" fill="#2E186A"/>
<path fill-rule="evenodd" clip-rule="evenodd" d="M542.767 281.062C548.609 272.613 547.379 261.639 540.02 256.551C532.661 251.463 521.96 254.187 516.118 262.637C510.276 271.086 511.506 282.06 518.865 287.148C526.223 292.236 536.925 289.512 542.767 281.062Z" fill="#2E186A"/>
<path fill-rule="evenodd" clip-rule="evenodd" d="M553.791 306.568C560.307 301.102 561.733 292.074 556.977 286.405C552.22 280.735 543.083 280.57 536.567 286.037C530.051 291.503 528.625 300.53 533.381 306.2C538.137 311.869 547.275 312.034 553.791 306.568Z" fill="#2E186A"/>
<path fill-rule="evenodd" clip-rule="evenodd" d="M548.2 330.1C554.9 333.6 555.9 338.4 555.4 342.1C555.2 343.9 557.3 345 558.6 343.8C566.2 336.9 577.9 323.6 568.3 312.9C563.8 307.8 555.6 307.2 549.5 312C543.3 316.8 542.2 326.9 548.2 330.1Z" fill="#2E186A"/>
<path fill-rule="evenodd" clip-rule="evenodd" d="M501.566 223.091C502.786 221.249 505.268 220.746 507.109 221.966C508.892 223.147 509.421 225.509 508.347 227.329L508.235 227.51L497.435 243.81C496.214 245.651 493.732 246.155 491.891 244.935C490.109 243.754 489.579 241.391 490.653 239.571L490.766 239.391L501.566 223.091Z" fill="#FE7624"/>
<path fill-rule="evenodd" clip-rule="evenodd" d="M527.066 251.452C528.86 250.163 531.359 250.572 532.648 252.366C533.896 254.102 533.553 256.499 531.903 257.82L531.734 257.948L518.234 267.648C516.44 268.937 513.941 268.528 512.652 266.734C511.404 264.998 511.747 262.601 513.397 261.28L513.566 261.152L527.066 251.452Z" fill="#FE7624"/>
<path fill-rule="evenodd" clip-rule="evenodd" d="M539.574 280.092C541.567 279.138 543.955 279.981 544.908 281.974C545.832 283.905 545.07 286.207 543.209 287.215L543.026 287.309L538.426 289.509C536.433 290.462 534.045 289.619 533.091 287.626C532.168 285.695 532.93 283.394 534.791 282.385L534.974 282.292L539.574 280.092Z" fill="#FE7624"/>
<path fill-rule="evenodd" clip-rule="evenodd" d="M553.311 304.823C555.287 303.835 557.69 304.636 558.678 306.611C559.635 308.526 558.913 310.84 557.071 311.881L556.889 311.978L552.289 314.278C550.313 315.266 547.91 314.465 546.922 312.489C545.965 310.575 546.687 308.26 548.529 307.219L548.711 307.123L553.311 304.823Z" fill="#FE7624"/>
<path fill-rule="evenodd" clip-rule="evenodd" d="M527.8 644.8L507 712.5C507 712.5 543.6 721.5 539.7 752.6L449.5 752.1L475.3 636.7L527.8 644.8Z" fill="#FE7624"/>
<path fill-rule="evenodd" clip-rule="evenodd" d="M650.2 642.3L628.7 712.1C628.7 712.1 666.6 721.6 662.6 753.9L569.2 753.4L595.9 633.8L650.2 642.3Z" fill="#FE7624"/>
<path fill-rule="evenodd" clip-rule="evenodd" d="M621.6 384H558.9L556.6 380.4L532.1 384H521.1L520.8 385.7L412.9 401.8C412.1 404.5 385.2 451.9 410.8 485.6C421 499.1 457.5 502.6 497.6 501.9L460.2 689.5H556L582.7 573.6L566.8 690.1H662.5L670.6 422.7C670.6 422.8 670.6 380.6 621.6 384Z" fill="#5D21D1"/>
<path fill-rule="evenodd" clip-rule="evenodd" d="M247.7 597.5L227.9 707.1L228.3 755.6H251.2L252.6 707.7C252.6 707.7 261.9 754.6 293.9 756.7C325.9 758.8 353.6 750 353.4 748.8C353.3 748.2 354.4 738.7 355.4 729.6C356.3 721.6 348.7 713.8 340.5 714.3C328.2 715 312 714 302.2 705.9C284.7 691.3 309.9 594.9 309.9 594.9L247.7 597.5Z" fill="#2E186A"/>
<path fill-rule="evenodd" clip-rule="evenodd" d="M365.3 601.9L366.7 755.6H389.6L391 707.7C391 707.7 400.3 754.6 432.3 756.7C464.3 758.8 492 750 491.8 748.8C491.7 748.2 492.8 738.7 493.8 729.6C494.7 721.6 487.1 713.8 478.9 714.3C466.6 715 450.4 714 440.6 705.9C423.1 691.3 425.3 585.3 425.3 585.3L365.3 601.9Z" fill="#2E186A"/>
<path fill-rule="evenodd" clip-rule="evenodd" d="M342.5 384.3L349.7 383.6C370.7 392.1 394.7 386.3 416.3 373.3C413.6 371 408.6 365.1 408.6 361.9C408.6 341.1 413.1 322.2 429.1 297.9L397 318.4C397 318.4 383.5 297.4 371.4 275.1C370.2 260 367.1 246.7 361 237.9C342.4 215.8 300.4 218.5 300.4 218.5L231.1 213.3L230.7 213.1C217.8 213.1 200.3 226.8 198.4 241.7C194.8 269.3 203.5 306.1 207.2 338C206.6 341.3 206 343.9 205.7 345.6C205.7 345.6 132.8 447 183.8 498C184.1 498.4 263.9 497.5 263.9 497.5L231.9 677L430.3 680.7C430.3 680.7 451.9 501.4 447.4 481.5C438.4 441.1 342.5 384.3 342.5 384.3Z" fill="#FE7624"/>
<path fill-rule="evenodd" clip-rule="evenodd" d="M263.089 179.416C263.798 177.918 265.587 177.279 267.084 177.989C268.582 178.698 269.221 180.487 268.511 181.984C266.881 185.427 266.296 190.057 267.065 194.839C268.422 203.58 273.523 209.695 277.928 209.344L278.128 209.323C279.772 209.118 281.272 210.284 281.477 211.928C281.683 213.572 280.516 215.071 278.872 215.277C270.493 216.324 262.95 207.44 261.138 195.776C260.185 189.843 260.924 183.986 263.089 179.416Z" fill="#FE7624"/>
<path fill-rule="evenodd" clip-rule="evenodd" d="M351.389 176.316C352.098 174.818 353.887 174.179 355.385 174.889C356.882 175.598 357.521 177.387 356.811 178.884C355.181 182.327 354.596 186.957 355.365 191.739C356.723 200.48 361.823 206.595 366.228 206.243L366.428 206.223C368.072 206.017 369.572 207.184 369.777 208.828C369.983 210.472 368.816 211.971 367.172 212.177C358.793 213.224 351.25 204.34 349.438 192.676C348.485 186.743 349.224 180.886 351.389 176.316Z" fill="#FE7624"/>
<path fill-rule="evenodd" clip-rule="evenodd" d="M271.6 107.6C283.9 96 286.4 42.7 245.6 12.1C204.2 -18.8 177.8 21.2 172.1 31.6C166.4 42 164.4 68.9 199.5 89.8C234.6 110.7 257.6 120.8 271.6 107.6Z" fill="#2E186A"/>
<path fill-rule="evenodd" clip-rule="evenodd" d="M294 128.3L293.2 128.9C288.6 132.7 281.5 132.2 277.4 127.7L265.9 115.1C261.8 110.6 262.2 103.8 266.8 100L267.6 99.4001C272.2 95.6001 279.3 96.1001 283.4 100.6L294.9 113.2C299 117.7 298.6 124.5 294 128.3Z" fill="#FE7624"/>
<path fill-rule="evenodd" clip-rule="evenodd" d="M284.414 174.09C287.266 168.108 284.485 160.83 278.203 157.836C271.922 154.842 264.518 157.264 261.666 163.247C258.814 169.229 261.595 176.507 267.876 179.501C274.158 182.495 281.562 180.073 284.414 174.09Z" fill="white"/>
<path fill-rule="evenodd" clip-rule="evenodd" d="M258.958 161.956C255.378 169.464 258.837 178.515 266.585 182.209C274.334 185.902 283.543 182.89 287.122 175.381C290.701 167.872 287.243 158.821 279.494 155.128C271.746 151.434 262.537 154.447 258.958 161.956ZM264.374 164.537C266.498 160.081 272.098 158.249 276.912 160.544C281.727 162.839 283.83 168.343 281.706 172.799C279.581 177.256 273.982 179.088 269.167 176.793C264.352 174.497 262.25 168.994 264.374 164.537Z" fill="#2E186A"/>
<path fill-rule="evenodd" clip-rule="evenodd" d="M370.669 170.039C373.52 164.057 370.74 156.78 364.458 153.785C358.177 150.791 350.772 153.213 347.921 159.196C345.069 165.178 347.849 172.456 354.131 175.45C360.413 178.444 367.817 176.022 370.669 170.039Z" fill="white"/>
<path fill-rule="evenodd" clip-rule="evenodd" d="M345.213 157.905C341.633 165.414 345.092 174.465 352.84 178.158C360.589 181.852 369.798 178.839 373.377 171.331C376.956 163.822 373.498 154.771 365.749 151.077C358.001 147.384 348.792 150.397 345.213 157.905ZM350.629 160.487C352.753 156.031 358.353 154.199 363.167 156.494C367.982 158.789 370.085 164.292 367.961 168.749C365.836 173.205 360.237 175.037 355.422 172.742C350.607 170.447 348.504 164.944 350.629 160.487Z" fill="#2E186A"/>
<path fill-rule="evenodd" clip-rule="evenodd" d="M324.1 204.2L324.8 222.1L339.8 225.4C340.6 227.8 341.6 270 303.1 264.7C277.8 261.3 266 238.7 259.3 218L280.7 219.5L280.8 169.3L324.1 204.2Z" fill="white"/>
<path fill-rule="evenodd" clip-rule="evenodd" d="M277.8 169.294L277.706 216.283L259.51 215.007C257.39 214.859 255.791 216.902 256.446 218.924C260.495 231.435 265.395 241.625 271.885 249.715C279.943 259.758 290.104 265.981 302.701 267.673C320.994 270.192 332.909 262.899 338.936 249.141C342.726 240.488 343.883 228.162 342.646 224.451L342.578 224.267C342.207 223.357 341.412 222.683 340.445 222.47L327.706 219.668L327.098 204.083C327.064 203.217 326.658 202.408 325.983 201.864L282.683 166.964C280.723 165.384 277.805 166.776 277.8 169.294ZM283.787 175.56L321.155 205.679L321.803 222.217L321.815 222.394C321.941 223.68 322.881 224.75 324.156 225.03L337.027 227.861L337.033 228.058C337.063 229.499 337 231.209 336.831 233.018C336.384 237.779 335.282 242.528 333.44 246.734C328.454 258.115 319.055 263.868 303.509 261.728L302.902 261.642C284.331 258.891 272.358 245.26 263.985 222.396L263.592 221.308L280.491 222.493C282.223 222.614 283.697 221.243 283.7 219.506L283.787 175.56Z" fill="#2E186A"/>
<path fill-rule="evenodd" clip-rule="evenodd" d="M325.907 214.233C347.471 210.271 360.826 184.603 355.737 156.901C350.647 129.199 329.04 109.954 307.476 113.916C285.912 117.878 272.557 143.547 277.647 171.248C282.736 198.95 304.343 218.195 325.907 214.233Z" fill="white"/>
<path fill-rule="evenodd" clip-rule="evenodd" d="M306.934 110.965C283.556 115.261 269.332 142.598 274.696 171.79C280.06 200.983 303.071 221.479 326.449 217.183C349.827 212.888 364.051 185.551 358.687 156.358C353.323 127.166 330.312 106.67 306.934 110.965ZM308.018 116.866C327.768 113.238 347.97 131.231 352.786 157.443C357.602 183.654 345.115 207.654 325.365 211.282C305.615 214.911 285.413 196.917 280.597 170.706C275.781 144.495 288.268 120.495 308.018 116.866Z" fill="#2E186A"/>
<path fill-rule="evenodd" clip-rule="evenodd" d="M322.726 150.902C324.27 150.489 325.854 151.359 326.348 152.857L326.399 153.026L331.885 173.576C332.608 176.108 330.811 178.773 328.096 178.896L320.418 179.198C318.763 179.263 317.368 177.974 317.302 176.318C317.239 174.722 318.436 173.368 320.006 173.214L320.182 173.202L325.519 172.991L320.602 154.574C320.189 153.03 321.059 151.446 322.557 150.952L322.726 150.902Z" fill="#2E186A"/>
<path fill-rule="evenodd" clip-rule="evenodd" d="M299.988 139.592C303.278 137.738 306.801 137.048 310.274 138.397C311.457 138.857 312.571 139.545 313.598 140.462C314.834 141.566 314.942 143.462 313.838 144.698C312.777 145.886 310.983 146.031 309.748 145.06L309.602 144.938C309.105 144.494 308.607 144.186 308.101 143.99C306.607 143.409 304.811 143.761 302.934 144.819C302.473 145.079 302.05 145.358 301.681 145.635L301.373 145.875L301.302 145.935C300.067 147.04 298.171 146.936 297.065 145.701C295.96 144.467 296.065 142.57 297.299 141.465C297.866 140.957 298.783 140.271 299.988 139.592Z" fill="#2E186A"/>
<path fill-rule="evenodd" clip-rule="evenodd" d="M330.598 138.484C332.738 137.987 334.964 137.832 337.142 138.247C340.325 138.853 342.95 140.634 344.559 143.709C345.326 145.178 344.759 146.99 343.291 147.758C341.877 148.498 340.144 147.999 339.331 146.65L339.242 146.49C338.53 145.129 337.485 144.42 336.018 144.141C334.781 143.905 333.35 144.005 331.956 144.328L331.608 144.414C331.342 144.483 331.139 144.545 331.013 144.588L330.946 144.612C329.394 145.189 327.666 144.399 327.089 142.846C326.511 141.293 327.301 139.566 328.854 138.988C329.232 138.848 329.829 138.663 330.598 138.484Z" fill="#2E186A"/>
<path fill-rule="evenodd" clip-rule="evenodd" d="M313.631 160.729C313.712 158.245 312.435 156.188 310.779 156.134C309.123 156.08 307.715 158.05 307.634 160.534C307.553 163.018 308.83 165.075 310.486 165.129C312.142 165.183 313.55 163.213 313.631 160.729Z" fill="#2E186A"/>
<path fill-rule="evenodd" clip-rule="evenodd" d="M339.233 166.19C340.885 166.07 342.08 163.963 341.9 161.485C341.721 159.006 340.235 157.093 338.583 157.213C336.93 157.333 335.736 159.439 335.916 161.918C336.095 164.397 337.58 166.309 339.233 166.19Z" fill="#2E186A"/>
<path fill-rule="evenodd" clip-rule="evenodd" d="M302.3 102L302.2 102.1C289.3 104 274.9 109.9 266.8 118.5C252.6 133.8 259.1 166.7 273.6 168.9C274.8 169.1 276 169.2 277.2 169.3C277.1 168.5 277 167.6 276.9 166.8C276.6 163.7 276.4 160.7 276.5 157.8C296.3 150.4 296.2 120.8 296.2 118.3C300.4 121.6 305.9 127.4 304.5 133.6L348.2 136.4C352.4 143.6 355.3 152.1 356.4 161.3C356.4 161.4 356.4 161.5 356.4 161.7C360.5 155.8 360.7 146.7 357.3 137.1L372.1 138C372.1 138 385.6 88.0002 302.3 102Z" fill="#2E186A"/>
<path fill-rule="evenodd" clip-rule="evenodd" d="M361.844 167.735C370.202 166.449 376.841 175.757 378.765 188.144C380.588 199.991 375.957 210.857 367.456 212.165C367.356 212.181 367.254 212.191 367.153 212.196L367 212.2H366.8C365.143 212.2 363.8 210.857 363.8 209.2C363.8 207.602 365.049 206.296 366.624 206.205L366.729 206.201C371.048 205.341 374.107 198.131 372.893 189.45L372.836 189.061C371.376 179.666 366.87 173.241 362.93 173.643L362.756 173.665C361.119 173.917 359.587 172.794 359.335 171.156C359.083 169.519 360.206 167.987 361.844 167.735Z" fill="#FE7624"/>
<path fill-rule="evenodd" clip-rule="evenodd" d="M272.444 171.835C280.946 170.527 288.643 179.501 290.465 191.344C292.288 203.191 287.657 214.057 279.156 215.365C279.056 215.38 278.954 215.391 278.853 215.396L278.7 215.4H278.5C276.843 215.4 275.5 214.057 275.5 212.4C275.5 210.802 276.749 209.496 278.324 209.405L278.425 209.402L278.438 209.401C282.748 208.541 285.807 201.331 284.592 192.646L284.535 192.256C283.173 183.404 277.993 177.258 273.554 177.739L273.356 177.765C271.719 178.017 270.187 176.894 269.935 175.256C269.683 173.618 270.806 172.087 272.444 171.835Z" fill="#FE7624"/>
<path fill-rule="evenodd" clip-rule="evenodd" d="M300.702 178.703C301.092 190.032 305.432 195.937 312.489 196.519C315.115 196.736 317.788 196.17 320.403 195.113C321.72 194.581 322.746 194.043 323.378 193.651C325.218 192.513 325.285 189.861 323.505 188.631L305.405 176.131C303.376 174.73 300.617 176.239 300.702 178.703ZM307.513 184.879L315.461 190.368L315.294 190.401C314.484 190.548 313.706 190.599 312.983 190.539C310.47 190.332 308.578 188.758 307.547 185.005L307.513 184.879Z" fill="#2E186A"/>
<path fill-rule="evenodd" clip-rule="evenodd" d="M257.016 319.515C260.961 318.191 265.058 318.378 268.937 319.46C270.107 319.786 270.999 320.122 271.545 320.37C273.052 321.058 273.717 322.837 273.03 324.344C272.367 325.798 270.689 326.468 269.218 325.898L268.851 325.745C268.798 325.724 268.736 325.7 268.664 325.673C268.276 325.527 267.826 325.379 267.325 325.239C264.502 324.452 261.563 324.318 258.926 325.203C256.29 326.088 254.072 327.958 252.332 331.139C251.537 332.593 249.715 333.127 248.261 332.332C246.807 331.537 246.273 329.714 247.068 328.261C249.529 323.76 252.942 320.883 257.016 319.515Z" fill="#2E186A"/>
<path fill-rule="evenodd" clip-rule="evenodd" d="M240.663 320.12C249.961 308.561 259.694 307.373 267.874 312.715C268.847 313.35 269.709 314.031 270.456 314.717L270.782 315.024C271.083 315.314 271.312 315.556 271.466 315.734C272.552 316.985 272.418 318.88 271.166 319.966C269.963 321.01 268.165 320.926 267.063 319.805L266.814 319.537C266.719 319.44 266.58 319.304 266.398 319.137C265.883 318.663 265.277 318.185 264.593 317.738C262.314 316.25 259.797 315.5 257.107 315.829C253.405 316.281 249.468 318.747 245.338 323.88C244.299 325.171 242.411 325.376 241.12 324.337C239.829 323.299 239.624 321.41 240.663 320.12Z" fill="#2E186A"/>
<path fill-rule="evenodd" clip-rule="evenodd" d="M353.3 301.6L369 295.6C369 295.6 381.3 282 386.7 278C392.1 273.9 402.8 274.4 395.6 280.7C388.4 287 387.4 290.8 387.4 290.8C387.4 290.8 406.3 285.3 416.7 278.8C427.3 272.2 425 283.5 425 283.5C425 283.5 433 284.6 429.9 288.7C429.9 288.7 436.1 292.2 429.9 295.8C429.9 295.8 438.6 296.7 433.6 301.9C430 309.3 404.8 323.4 389.3 322.2L380.7 326L369.8 331.4" fill="white"/>
<path fill-rule="evenodd" clip-rule="evenodd" d="M384.886 275.611C388.079 273.187 392.905 271.925 396.359 272.489C401.991 273.409 402.51 278.476 397.791 282.766L397.576 282.958C396.931 283.522 396.33 284.072 395.771 284.607L395.291 285.072L396.211 284.748C398.498 283.931 400.755 283.076 402.933 282.192L404.229 281.658C408.361 279.932 411.902 278.208 414.662 276.532L415.115 276.253C418.841 273.933 421.857 273.158 424.353 274.146C426.727 275.085 427.84 277.187 428.134 279.777C428.171 280.104 428.194 280.433 428.205 280.761L428.211 281.182L428.506 281.282L428.859 281.409C430.524 282.032 431.85 282.863 432.728 284.134C433.467 285.205 433.738 286.401 433.567 287.607L433.541 287.757C434.763 288.978 435.568 290.389 435.649 292.076L435.656 292.359C435.656 293.024 435.541 293.661 435.316 294.267L435.272 294.377L435.394 294.449C436.348 295.032 437.105 295.779 437.606 296.767L437.726 297.02C438.679 299.163 438.03 301.412 436.166 303.541L436.073 303.643L435.99 303.796C430.628 313.201 405.08 325.82 389.998 325.244L389.849 325.237L381.967 328.72L371.132 334.088C369.702 334.796 367.981 334.26 367.198 332.893L367.112 332.732C366.404 331.302 366.941 329.58 368.307 328.798L368.469 328.712L379.369 323.312L379.488 323.256L388.088 319.456C388.541 319.255 389.038 319.171 389.532 319.209C396.054 319.714 405.382 317.14 414.582 312.586C422.807 308.515 429.498 303.474 430.903 300.588C431.04 300.306 431.22 300.047 431.438 299.821C431.528 299.727 431.609 299.638 431.682 299.555L431.842 299.361L431.676 299.292L431.512 299.23C431.102 299.083 430.636 298.963 430.165 298.875L429.805 298.813L429.592 298.784C426.762 298.491 425.917 294.822 428.241 293.3L428.394 293.206C428.924 292.898 429.288 292.621 429.508 292.394L429.574 292.321L429.51 292.235C429.458 292.17 429.397 292.101 429.327 292.029L429.216 291.92C428.943 291.661 428.657 291.455 428.49 291.351L428.426 291.312C427.008 290.512 426.514 288.757 427.216 287.358L427.275 287.247L427.175 287.201L426.905 287.086L426.755 287.028C426.291 286.854 425.769 286.708 425.243 286.594L424.994 286.543C424.806 286.505 424.666 286.482 424.592 286.472C422.935 286.244 421.796 284.711 422.03 283.077L422.089 282.74C422.101 282.663 422.115 282.565 422.129 282.448C422.216 281.765 422.24 281.056 422.172 280.454C422.14 280.174 422.091 279.944 422.035 279.779L422.013 279.724L422 279.725C421.912 279.733 421.784 279.753 421.607 279.793L421.466 279.827C420.734 280.015 419.77 280.45 418.59 281.16L418.29 281.344C415.155 283.303 411.179 285.257 406.542 287.194C402.532 288.87 398.25 290.441 393.969 291.868L392.713 292.282C391.894 292.55 391.113 292.799 390.376 293.029L388.665 293.554L388.239 293.68C385.999 294.332 383.906 292.292 384.499 290.036C384.709 289.239 385.258 288.029 386.299 286.457C387.817 284.163 390.064 281.612 393.175 278.84L393.658 278.412L393.529 278.428C391.943 278.641 390.087 279.29 388.734 280.231L388.486 280.411C386.994 281.516 384.718 283.596 381.906 286.389L381.221 287.073C380.807 287.488 380.384 287.916 379.954 288.354C378.3 290.04 376.59 291.83 374.897 293.637L373.535 295.098L371.225 297.612C370.954 297.913 370.624 298.155 370.258 298.324L370.071 298.402L354.371 304.402C352.824 304.994 351.09 304.219 350.498 302.671C349.928 301.179 350.628 299.513 352.067 298.865L352.229 298.798L367.261 293.052L368.791 291.39C369.017 291.145 369.251 290.894 369.49 290.636C371.544 288.427 373.645 286.218 375.672 284.152L376.544 283.268L376.972 282.837C380.301 279.497 382.993 277.012 384.886 275.611Z" fill="#2E186A"/>
<path fill-rule="evenodd" clip-rule="evenodd" d="M399.4 294.6C399.4 294.6 418.6 289.9 425 283.5L399.4 294.6Z" fill="white"/>
<path fill-rule="evenodd" clip-rule="evenodd" d="M422.879 281.379C424.051 280.207 425.95 280.207 427.122 281.379C428.293 282.55 428.293 284.45 427.122 285.621C424.453 288.29 420.058 290.694 414.329 292.961C411.212 294.195 407.89 295.309 404.57 296.289L403.437 296.618C402.886 296.776 402.357 296.923 401.854 297.059L400.246 297.481C400.189 297.495 400.145 297.506 400.114 297.514C398.504 297.908 396.88 296.923 396.486 295.313C396.107 293.761 397.009 292.196 398.517 291.733L399.816 291.394L400.771 291.135C401.43 290.953 402.133 290.753 402.871 290.535C406.031 289.602 409.189 288.543 412.12 287.383C417.143 285.394 420.94 283.318 422.879 281.379Z" fill="#2E186A"/>
<path fill-rule="evenodd" clip-rule="evenodd" d="M401.9 301.1C404 300.2 419.3 297.4 429 288L401.9 301.1Z" fill="white"/>
<path fill-rule="evenodd" clip-rule="evenodd" d="M426.913 285.846C428.103 284.693 430.002 284.722 431.155 285.912C432.308 287.102 432.278 289.001 431.088 290.154C428.179 292.973 424.69 295.375 420.718 297.432C417.06 299.325 413.228 300.819 409.07 302.111L407.711 302.518C405.782 303.083 403.211 303.802 403.082 303.857C401.559 304.51 399.796 303.805 399.143 302.282C398.49 300.759 399.196 298.995 400.719 298.343C401.316 298.087 405.946 296.799 407.289 296.381C411.135 295.186 414.652 293.815 417.959 292.103C421.443 290.3 424.458 288.224 426.913 285.846Z" fill="#2E186A"/>
<path fill-rule="evenodd" clip-rule="evenodd" d="M404.4 308C408.7 306.2 418.3 306.7 430 296.3L404.4 308Z" fill="white"/>
<path fill-rule="evenodd" clip-rule="evenodd" d="M407.79 310.121L407.509 310.187L407 310.313C406.526 310.435 406.151 310.546 405.844 310.657L405.559 310.767C404.031 311.407 402.273 310.687 401.633 309.158C400.993 307.63 401.714 305.872 403.242 305.233C403.954 304.934 404.723 304.696 405.73 304.445L406.667 304.226C407.425 304.059 409.843 303.522 410.713 303.305C412.494 302.861 414.1 302.368 415.724 301.739C419.898 300.122 423.915 297.695 428.007 294.058C429.246 292.957 431.142 293.068 432.243 294.307C433.343 295.545 433.232 297.441 431.994 298.542C427.359 302.661 422.725 305.461 417.891 307.334C416.249 307.97 414.634 308.482 412.91 308.936L412.164 309.127C411.017 309.413 407.631 310.158 407.79 310.121Z" fill="#2E186A"/>
<path fill-rule="evenodd" clip-rule="evenodd" d="M261.356 262.594C262.961 262.182 264.595 263.15 265.006 264.755C265.492 266.651 265.96 268.586 266.411 270.558C269.074 282.203 271.046 294.657 272.434 307.107C272.882 311.127 273.238 314.883 273.513 318.294L273.648 320.042L351.612 298.805C352.868 298.463 354.193 298.971 354.903 300.045L355 300.203L372.1 329.903C372.97 331.413 372.373 333.345 370.803 334.102L366.037 336.423C363.329 337.747 360.174 339.298 356.569 341.08L349.918 344.374C340.316 349.142 329.333 354.641 316.952 360.891L308.277 365.274C286.097 376.385 267.864 382.44 251.773 382.562C230.386 382.724 214.762 371.912 206.375 348.408C205.818 346.848 206.632 345.131 208.192 344.574C209.752 344.017 211.469 344.831 212.026 346.391C219.551 367.48 232.882 376.705 251.728 376.562C266.682 376.449 284.17 370.639 305.599 359.904L319.784 352.743C329.216 347.992 337.781 343.707 345.488 339.876L354.628 335.347C357.943 333.709 360.867 332.272 363.401 331.033L365.294 330.107L350.955 305.202L271.689 326.794C269.901 327.281 268.12 326.049 267.919 324.235L267.9 323.976L267.786 322.168C267.751 321.654 267.711 321.102 267.667 320.515L267.598 319.606C267.32 316.037 266.948 312.058 266.471 307.772C265.107 295.531 263.169 283.294 260.562 271.895C260.123 269.973 259.667 268.089 259.194 266.244C258.783 264.639 259.751 263.005 261.356 262.594Z" fill="#2E186A"/>
<path fill-rule="evenodd" clip-rule="evenodd" d="M1017.2 659V753.6H894.8C894.8 753.6 894.4 718.9 950.8 712.5V662L1017.2 659Z" fill="#2E186A"/>
<path fill-rule="evenodd" clip-rule="evenodd" d="M916.1 659V753.6H793.7C793.7 753.6 793.3 718.9 849.7 712.5V662L916.1 659Z" fill="#2E186A"/>
<path fill-rule="evenodd" clip-rule="evenodd" d="M952.9 413.8L859.6 474.9C848.6 487 842.2 503.3 841.6 520.5L835.6 689.3H912.6C912.6 689.3 1019.1 691.2 1019.1 683.5C1019.1 677.3 1025.4 564.5 1027.9 519.9C1028.5 509.7 1036.6 501.6 1046.8 501.1C1065 500.2 1092 498.9 1103.9 498.6C1197.1 495.4 1172.2 456.9 1161.2 429.5C1156.9 418.9 1152.8 408.9 1149.6 401.2" fill="white"/>
<path fill-rule="evenodd" clip-rule="evenodd" d="M1148.45 398.43C1149.98 397.794 1151.73 398.519 1152.37 400.049L1155.99 408.797C1158.45 414.781 1161.18 421.475 1163.98 428.382L1164.46 429.566C1164.69 430.108 1164.92 430.676 1165.18 431.286L1167.74 437.294C1169.95 442.461 1171.32 445.913 1172.52 449.479C1177.48 464.256 1176.93 475.41 1168.42 484.259C1158.44 494.632 1137.84 500.436 1103.98 501.599L1100.5 501.7C1089.85 502.042 1071.57 502.879 1046.95 504.096C1038.3 504.52 1031.41 511.386 1030.9 520.068L1027.46 581.596C1024.19 640.726 1022.1 679.818 1022.1 683.5C1022.1 685.37 1020.97 686.612 1019.3 687.491C1018.27 688.031 1016.92 688.479 1015.21 688.88C1012.36 689.552 1008.39 690.113 1003.36 690.584L1002.73 690.642C993.491 691.48 980.948 692.012 965.905 692.287C952.173 692.538 937.606 692.56 923.771 692.437L915.183 692.34L912.6 692.3H835.6C833.96 692.3 832.636 690.987 832.601 689.368L832.602 689.193L838.602 520.395C839.228 502.462 845.917 485.492 857.38 472.882C857.508 472.741 857.649 472.613 857.801 472.499L857.957 472.39L951.257 411.29C952.643 410.383 954.502 410.77 955.41 412.156C956.284 413.491 955.957 415.265 954.694 416.205L954.544 416.31L861.569 477.195L861.36 477.43C851.301 488.747 845.346 503.853 844.627 519.878L844.598 520.607L838.708 686.299L912.842 686.304L919.694 686.396L920.393 686.404C935.183 686.562 950.986 686.559 965.795 686.288L969.628 686.211C982.211 685.935 992.852 685.464 1000.99 684.772L1002.19 684.667C1007.07 684.225 1010.89 683.703 1013.53 683.111L1013.84 683.04C1014.7 682.837 1015.4 682.632 1015.91 682.438L1016.12 682.354L1016.2 680.364C1016.65 669.254 1018.66 631.986 1021.63 578.465L1024.91 519.724C1025.6 507.982 1034.94 498.678 1046.65 498.104L1065.46 497.19C1083.29 496.342 1096.32 495.79 1103.8 495.602C1136.21 494.489 1155.47 489.062 1164.09 480.099C1170.72 473.215 1171.16 464.274 1166.83 451.39L1166.56 450.61C1165.67 448.008 1164.63 445.356 1163.16 441.856L1159.85 434.08C1159.44 433.11 1159.08 432.246 1158.74 431.43L1153.73 419.113C1151.21 412.933 1148.85 407.202 1146.83 402.351C1146.19 400.821 1146.92 399.066 1148.45 398.43Z" fill="#2E186A"/>
<path fill-rule="evenodd" clip-rule="evenodd" d="M1047.35 404.128C1048.88 403.495 1050.64 404.222 1051.27 405.754C1051.88 407.23 1051.23 408.914 1049.81 409.6L1049.65 409.672L942.776 453.877L942.686 453.935C935.907 458.286 932.473 467.989 931.109 483.413L930.95 485.331C930.755 487.828 930.633 490.041 930.477 493.8L930.199 500.896L924.199 689.396C924.146 691.052 922.761 692.351 921.105 692.299C919.508 692.248 918.242 690.958 918.201 689.381L918.202 689.205L924.203 500.678L924.515 492.767C924.685 488.791 924.823 486.546 925.075 483.548C926.568 465.761 930.61 454.286 939.834 448.641C939.924 448.587 940.016 448.537 940.11 448.492L940.253 448.428L1047.35 404.128Z" fill="#2E186A"/>
<path fill-rule="evenodd" clip-rule="evenodd" d="M1175.8 337.3C1148.1 172.1 1102.9 195.4 1079.9 196.2L1027.5 198.3C1027.5 197.7 1027.4 197 1027.3 196.2C1026.9 194.3 1024.8 192.8 1022.2 191.5V191.4C1028.9 189.7 1041.7 186 1041.6 183.1C1041.4 179 1015.8 181 1007.9 181.5C1003.9 181.7 996.1 184.1 989.5 186.4C980.9 189.3 973.9 195.7 970.2 204C968.8 207.2 964.5 218.1 963.2 221.2L946.6 213.7C946.6 213.7 914.9 286.1 907.6 304.9C906.7 307.4 906.1 309.7 905.5 312.1C890 358.5 922.6 382.6 922.6 382.6L1081.9 384.2L1063.4 399.9C1060.7 403 1150.3 396 1153.4 396.4C1155 396.6 1146.9 384.3 1138.7 372.3C1158.1 364.4 1177 352.6 1175.8 337.3Z" fill="#5D21D1"/>
<path fill-rule="evenodd" clip-rule="evenodd" d="M1080.52 253.45C1080.71 251.804 1082.21 250.627 1083.85 250.821C1085.5 251.014 1086.67 252.505 1086.48 254.151C1085.83 259.642 1087.19 267.219 1090.21 276.269C1091.84 281.124 1093.9 286.273 1096.3 291.588C1098.51 296.489 1100.88 301.26 1103.25 305.706L1103.86 306.843C1104.06 307.212 1104.25 307.572 1104.44 307.921L1104.85 308.651L1105.34 308.353C1116.91 301.407 1127.53 300.058 1136.33 302.148L1136.74 302.247C1138.19 302.61 1139.24 302.99 1139.86 303.277C1141.36 303.973 1142.02 305.756 1141.32 307.26C1140.65 308.71 1138.97 309.371 1137.5 308.792L1137.21 308.667C1137.13 308.639 1137.04 308.602 1136.92 308.558C1136.46 308.394 1135.91 308.226 1135.28 308.066C1127.19 306.037 1117.01 307.526 1105.49 315.379C1104.11 316.322 1102.23 315.946 1101.31 314.574L1101.09 314.212L1100.45 313.09L1099.76 311.849C1099.2 310.836 1098.59 309.726 1097.95 308.529C1095.52 303.973 1093.1 299.086 1090.83 294.055C1088.35 288.567 1086.22 283.235 1084.52 278.173C1081.24 268.357 1079.75 260.006 1080.52 253.45Z" fill="#2E186A"/>
<path fill-rule="evenodd" clip-rule="evenodd" d="M1107.13 311.854C1107.79 313.307 1107.2 315.014 1105.8 315.751L1104.75 316.237L1043.94 344.078C1033.77 348.75 1027.49 351.658 1026.45 352.175L1026.34 352.234C1024.88 353.027 1023.06 352.491 1022.27 351.037C1021.5 349.636 1021.97 347.895 1023.31 347.059L1023.46 346.967C1024.36 346.479 1034.79 341.665 1052.91 333.358L1086.73 317.877L1103.15 310.371C1104.66 309.683 1106.44 310.347 1107.13 311.854Z" fill="#2E186A"/>
<path fill-rule="evenodd" clip-rule="evenodd" d="M981.156 228.787C981.802 227.326 983.473 226.637 984.95 227.19L985.113 227.256L994.613 231.456C995.992 232.066 996.696 233.597 996.284 235.027L996.229 235.199L965.529 322.199C964.978 323.761 963.264 324.581 961.702 324.029C960.195 323.498 959.379 321.885 959.817 320.37L959.871 320.202L989.646 235.82L982.687 232.744C981.226 232.098 980.537 230.428 981.09 228.95L981.156 228.787Z" fill="#2E186A"/>
<path fill-rule="evenodd" clip-rule="evenodd" d="M1077.3 204L1059 157.3L1018.9 182.8L1023.8 205.4L1022.5 253.4L1077.3 204Z" fill="white"/>
<path fill-rule="evenodd" clip-rule="evenodd" d="M1017.29 180.269L1017.13 180.38C1016.18 181.076 1015.72 182.272 1015.97 183.436L1020.79 205.681L1019.5 253.319C1019.43 255.955 1022.55 257.394 1024.51 255.629L1079.31 206.229C1080.24 205.392 1080.55 204.069 1080.09 202.906L1061.79 156.206C1061.1 154.448 1058.98 153.756 1057.39 154.769L1017.29 180.269ZM1057.54 161.786L1073.75 203.161L1025.69 246.487L1026.8 205.482L1026.8 205.241C1026.79 205.081 1026.77 204.922 1026.73 204.765L1022.27 184.208L1057.54 161.786Z" fill="#2E186A"/>
<path fill-rule="evenodd" clip-rule="evenodd" d="M1003 106.1C1003 106.1 1036.9 127.7 1020.3 147.8C1020.3 147.8 1012.9 156.2 1006.8 154.5C1006.8 154.5 1011.3 147.4 1006.2 143.6C1006.2 143.6 1004.5 165 987 160.6C987 160.6 993.5 151.1 991.8 139.8C988.3 116 993.8 101.8 1003 106.1Z" fill="#2E186A"/>
<path fill-rule="evenodd" clip-rule="evenodd" d="M1073.4 140.4C1073.4 140.4 1080.2 98.6003 1037.9 91.1003C1034 90.4003 1006.9 86.2003 1001.8 108.6C998.4 123.6 997.7 139.8 998 152.5C998 152.6 998.2 176.4 1007.5 189.7C1016.8 203 1037.7 201.9 1048.7 195.5C1059.8 189.1 1061.8 185.7 1065 178C1068.2 170.3 1073.4 140.5 1073.4 140.4Z" fill="white"/>
<path fill-rule="evenodd" clip-rule="evenodd" d="M1019.68 88.252C1009.16 90.4669 1001.63 96.6071 998.983 107.475L998.875 107.937C995.882 121.139 994.7 136.178 994.974 151.277L995.013 153.176C995.021 153.464 995.032 153.799 995.047 154.176C995.087 155.149 995.148 156.226 995.233 157.389C995.467 160.577 995.85 163.931 996.416 167.333C998.019 176.979 1000.77 185.312 1005.04 191.419C1009.93 198.413 1017.89 202.272 1027.24 202.979C1035.36 203.594 1043.98 201.715 1050.21 198.093L1051.16 197.541C1061.07 191.725 1063.99 188.237 1067.77 179.152L1067.85 178.96L1068.02 178.514C1070.53 171.621 1075.7 146.311 1076.34 141.154L1076.36 140.882C1076.42 140.506 1076.51 139.852 1076.59 138.955C1077.29 131.25 1076.51 122.464 1073.07 114.041C1067.64 100.783 1056.62 91.5378 1039.03 88.2559L1038.42 88.1463C1036.49 87.7986 1034.17 87.5134 1031.47 87.3923C1027.45 87.2123 1023.47 87.4541 1019.68 88.252ZM1004.48 110.355L1004.73 109.266C1006.69 100.618 1012.37 95.922 1020.92 94.1234C1024.17 93.4393 1027.66 93.2274 1031.2 93.3863C1033.61 93.4944 1035.67 93.7481 1037.37 94.0531C1053.27 96.8713 1062.8 104.78 1067.51 116.314C1070.45 123.489 1071.2 131.118 1070.67 137.803L1070.61 138.408C1070.58 138.763 1070.55 139.083 1070.51 139.365L1070.44 139.919C1070.41 140.078 1070.4 140.239 1070.4 140.4L1070.4 140.371C1070.4 140.341 1070.39 140.357 1070.38 140.396L1070.31 140.686L1069.68 144.21L1069.59 144.693C1069.04 147.687 1068.44 150.814 1067.83 153.907L1067.46 155.757C1065.42 165.849 1063.59 173.447 1062.3 176.671L1061.92 177.597C1058.7 185.156 1056.44 187.572 1047.2 192.901C1035.37 199.784 1017.25 198.413 1009.96 187.981C1006.3 182.749 1003.8 175.191 1002.33 166.349C1001.8 163.139 1001.44 159.964 1001.22 156.95L1001.14 155.882C1001.12 155.536 1001.1 155.2 1001.09 154.875L1001.02 153.446C1001.01 153.144 1001.01 152.887 1001 152.679L1001 152.468C1000.65 137.773 1001.71 123.14 1004.48 110.355Z" fill="#2E186A"/>
<path fill-rule="evenodd" clip-rule="evenodd" d="M1012.56 142.685C1012.9 141.063 1014.49 140.024 1016.12 140.364C1017.68 140.692 1018.7 142.183 1018.47 143.743L1018.44 143.916L1015.03 160.148L1018.23 159.638C1019.8 159.386 1021.29 160.413 1021.63 161.953L1021.66 162.126C1021.91 163.704 1020.89 165.191 1019.35 165.53L1019.17 165.563L1011.67 166.763C1009.66 167.086 1007.93 165.344 1008.23 163.356L1008.26 163.185L1012.56 142.685Z" fill="#2E186A"/>
<path fill-rule="evenodd" clip-rule="evenodd" d="M1008.02 141.764C1008.19 139.95 1007.39 138.391 1006.24 138.283C1005.08 138.175 1004.01 139.559 1003.84 141.374C1003.67 143.189 1004.47 144.747 1005.62 144.855C1006.78 144.963 1007.85 143.579 1008.02 141.764Z" fill="#2E186A"/>
<path fill-rule="evenodd" clip-rule="evenodd" d="M1026.51 147.188C1027.67 147.078 1028.46 145.518 1028.29 143.704C1028.12 141.89 1027.04 140.508 1025.89 140.618C1024.73 140.728 1023.94 142.288 1024.11 144.102C1024.28 145.916 1025.36 147.298 1026.51 147.188Z" fill="#2E186A"/>
<path fill-rule="evenodd" clip-rule="evenodd" d="M1028.86 122.22C1032.52 121.8 1035.66 122.835 1038.18 124.796C1038.92 125.373 1039.56 125.991 1040.09 126.616C1040.43 127.013 1040.68 127.347 1040.83 127.586C1041.72 128.983 1041.31 130.838 1039.91 131.729C1038.57 132.588 1036.8 132.24 1035.87 130.966L1035.77 130.814C1035.62 130.573 1035.18 130.063 1034.5 129.533C1033.22 128.542 1031.71 128.013 1029.87 128.15L1029.54 128.181C1027.9 128.37 1026.41 127.188 1026.22 125.542C1026.03 123.896 1027.21 122.409 1028.86 122.22Z" fill="#2E186A"/>
<path fill-rule="evenodd" clip-rule="evenodd" d="M1004.3 119.297C1006.13 119.172 1007.98 119.462 1009.8 120.014C1010.7 120.289 1011.42 120.571 1011.87 120.781C1013.37 121.48 1014.02 123.265 1013.32 124.767C1012.65 126.213 1010.97 126.87 1009.5 126.292L1009.16 126.143C1008.91 126.041 1008.53 125.9 1008.05 125.755C1006.88 125.398 1005.71 125.215 1004.71 125.283C1003.71 125.351 1003.02 125.649 1002.53 126.234L1002.42 126.374C1001.44 127.71 999.562 127.999 998.226 127.019C996.89 126.039 996.601 124.162 997.581 122.826C999.214 120.599 1001.58 119.483 1004.3 119.297Z" fill="#2E186A"/>
<path fill-rule="evenodd" clip-rule="evenodd" d="M1040.4 109C1040.4 109 1024 165 1061.3 171C1061.3 171 1083 175 1088 167.4C1088 167.4 1072.3 158.9 1074.4 150C1074.4 150 1092 169.5 1107.5 155.7C1107.5 155.7 1081.8 151.2 1084.3 128.1C1085.9 111.4 1046.2 95.6004 1040.4 109Z" fill="#2E186A"/>
<path fill-rule="evenodd" clip-rule="evenodd" d="M1108.5 117.4L1085.8 113.8C1083.6 98.5002 1074.8 76.5002 1043.5 72.6002C994.5 66.6002 992.7 114.2 992.7 114.2L1106.2 132C1110.2 132.6 1114 129.9 1114.7 125.8C1115.3 121.8 1112.6 118 1108.5 117.4Z" fill="#FE7624"/>
<path fill-rule="evenodd" clip-rule="evenodd" d="M1030.96 166.382C1031.63 164.868 1033.4 164.186 1034.92 164.859C1036.43 165.532 1037.11 167.305 1036.44 168.819C1036.29 169.15 1036.04 169.616 1035.67 170.172C1035.08 171.049 1034.34 171.916 1033.43 172.722C1030.14 175.647 1025.57 177.021 1019.81 176.06C1018.17 175.787 1017.07 174.241 1017.34 172.607C1017.61 170.973 1019.16 169.869 1020.79 170.141C1024.75 170.8 1027.5 169.974 1029.45 168.238C1029.96 167.785 1030.37 167.302 1030.69 166.828L1030.86 166.555C1030.9 166.483 1030.93 166.431 1030.95 166.402L1030.96 166.382Z" fill="#2E186A"/>
<path fill-rule="evenodd" clip-rule="evenodd" d="M957.3 219.3C957.8 218 958.3 216.8 958.7 215.6C960.8 210.1 962.6 205.7 964.2 202.2C967.9 193.9 974.9 187.5 983.5 184.6C990.1 182.3 997.8 180 1001.9 179.7C1009.8 179.2 1035.4 177.3 1035.6 181.3C1035.8 184.2 1022.9 187.9 1016.2 189.6L1010.9 210C1010.9 210 1004.7 210.7 1001.6 212.4C995.3 215.8 989.1 221.5 984.5 221C984.5 221 984.2 224.3 983.2 229.9" fill="white"/>
<path fill-rule="evenodd" clip-rule="evenodd" d="M1017.52 175.883L1018.85 175.85C1023.44 175.753 1027.26 175.831 1030.21 176.13C1032.19 176.33 1033.78 176.628 1035.01 177.069C1037.06 177.804 1038.49 179.029 1038.59 181.094C1038.75 183.302 1037.41 184.775 1035.15 186.146C1033.75 187 1031.86 187.847 1029.53 188.713C1026.58 189.808 1023.05 190.888 1019.34 191.882L1018.66 192.062L1013.8 210.755C1013.51 211.894 1012.58 212.748 1011.43 212.953L1011.24 212.981L1010.82 213.034L1010.27 213.112C1010.07 213.141 1009.87 213.172 1009.66 213.207C1008.45 213.401 1007.24 213.642 1006.14 213.927C1004.81 214.271 1003.73 214.653 1003.03 215.04L1002.54 215.307C1001.56 215.852 1000.55 216.472 999.233 217.322L995.087 220.027C993.319 221.167 992.712 221.509 991.482 222.148C990.057 222.888 988.742 223.424 987.487 223.731L987.191 223.797L987.128 224.28C986.93 225.737 986.685 227.345 986.387 229.092L986.154 230.428C985.862 232.059 984.304 233.145 982.673 232.854C981.042 232.562 979.956 231.004 980.247 229.373L980.471 228.088C980.758 226.408 980.993 224.866 981.182 223.475L981.251 222.96C981.302 222.572 981.346 222.214 981.386 221.887L981.513 220.729C981.659 219.118 983.052 217.924 984.647 218.004L985.015 218.033C986.648 218.121 988.665 217.061 994.543 213.218L995.654 212.492C997.484 211.304 998.795 210.506 1000.16 209.77C1001.36 209.109 1002.87 208.575 1004.64 208.118C1005.68 207.848 1006.78 207.618 1007.87 207.423L1008.5 207.316L1013.3 188.846C1013.56 187.849 1014.31 187.06 1015.28 186.746L1015.46 186.693L1017 186.295C1020.83 185.288 1024.5 184.183 1027.44 183.088C1028.24 182.791 1028.98 182.499 1029.63 182.217L1029.84 182.123L1029.61 182.099L1028.85 182.03C1026.14 181.806 1022.57 181.759 1018.3 181.864L1017.69 181.88C1015.06 181.953 1012.3 182.076 1009.28 182.246L1006.36 182.42L1002.12 182.692C998.95 182.924 992.645 184.635 985.466 187.095L984.459 187.443C976.815 190.021 970.55 195.654 967.127 203.013L966.553 204.278C965.286 207.107 963.871 210.543 962.248 214.734L961.525 216.609L961.46 216.803C961.344 217.144 961.217 217.493 961.071 217.882L960.1 220.377C959.506 221.924 957.77 222.695 956.223 222.1C954.677 221.506 953.906 219.77 954.5 218.223L955.241 216.328L955.542 215.536C955.601 215.375 955.656 215.224 955.708 215.077L955.854 214.652L955.898 214.53L956.658 212.554C958.481 207.848 960.055 204.053 961.46 200.979C965.435 192.064 972.889 185.168 982.022 181.937L983.631 181.381C991.224 178.781 997.854 176.988 1001.71 176.706L1006.48 176.401C1006.97 176.371 1007.44 176.343 1007.92 176.315L1009.96 176.2C1012.64 176.056 1015.13 175.949 1017.52 175.883Z" fill="#2E186A"/>
<path fill-rule="evenodd" clip-rule="evenodd" d="M1001.3 185.9C1001.3 185.9 1019.8 188.2 1021.2 194.5C1022.6 200.8 1017.3 201.1 1017.3 201.1" fill="white"/>
<path fill-rule="evenodd" clip-rule="evenodd" d="M998.323 185.53C998.528 183.886 1000.03 182.719 1001.67 182.923L1002.6 183.053L1003.49 183.192C1003.96 183.267 1004.45 183.351 1004.96 183.444C1007.4 183.888 1009.84 184.444 1012.14 185.126L1012.96 185.373C1019.21 187.33 1023.24 189.856 1024.13 193.849C1025.08 198.126 1023.75 201.337 1020.89 203.019C1020.15 203.451 1019.39 203.738 1018.63 203.916C1018.16 204.026 1017.76 204.079 1017.47 204.095C1015.82 204.189 1014.4 202.924 1014.31 201.27C1014.21 199.675 1015.39 198.3 1016.96 198.12L1017.13 198.102C1017.15 198.098 1017.2 198.089 1017.26 198.074C1017.47 198.025 1017.68 197.948 1017.85 197.848C1018.43 197.507 1018.67 196.928 1018.27 195.151C1018.01 193.988 1015.09 192.256 1010.44 190.878C1008.37 190.265 1006.13 189.755 1003.89 189.348L1002.97 189.187C1002.82 189.162 1002.68 189.138 1002.54 189.115L1001.17 188.91C1001.07 188.895 1000.99 188.884 1000.93 188.877C999.286 188.673 998.119 187.174 998.323 185.53Z" fill="#2E186A"/>
<path fill-rule="evenodd" clip-rule="evenodd" d="M1000.6 193.3C1000.6 193.3 1016.9 196.8 1017.8 203.1C1018.7 209.4 1013.5 209.4 1013.5 209.4" fill="white"/>
<path fill-rule="evenodd" clip-rule="evenodd" d="M997.667 192.671C998.015 191.051 999.61 190.019 1001.23 190.367L1001.89 190.519L1002.82 190.751C1003.23 190.855 1003.66 190.969 1004.1 191.093C1006.22 191.685 1008.35 192.387 1010.35 193.203C1016.34 195.641 1020.18 198.532 1020.77 202.676C1021.36 206.821 1019.94 209.857 1017.16 211.407C1016.37 211.847 1015.55 212.121 1014.74 212.273C1014.23 212.367 1013.81 212.4 1013.5 212.4C1011.84 212.4 1010.5 211.057 1010.5 209.4C1010.5 207.803 1011.75 206.497 1013.32 206.406L1013.5 206.4C1013.46 206.4 1013.53 206.396 1013.64 206.374C1013.86 206.334 1014.07 206.263 1014.24 206.166C1014.8 205.853 1015.08 205.263 1014.83 203.525C1014.65 202.291 1012.17 200.423 1008.09 198.76C1006.32 198.04 1004.41 197.407 1002.49 196.872L1001.71 196.66C1001.45 196.593 1001.21 196.53 1000.98 196.472L1000.18 196.279C1000.09 196.259 1000.02 196.244 999.971 196.234C998.351 195.886 997.319 194.291 997.667 192.671Z" fill="#2E186A"/>
<path fill-rule="evenodd" clip-rule="evenodd" d="M999.5 202.5C999.5 202.5 1019.1 207 1011.6 213.9C1004.1 220.8 1000.3 220 1000.3 220C1000.3 220 994.9 216.6 1003.6 211.3" fill="white"/>
<path fill-rule="evenodd" clip-rule="evenodd" d="M996.576 201.829C996.947 200.214 998.557 199.205 1000.17 199.576L1000.64 199.689C1001.11 199.807 1001.75 199.977 1002.5 200.195C1004.21 200.694 1005.93 201.279 1007.55 201.951C1010.78 203.288 1013.25 204.792 1014.76 206.669C1017.15 209.632 1016.79 213.203 1013.63 216.108C1007.79 221.487 1003.23 223.329 1000.09 222.998C999.934 222.982 999.799 222.96 999.682 222.936C999.335 222.863 999.003 222.728 998.702 222.539C998.255 222.257 997.715 221.818 997.182 221.187C994.089 217.53 995.436 212.761 1002.04 208.738C1003.45 207.876 1005.3 208.324 1006.16 209.739C1007.02 211.154 1006.58 213 1005.16 213.862C1003.88 214.642 1002.95 215.369 1002.35 216.021C1002.07 216.32 1001.89 216.573 1001.77 216.777L1001.74 216.842L1001.83 216.814C1001.94 216.78 1002.06 216.74 1002.18 216.696L1002.57 216.545C1004.39 215.81 1006.61 214.365 1009.21 212.018L1009.82 211.462C1010.41 210.912 1010.41 210.84 1010.14 210.501L1010.09 210.434C1009.36 209.534 1007.63 208.477 1005.26 207.495C1003.86 206.915 1002.34 206.398 1000.82 205.956C1000.42 205.839 1000.04 205.734 999.691 205.641L998.829 205.424C997.214 205.053 996.206 203.444 996.576 201.829Z" fill="#2E186A"/>
<path fill-rule="evenodd" clip-rule="evenodd" d="M1026.1 349.9C1023 350.5 1019.6 351.1 1016 351.8C1014.8 352 994.2 365.1 994.2 365.1L1015.4 378.8C1015.4 378.8 1016.9 380.3 1049 378.3C1046.8 370.3 1034.8 358 1026.1 349.9Z" fill="white"/>
<path fill-rule="evenodd" clip-rule="evenodd" d="M1025.73 346.923L1025.53 346.955L1015.43 348.856C1014.49 349.011 1012.25 350.296 1006.47 353.866L1003.19 355.902L1000.11 357.827C999.062 358.482 998.003 359.148 996.942 359.816L992.59 362.569L992.428 362.68C990.746 363.904 990.791 366.469 992.572 367.62L1013.65 381.239L1013.69 381.268C1014.25 381.671 1014.92 381.864 1015.93 382.008L1016.51 382.082C1020.83 382.57 1030.9 382.434 1049.19 381.295C1051.09 381.176 1052.4 379.341 1051.89 377.505C1049.83 369.989 1040.9 359.583 1028.14 347.705C1027.49 347.098 1026.61 346.815 1025.73 346.923ZM1016.85 354.691L1025.16 353.13L1025.52 353.469C1034.34 361.809 1041.16 369.467 1044.37 375.14L1044.6 375.558L1042 375.706C1027.98 376.469 1020.14 376.5 1016.97 376.095L1016.68 376.052L999.768 365.126L1003.29 362.911L1006.71 360.776C1008.9 359.415 1010.83 358.229 1012.43 357.259L1014.4 356.079C1015.05 355.692 1015.61 355.371 1016.05 355.122L1016.55 354.848L1016.85 354.691Z" fill="#2E186A"/>
<path fill-rule="evenodd" clip-rule="evenodd" d="M1022 351.4C1022 351.4 1008.5 351.8 994.4 355.2C986 357.2 971.7 360.6 970.4 362.6C967.3 367.5 980.6 368.7 986.4 364.4" fill="white"/>
<path fill-rule="evenodd" clip-rule="evenodd" d="M1025 351.312C1025.05 352.909 1023.84 354.251 1022.27 354.389L1021.53 354.421C1021.14 354.438 1020.71 354.46 1020.22 354.488L1019.85 354.51C1018.04 354.621 1016 354.785 1013.79 355.01C1007.95 355.607 1002.04 356.522 996.393 357.814L990.78 359.152C989.034 359.574 987.666 359.913 986.122 360.305L984.78 360.649C983.249 361.046 981.842 361.424 980.552 361.788L979.58 362.066C977.688 362.614 976.113 363.118 974.886 363.572L974.28 363.803L974.424 363.831C974.641 363.872 974.873 363.908 975.119 363.938L975.368 363.966C978.563 364.293 982.298 363.558 984.388 362.15L984.614 361.99C985.944 361.004 987.823 361.283 988.81 362.614C989.797 363.945 989.518 365.824 988.187 366.81C984.819 369.307 979.45 370.415 974.757 369.935C972.344 369.688 970.296 369.031 968.882 367.88C966.746 366.14 966.318 363.442 967.885 360.965C969.046 359.179 971.989 357.998 978.074 356.254L978.923 356.013C980.257 355.637 981.703 355.248 983.271 354.842L986.36 354.058C988.34 353.565 990.365 353.077 993.697 352.284C1000.01 350.762 1006.64 349.71 1013.18 349.041C1015.22 348.833 1017.12 348.676 1018.85 348.562L1019.49 348.522C1020.15 348.481 1020.75 348.45 1021.26 348.427L1021.91 348.402C1023.57 348.353 1024.95 349.655 1025 351.312Z" fill="#2E186A"/>
<path fill-rule="evenodd" clip-rule="evenodd" d="M992.2 369.6C980.4 373.8 974.1 374.8 976.3 369.9C977.6 367.1 997 356.2 1000.8 354.9C1004.7 353.5 1026.1 350.4 1026.1 350.4" fill="white"/>
<path fill-rule="evenodd" clip-rule="evenodd" d="M1029.07 349.97C1029.3 351.551 1028.25 353.023 1026.7 353.339L1022.5 353.97L1019.92 354.368C1018.2 354.635 1016.5 354.905 1014.86 355.174L1013.64 355.375C1012.71 355.53 1011.81 355.682 1010.95 355.831L1009.51 356.084C1005.68 356.768 1002.96 357.34 1001.88 357.702L1001.77 357.739C1000.13 358.301 994.439 361.293 989.137 364.422L988.082 365.049C985.83 366.398 983.817 367.673 982.219 368.77L981.857 369.02C981.419 369.325 981.019 369.613 980.662 369.88L980.588 369.935L980.667 369.921C982.977 369.484 986.309 368.498 990.685 366.955L991.194 366.774C992.755 366.218 994.471 367.033 995.026 368.594C995.582 370.155 994.767 371.871 993.206 372.427L991.574 372.999C985.926 374.951 981.93 375.996 979.176 376.158C974.245 376.446 971.483 373.305 973.579 368.637C974.506 366.641 978.351 363.879 984.795 360.023L986.088 359.254C991.622 355.989 997.404 352.94 999.64 352.129L999.787 352.077C1001.13 351.594 1003.88 351.002 1007.93 350.271L1009.28 350.031C1009.92 349.92 1010.58 349.806 1011.26 349.69L1012.65 349.456C1014.69 349.118 1016.83 348.776 1018.99 348.439L1022.13 347.958L1025.67 347.431C1027.31 347.194 1028.83 348.33 1029.07 349.97Z" fill="#2E186A"/>
<path fill-rule="evenodd" clip-rule="evenodd" d="M1006.6 361.101C1006.6 361.101 998.6 364.201 992.5 367.601C986.4 371.001 982.9 374.401 983.4 375.601C983.9 376.801 988.8 378.901 992.8 377.101C998.3 373.401 1011.1 369.101 1011.1 369.101C1009.7 368.901 1001 373.401 996.1 375.401C991.3 377.401 987.7 382.501 999.7 380.801L1017.9 378.701" fill="white"/>
<path fill-rule="evenodd" clip-rule="evenodd" d="M1009.4 360.016C1010 361.561 1009.23 363.299 1007.68 363.898L1006.82 364.24L1005.95 364.596C1005.49 364.784 1005.01 364.984 1004.5 365.198C1002.1 366.211 999.705 367.291 997.477 368.387C996.206 369.013 995.028 369.626 993.961 370.221C991.4 371.648 989.24 373.123 987.758 374.411L987.569 374.577L987.809 374.633C989.064 374.901 990.314 374.852 991.337 374.461L991.382 374.441L991.505 374.361C992.024 374.027 992.594 373.688 993.213 373.343L993.686 373.084C995.343 372.189 997.313 371.261 999.538 370.308C1001.09 369.645 1002.71 368.992 1004.35 368.362L1004.62 368.259L1006.22 367.541C1009.37 366.151 1010.21 365.97 1011.35 366.107L1011.52 366.131C1014.59 366.569 1015.04 370.765 1012.23 371.88L1011.2 372.24C1010.78 372.386 1010.33 372.544 1009.86 372.713L1008.89 373.067C1008.55 373.192 1008.21 373.318 1007.87 373.445L1007 373.769L1004.88 374.739L1000.51 376.753C999.652 377.141 998.958 377.45 998.331 377.719L997.586 378.031L997.635 378.028C998.056 377.987 998.508 377.935 998.989 377.871L999.356 377.82L1017.56 375.72C1019.2 375.53 1020.69 376.711 1020.88 378.357C1021.06 379.944 1019.97 381.384 1018.42 381.655L1018.24 381.681L1000.12 383.771C996.957 384.219 994.542 384.264 992.778 383.89C990.896 383.491 989.431 382.507 988.86 380.983L988.783 380.757L988.747 380.757C985.19 380.609 981.768 379.121 980.711 376.933L980.631 376.754C979.139 373.174 983.634 369.107 991.04 364.98C992.202 364.332 993.47 363.672 994.827 363.004C997.17 361.851 999.67 360.726 1002.17 359.67L1003.67 359.045L1004.95 358.528L1005.52 358.303C1007.06 357.704 1008.8 358.472 1009.4 360.016Z" fill="#2E186A"/>
<path fill-rule="evenodd" clip-rule="evenodd" d="M1230.4 622.4L1231.7 704C1231.7 704 1184.7 715 1172.3 754.1L1276.3 754L1292.9 602.6L1230.4 622.4Z" fill="#FE7624"/>
<path fill-rule="evenodd" clip-rule="evenodd" d="M1120.1 626.5L1108.2 706.1C1108.2 706.1 1064 716.7 1052.3 753.5L1150 753.4L1180.9 617.2L1120.1 626.5Z" fill="#FE7624"/>
<path fill-rule="evenodd" clip-rule="evenodd" d="M1455.5 456.2L1450.5 392.5L1256.9 392.2L1253.2 414L1223.3 413.2C1147.5 409.8 1135.4 466.9 1135.4 466.9L1073.1 710.3L1165.7 710.7L1212.9 538.8L1191.5 709L1285.7 710.4L1304.1 535.3C1326.3 530.2 1398.4 513.3 1416.9 503.4C1435.6 496.5 1456.4 472.9 1455.5 456.2Z" fill="#2E186A"/>
<path fill-rule="evenodd" clip-rule="evenodd" d="M1452.7 290.6C1431 257 1404.1 235.8 1385.4 224C1397.1 204.9 1395 185.6 1345.9 181.6C1266.3 178.8 1258.2 200.1 1258.1 216.8C1231.9 237.7 1215.9 260 1206.4 281C1195 270.4 1173.9 251.1 1168.5 247.5C1161 242.5 1156.2 251.3 1150.2 248.2C1144.1 245.1 1142.1 244.2 1142.1 244.2C1142.1 244.2 1136.8 262.8 1121.9 267.9C1121.9 267.9 1122.2 270.7 1125.5 276.5C1128.8 282.3 1121.6 286.5 1127 293.7C1132.3 300.9 1178.7 360.1 1178.7 360.1C1184.3 365.6 1197.3 385.1 1211.4 379.2V377.9C1211.8 378.4 1212 378.6 1212 378.6C1212 378.6 1260.4 378.8 1312.1 379.1L1309.4 395.7C1436.2 407.9 1427.3 465.6 1462.4 442.8L1458.6 366C1470.6 351.8 1475.6 326.1 1452.7 290.6Z" fill="#FE7624"/>
<path fill-rule="evenodd" clip-rule="evenodd" d="M1355.1 203L1367.8 211.5C1367.8 211.5 1320.5 240.4 1314.3 314.8C1310.2 364.2 1309.3 421.6 1309.3 421.6L1287.3 424.7C1287.3 424.7 1294.6 289.7 1286 264.6C1277.4 239.5 1285.3 211.2 1291.1 206.7C1296.8 202.2 1355.1 203 1355.1 203Z" fill="white"/>
<path fill-rule="evenodd" clip-rule="evenodd" d="M1122.8 227.4C1122 226.9 1099.3 212.4 1093.3 210.9C1087.4 209.4 1086.6 216.5 1104.9 226.6C1104.9 226.6 1095.5 235.4 1101.3 248.6C1103 252.5 1118.5 267.9 1123.8 268.5C1129.1 269.1 1149.1 263.9 1144.9 251.5C1140.8 239.1 1133.6 234.6 1122.8 227.4Z" fill="white"/>
<path fill-rule="evenodd" clip-rule="evenodd" d="M1087.43 215.921C1089.15 219.325 1093.42 223.213 1100.03 227.247L1100.36 227.443L1100.17 227.718C1099.97 228.029 1099.77 228.351 1099.57 228.684C1096 234.741 1095.1 241.955 1098.55 249.807C1101.01 255.434 1117.56 270.813 1123.46 271.481C1127.24 271.909 1134.23 270.276 1139.34 267.515C1146.55 263.62 1150.18 257.726 1147.74 250.538C1144.82 241.704 1140.49 236.263 1132.58 230.457L1130.79 229.17C1130.37 228.871 1129.92 228.566 1129.36 228.185L1124.44 224.886L1121.9 223.284C1121.3 222.907 1120.67 222.517 1120.02 222.111C1116.92 220.187 1113.81 218.289 1110.8 216.512L1108.85 215.368L1107.43 214.547C1101.1 210.907 1096.56 208.622 1094.03 207.99C1088.69 206.633 1084.83 210.449 1087.31 215.685L1087.43 215.921ZM1093.33 214.114L1093.27 214.026L1093.29 214.036C1095.57 214.848 1100.05 217.189 1105.83 220.554L1107.1 221.296C1107.31 221.422 1107.53 221.549 1107.75 221.677C1110.22 223.137 1112.77 224.683 1115.32 226.258L1116.85 227.207C1117.71 227.743 1118.52 228.25 1119.3 228.736L1121.21 229.944L1126.02 233.169C1127.07 233.878 1127.68 234.315 1128.6 234.982L1129.47 235.621C1136.14 240.6 1139.61 245.042 1142.05 252.442C1143.38 256.372 1141.41 259.576 1136.49 262.236C1132.39 264.447 1126.61 265.799 1124.14 265.52C1120.67 265.126 1105.73 251.25 1104.05 247.402C1101.44 241.453 1102.08 236.234 1104.74 231.735C1105.25 230.868 1105.8 230.107 1106.34 229.465L1106.64 229.113C1106.73 229.016 1106.8 228.937 1106.86 228.879L1106.95 228.791C1108.44 227.398 1108.13 224.959 1106.35 223.974C1099.53 220.211 1095.13 216.688 1093.33 214.114Z" fill="#2E186A"/>
<path fill-rule="evenodd" clip-rule="evenodd" d="M1134.1 235.701C1134.1 235.701 1114.4 227.901 1112.4 229.101C1109.6 230.701 1112.7 238.701 1121.5 242.601C1121.5 242.601 1115.4 250.501 1118.8 256.601" fill="white"/>
<path fill-rule="evenodd" clip-rule="evenodd" d="M1110.86 226.528C1112.91 225.297 1116.11 226.085 1123.71 228.679L1124.14 228.825C1124.78 229.044 1125.44 229.273 1126.1 229.51C1127.68 230.068 1129.29 230.655 1130.87 231.25L1133.3 232.17L1135.2 232.911C1136.75 233.521 1137.5 235.264 1136.89 236.805C1136.28 238.345 1134.54 239.1 1133 238.49L1131.15 237.771C1130.88 237.668 1130.6 237.562 1130.32 237.453C1128.27 236.673 1126.16 235.893 1124.1 235.166C1123.45 234.935 1122.82 234.713 1122.2 234.501L1120.74 234.01C1118.7 233.334 1116.95 232.801 1115.55 232.444L1114.98 232.302L1114.61 232.218C1114.73 232.545 1114.88 232.901 1115.08 233.279L1115.21 233.507C1116.6 235.955 1119.26 238.324 1122.72 239.858C1124.44 240.621 1125.03 242.75 1123.98 244.283L1123.74 244.624C1123.65 244.739 1123.55 244.893 1123.42 245.083C1123.05 245.658 1122.66 246.305 1122.31 247.003C1121.25 249.093 1120.67 251.143 1120.78 252.889C1120.83 253.615 1120.99 254.276 1121.29 254.883L1121.42 255.14C1122.23 256.587 1121.71 258.414 1120.26 259.221C1118.81 260.027 1116.99 259.508 1116.18 258.061C1115.35 256.578 1114.9 254.966 1114.8 253.272C1114.6 250.277 1115.46 247.248 1116.96 244.285L1117.24 243.74L1117.22 243.725C1114.19 241.847 1111.77 239.434 1110.2 236.825L1109.99 236.468C1107.81 232.618 1107.63 228.549 1110.66 226.646L1110.86 226.528Z" fill="#2E186A"/>
<path fill-rule="evenodd" clip-rule="evenodd" d="M1123.8 276.601C1119.9 270.701 1119.3 268.001 1119.3 268.001C1133.6 264.801 1140.7 243.701 1140.7 243.701C1140.7 243.701 1143.5 244.401 1149.8 248.001C1152.4 249.401 1154.7 248.301 1156.5 248.001C1159 267.801 1133.7 283.201 1124.9 287.501C1123.9 283.301 1126.8 281.001 1123.8 276.601Z" fill="#2E186A"/>
<path fill-rule="evenodd" clip-rule="evenodd" d="M1291.7 328.3C1291.7 328.3 1278.5 325.5 1264 325.3C1255.3 325.2 1240.6 325.1 1238.9 326.7C1234.8 330.7 1247.3 335.1 1254 332.3" fill="white"/>
<path fill-rule="evenodd" clip-rule="evenodd" d="M1236.84 324.516L1237 324.379C1239.47 322.3 1246.24 322.096 1264.04 322.301C1270.32 322.387 1276.79 322.946 1283.12 323.823C1285.01 324.084 1286.78 324.359 1288.41 324.638L1289.78 324.877C1290.34 324.978 1290.85 325.074 1291.31 325.163L1292.32 325.366C1293.94 325.709 1294.98 327.302 1294.64 328.923C1294.3 330.486 1292.81 331.504 1291.25 331.267L1290.48 331.114C1289.97 331.014 1289.38 330.903 1288.71 330.782C1286.79 330.436 1284.64 330.09 1282.3 329.766C1276.19 328.921 1269.96 328.383 1263.97 328.3L1259.58 328.26C1255.32 328.234 1252.02 328.26 1248.92 328.361L1247.91 328.398C1245.95 328.476 1244.3 328.587 1243 328.733L1242.4 328.805L1242.49 328.846C1242.7 328.944 1242.93 329.042 1243.17 329.136L1243.42 329.23C1246.43 330.318 1250.2 330.503 1252.58 329.637L1252.84 329.532C1254.37 328.893 1256.13 329.615 1256.77 331.144C1257.41 332.672 1256.69 334.429 1255.16 335.068C1251.27 336.693 1245.81 336.476 1241.38 334.871C1239.11 334.048 1237.28 332.915 1236.19 331.459C1234.54 329.269 1234.75 326.56 1236.84 324.516Z" fill="#2E186A"/>
<path fill-rule="evenodd" clip-rule="evenodd" d="M1310.6 328.7C1304.6 328.3 1296.3 327.8 1285.8 327.3C1284.6 327.2 1261.5 335 1261.5 335L1278.8 353.4C1278.8 353.4 1279.8 355.1 1307.1 360.2" fill="white"/>
<path fill-rule="evenodd" clip-rule="evenodd" d="M1285.94 324.305L1290.71 324.538C1298.1 324.912 1304.78 325.305 1310.8 325.707C1312.45 325.817 1313.7 327.247 1313.59 328.9C1313.48 330.553 1312.05 331.804 1310.4 331.694L1307.51 331.505C1302.62 331.192 1297.31 330.885 1291.56 330.589L1285.93 330.309L1285.75 330.353L1285.26 330.482L1284.6 330.665C1284.04 330.826 1283.36 331.03 1282.56 331.273L1281.42 331.625C1279.95 332.083 1278.22 332.637 1276.26 333.272L1274.02 334.001L1271.41 334.859C1270.53 335.15 1269.63 335.446 1268.73 335.744L1266.89 336.357L1280.71 351.053L1280.99 351.169C1281.49 351.366 1282.23 351.619 1283.26 351.922L1284.06 352.152C1288.6 353.432 1296.23 355.119 1307.65 357.251C1309.28 357.556 1310.35 359.123 1310.05 360.751C1309.75 362.38 1308.18 363.454 1306.55 363.149L1302.52 362.388C1285.46 359.121 1278.67 357.23 1276.69 355.477L1276.64 355.43L1276.61 355.455L1259.31 337.055C1257.86 335.509 1258.44 333.005 1260.37 332.222L1261.53 331.826L1264.14 330.952C1265.94 330.349 1267.76 329.746 1269.53 329.161L1274.03 327.686C1281.64 325.207 1284.61 324.31 1285.86 324.304L1285.94 324.305Z" fill="#2E186A"/>
<path fill-rule="evenodd" clip-rule="evenodd" d="M1258.4 338.7C1245.9 339.9 1239.6 339.4 1242.9 335.1C1244.8 332.7 1266.3 326.8 1270.3 326.4C1274.4 326 1295.9 328.1 1295.9 328.1" fill="white"/>
<path fill-rule="evenodd" clip-rule="evenodd" d="M1270.01 323.414L1270.31 323.39C1272.13 323.268 1275.81 323.433 1281.07 323.817L1283.83 324.026L1286.41 324.235C1287.79 324.351 1289.19 324.471 1290.56 324.593L1293.74 324.882L1296.19 325.114C1297.84 325.275 1299.05 326.743 1298.89 328.392C1298.73 329.982 1297.36 331.16 1295.78 331.098L1295.54 331.08L1292.73 330.814L1290.03 330.57C1288.67 330.448 1287.29 330.329 1285.91 330.215L1283.36 330.008L1280.41 329.785C1275.51 329.432 1272 329.277 1270.7 329.376L1270.6 329.385C1268.83 329.562 1262.54 331.123 1256.67 332.875L1255.49 333.231C1252.78 334.06 1250.37 334.869 1248.49 335.587L1247.78 335.867C1247.55 335.958 1247.33 336.047 1247.13 336.133L1246.95 336.207L1247.05 336.215C1249.29 336.349 1252.6 336.215 1257.05 335.814L1258.11 335.714C1259.76 335.556 1261.23 336.764 1261.39 338.414C1261.54 340.063 1260.34 341.528 1258.69 341.686L1257.55 341.793C1251.22 342.365 1246.95 342.434 1244.17 341.911C1239.32 340.999 1237.44 337.291 1240.55 333.238C1241.97 331.436 1246.66 329.62 1254.46 327.273L1255.79 326.879C1261.76 325.123 1267.83 323.632 1270.01 323.414Z" fill="#2E186A"/>
<path fill-rule="evenodd" clip-rule="evenodd" d="M1274.4 334C1274.4 334 1265.9 335.1 1259.2 336.9C1252.5 338.7 1248.2 341.2 1248.5 342.4C1248.8 343.6 1253 346.9 1257.3 346.1C1263.6 343.9 1277 342.7 1277 342.7C1275.7 342.2 1266.1 344.4 1260.9 345.2C1255.8 346 1251 350 1263.1 351.3L1281.2 353.7" fill="white"/>
<path fill-rule="evenodd" clip-rule="evenodd" d="M1277.38 333.615C1277.59 335.258 1276.43 336.763 1274.79 336.976L1273.83 337.107L1272.86 337.249C1272.35 337.325 1271.81 337.407 1271.26 337.497C1268.6 337.921 1265.94 338.41 1263.47 338.953C1262.22 339.227 1261.05 339.509 1259.98 339.798C1257.35 340.503 1255.03 341.347 1253.3 342.187L1252.89 342.391L1253.09 342.496C1254.25 343.066 1255.45 343.322 1256.51 343.189L1256.57 343.178L1256.68 343.142C1258.7 342.472 1261.33 341.873 1264.46 341.327L1265.05 341.225C1266.51 340.977 1268.03 340.748 1269.58 340.538L1270.07 340.471L1272.09 340.107C1275.62 339.493 1276.75 339.455 1277.82 339.808L1278.08 339.9C1281.04 341.041 1280.43 345.405 1277.27 345.688L1276.32 345.78L1274.84 345.936C1274.5 345.974 1274.14 346.015 1273.77 346.058C1273.02 346.145 1272.26 346.237 1271.51 346.334L1271.07 346.392L1269.36 346.711L1264.58 347.612C1263.49 347.812 1262.72 347.947 1261.99 348.066L1261.76 348.102L1261.77 348.105C1262.19 348.169 1262.64 348.229 1263.12 348.285L1263.49 348.326L1281.59 350.726C1283.24 350.944 1284.39 352.452 1284.17 354.095C1283.96 355.678 1282.55 356.809 1280.98 356.692L1280.81 356.674L1262.78 354.283C1259.59 353.941 1257.24 353.396 1255.62 352.609C1253.88 351.762 1252.69 350.443 1252.52 348.815L1252.51 348.665L1252.35 348.617C1249.11 347.616 1246.3 345.483 1245.64 343.309L1245.59 343.128C1244.6 339.173 1250.1 336.238 1258.42 334.003C1259.59 333.69 1260.85 333.386 1262.18 333.093C1264.4 332.603 1266.76 332.16 1269.12 331.765L1270.31 331.572C1270.89 331.479 1271.45 331.393 1271.97 331.315L1274.02 331.025C1275.66 330.812 1277.16 331.972 1277.38 333.615Z" fill="#2E186A"/>
<path fill-rule="evenodd" clip-rule="evenodd" d="M1308.8 364.2C1302.9 362 1301 360.2 1301 360.2C1308.7 348.2 1301 328.3 1301 328.3C1301 328.3 1303 327.8 1309.2 326.5C1311.7 326 1312.9 324.7 1313.9 323.2C1326.7 337.7 1319 363.1 1315.6 372.3C1312.6 369.7 1313.3 365.9 1308.8 364.2Z" fill="#2E186A"/>
<path fill-rule="evenodd" clip-rule="evenodd" d="M1391.52 303.813C1393.17 303.657 1394.63 304.868 1394.79 306.518C1394.94 308.108 1393.82 309.526 1392.26 309.765L1391.92 309.808C1391.57 309.861 1390.96 310 1390.17 310.269C1388.55 310.82 1386.93 311.693 1385.41 312.96C1382.25 315.587 1379.94 319.559 1378.85 325.265C1378.54 326.892 1376.96 327.958 1375.34 327.646C1373.71 327.335 1372.64 325.763 1372.95 324.135C1374.31 317.077 1377.34 311.873 1381.57 308.351C1383.68 306.588 1385.95 305.366 1388.24 304.589C1389.64 304.111 1390.78 303.883 1391.52 303.813Z" fill="#2E186A"/>
<path fill-rule="evenodd" clip-rule="evenodd" d="M1339.3 256.295C1340.74 256.985 1341.37 258.672 1340.78 260.13L1340.69 260.337L1340.21 261.35L1339.7 262.472C1339.3 263.347 1338.87 264.306 1338.42 265.342C1336.69 269.289 1334.97 273.516 1333.36 277.847C1331.7 282.308 1330.26 286.628 1329.11 290.708C1327.64 295.883 1326.68 300.528 1326.29 304.494C1326.12 306.143 1324.66 307.348 1323.01 307.186C1321.36 307.024 1320.15 305.555 1320.31 303.907C1320.74 299.543 1321.78 294.565 1323.33 289.074C1324.54 284.828 1326.02 280.359 1327.73 275.757C1329.39 271.312 1331.15 266.983 1332.92 262.938L1333.6 261.403C1333.82 260.911 1334.03 260.439 1334.24 259.988L1335.3 257.703C1336.01 256.209 1337.8 255.579 1339.3 256.295Z" fill="#2E186A"/>
<path fill-rule="evenodd" clip-rule="evenodd" d="M1277.32 257.178C1278.93 256.803 1280.55 257.807 1280.92 259.421L1281.12 260.307L1281.36 261.443C1281.45 261.847 1281.54 262.277 1281.63 262.732L1281.98 264.497C1282.38 266.6 1282.79 268.854 1283.17 271.219C1284.25 277.981 1285.01 284.666 1285.29 290.941C1285.51 295.913 1285.43 300.469 1284.98 304.526C1284.8 306.173 1283.32 307.363 1281.67 307.183C1280.03 307.003 1278.84 305.521 1279.02 303.874C1279.42 300.152 1279.51 295.895 1279.3 291.208C1279.03 285.188 1278.3 278.723 1277.24 272.171C1276.82 269.542 1276.37 267.056 1275.92 264.77L1275.58 263.077L1275.19 261.277C1275.14 261.043 1275.1 260.877 1275.08 260.78C1274.7 259.166 1275.71 257.554 1277.32 257.178Z" fill="#2E186A"/>
<path fill-rule="evenodd" clip-rule="evenodd" d="M1321.53 317.112L1321.77 317.094C1325.38 316.859 1337.08 317.782 1355.12 319.575L1359.03 319.967C1360.87 320.153 1362.75 320.345 1364.66 320.543C1370.79 321.177 1377.08 321.848 1383.29 322.526L1392.64 323.558L1396.74 324.019C1398.39 324.207 1399.57 325.693 1399.38 327.339C1399.19 328.985 1397.71 330.168 1396.06 329.981L1386.34 328.897C1380.19 328.219 1373.9 327.541 1367.73 326.895L1359.81 326.077L1351.78 325.275C1335.53 323.687 1324.66 322.856 1322.07 323.088C1319.7 323.301 1318.85 323.838 1317.57 325.606L1317.17 326.173C1315.25 328.896 1313.73 330.202 1310.72 330.836L1308.19 331.376L1306.35 331.779L1306.51 332.348C1306.62 332.739 1306.73 333.141 1306.83 333.552L1306.99 334.175C1308.22 339.156 1308.86 344.198 1308.6 348.976C1308.42 352.329 1307.79 355.414 1306.65 358.169L1306.41 358.724L1306.7 358.88C1307.69 359.408 1308.89 359.962 1310.34 360.533L1310.79 360.704C1313.57 361.787 1314.84 363.256 1316.22 366.111L1316.6 366.919L1316.81 367.327C1317.64 368.944 1318.39 369.595 1320.38 370.126L1320.63 370.19C1322.91 370.759 1332.12 371.725 1346.13 372.907L1350.11 373.24C1352.43 373.43 1354.84 373.624 1357.34 373.821L1363.16 374.275C1367.75 374.629 1372.47 374.982 1377.24 375.33L1386.99 376.033L1395.2 376.607C1396.86 376.72 1398.11 378.151 1397.99 379.804C1397.88 381.457 1396.45 382.706 1394.8 382.593L1384.78 381.891L1376.8 381.314C1369.98 380.816 1363.25 380.307 1356.87 379.803L1351.97 379.411C1350.78 379.315 1349.61 379.219 1348.47 379.124L1342.51 378.62C1329.76 377.518 1321.73 376.649 1319.17 376.011C1315.03 374.975 1312.98 373.106 1311.34 369.817L1310.94 368.981C1310.13 367.264 1309.76 366.772 1308.77 366.361L1308.63 366.303C1306.05 365.319 1304.02 364.326 1302.46 363.365C1301.43 362.729 1300.76 362.202 1300.38 361.821C1299.39 360.832 1299.22 359.289 1299.96 358.104C1301.54 355.587 1302.4 352.392 1302.61 348.65C1302.83 344.543 1302.26 340.061 1301.17 335.61C1300.84 334.278 1300.49 333.051 1300.14 331.961L1299.96 331.43L1299.81 330.97C1299.75 330.808 1299.71 330.704 1299.69 330.66C1299.07 328.995 1300.02 327.152 1301.74 326.699L1302.52 326.505L1303.49 326.277C1304.99 325.929 1306.97 325.493 1309.48 324.964C1310.56 324.738 1311.04 324.389 1311.96 323.14L1312.53 322.337C1314.83 319.095 1317.1 317.51 1321.53 317.112Z" fill="#2E186A"/>
<path fill-rule="evenodd" clip-rule="evenodd" d="M1206.52 279.352C1207.26 277.872 1209.07 277.276 1210.55 278.02L1211.17 278.347C1211.44 278.488 1211.75 278.661 1212.12 278.867C1213.32 279.541 1214.66 280.337 1216.09 281.252C1220.19 283.861 1224.28 286.909 1228.11 290.378C1232.14 294.028 1235.65 297.941 1238.48 302.117C1239.41 303.488 1239.06 305.353 1237.68 306.283C1236.31 307.213 1234.45 306.855 1233.52 305.484C1230.97 301.733 1227.78 298.171 1224.09 294.826C1220.52 291.6 1216.7 288.75 1212.87 286.312C1211.7 285.566 1210.6 284.908 1209.61 284.339L1208.96 283.976L1208 283.458C1207.93 283.421 1207.88 283.395 1207.85 283.38C1206.37 282.636 1205.78 280.833 1206.52 279.352Z" fill="#2E186A"/>
<path fill-rule="evenodd" clip-rule="evenodd" d="M1385.7 223.5C1374.2 242.7 1348.5 261.7 1342.4 264.5V264.6C1359.6 265.4 1399.8 243.2 1406.6 239.3C1398.3 233 1391.4 227.2 1385.7 223.5Z" fill="#2E186A"/>
<path fill-rule="evenodd" clip-rule="evenodd" d="M1258.4 225.8C1258.3 223 1258 219.7 1258 216.3H1257.9C1253 220.2 1248.4 224.1 1244 228.1C1249.2 238.2 1259.7 253.5 1271.2 260.6C1267.9 253.3 1259.1 243.8 1258.4 225.8Z" fill="#2E186A"/>
<path fill-rule="evenodd" clip-rule="evenodd" d="M1351.6 149.9C1351.6 149.9 1366.6 150.2 1363.9 163.6C1361.2 177 1344.6 169.3 1344.6 169.3L1346.8 150.2L1351.6 149.9Z" fill="white"/>
<path fill-rule="evenodd" clip-rule="evenodd" d="M1351.66 146.901C1351.58 146.899 1351.5 146.901 1351.41 146.906L1346.61 147.206C1345.16 147.297 1343.99 148.414 1343.82 149.857L1341.62 168.957C1341.47 170.242 1342.16 171.478 1343.34 172.022L1343.7 172.182C1344.41 172.492 1345.44 172.882 1346.7 173.269C1349.31 174.072 1351.94 174.542 1354.48 174.499C1360.79 174.395 1365.45 171.09 1366.84 164.193C1368.4 156.436 1365.15 151.181 1359.1 148.571C1357.47 147.866 1355.75 147.408 1354.04 147.139C1353.01 146.976 1352.18 146.911 1351.66 146.901ZM1349.49 153.037L1351.64 152.903L1351.91 152.922C1352.26 152.95 1352.67 152.997 1353.11 153.066C1354.35 153.262 1355.6 153.593 1356.72 154.08C1360.32 155.631 1361.92 158.222 1360.96 163.008C1360.17 166.933 1358.04 168.44 1354.39 168.5C1352.56 168.531 1350.52 168.166 1348.46 167.534L1348.04 167.402L1347.85 167.336L1349.49 153.037Z" fill="#2E186A"/>
<path fill-rule="evenodd" clip-rule="evenodd" d="M1308.9 107.6C1304.9 107.3 1277.9 105.6 1274.9 128.2C1271.9 150.8 1275.1 175.7 1277.6 187.1C1280.1 198.5 1332 193.2 1334.9 192.2C1337.8 191.2 1341.3 187.7 1341.3 187.7L1348.4 153C1348.4 153 1351.3 111.1 1308.9 107.6Z" fill="white"/>
<path fill-rule="evenodd" clip-rule="evenodd" d="M1302.18 104.518C1298.2 104.71 1294.3 105.313 1290.64 106.447C1280.33 109.642 1273.42 116.545 1271.93 127.806C1269.35 147.223 1271.03 171.166 1274.67 187.743C1276.23 194.846 1287.1 197.237 1304.98 197.3L1306.98 197.296C1318.53 197.213 1333.32 195.918 1335.88 195.037C1336.45 194.84 1337.03 194.579 1337.62 194.263C1338.51 193.782 1339.43 193.176 1340.36 192.471C1341.66 191.483 1342.74 190.505 1343.42 189.822C1343.84 189.406 1344.12 188.878 1344.24 188.302L1351.34 153.602C1351.37 153.472 1351.38 153.34 1351.39 153.208L1351.41 152.813L1351.42 152.673C1351.5 150.362 1351.39 147.368 1350.92 143.931C1350.22 138.79 1348.85 133.707 1346.64 128.927C1340.27 115.118 1328.1 106.176 1309.15 104.611C1307.01 104.45 1304.83 104.39 1302.18 104.518ZM1308.68 110.592C1325.4 111.973 1335.71 119.549 1341.2 131.442C1343.14 135.639 1344.35 140.154 1344.98 144.74C1345.37 147.631 1345.48 150.153 1345.43 152.095L1345.42 152.612L1338.55 186.169L1338.5 186.22C1337.94 186.724 1337.34 187.229 1336.73 187.693C1336.03 188.221 1335.37 188.659 1334.78 188.976C1334.52 189.114 1334.29 189.226 1334.08 189.308L1333.92 189.364C1333.46 189.523 1329.42 190.042 1324.82 190.44C1318.74 190.966 1312.16 191.289 1306.09 191.3L1304.57 191.296C1290.48 191.184 1281.12 189.156 1280.53 186.458C1277.03 170.517 1275.4 147.256 1277.87 128.595C1279.03 119.875 1284.18 114.73 1292.41 112.179C1295.55 111.208 1298.96 110.68 1302.47 110.511C1304.84 110.397 1306.78 110.45 1308.68 110.592Z" fill="#2E186A"/>
<path fill-rule="evenodd" clip-rule="evenodd" d="M1346 168.2L1346.9 196.3L1354.9 205.4C1354.9 205.4 1331.4 219.9 1308.8 245.6C1308.8 245.6 1290.4 226.2 1287.2 195.7L1330.4 201L1333.8 184.1L1346 168.2Z" fill="white"/>
<path fill-rule="evenodd" clip-rule="evenodd" d="M1331.42 182.274L1331.29 182.461C1331.08 182.779 1330.93 183.135 1330.86 183.509L1328.01 197.684L1287.57 192.723C1285.65 192.488 1284.02 194.095 1284.22 196.013C1285.54 208.664 1289.45 220.366 1295.12 230.93C1297.61 235.566 1300.28 239.674 1302.96 243.216L1303.46 243.872C1304.84 245.67 1305.94 246.944 1306.62 247.665C1307.84 248.945 1309.89 248.906 1311.05 247.581C1311.87 246.655 1312.69 245.735 1313.52 244.822C1322.94 234.478 1333.03 225.334 1343.12 217.488C1346.65 214.744 1349.92 212.361 1352.85 210.35L1353.95 209.603C1354.3 209.368 1354.63 209.146 1354.95 208.938L1356.01 208.249C1356.22 208.11 1356.38 208.012 1356.48 207.954L1356.63 207.848C1358.08 206.83 1358.34 204.767 1357.15 203.42L1349.86 195.127L1349 168.104C1348.91 165.288 1345.34 164.138 1343.62 166.374L1331.42 182.274ZM1343.27 176.686L1343.9 196.396L1343.92 196.627C1343.99 197.238 1344.24 197.816 1344.65 198.281L1350.36 204.783L1349.46 205.402L1348.23 206.253C1345.53 208.14 1342.58 210.308 1339.43 212.751L1338.33 213.618C1328.35 221.468 1318.4 230.548 1309.08 240.783L1308.86 241.033L1308.69 240.827C1308.39 240.439 1308.07 240.03 1307.75 239.599C1305.25 236.294 1302.75 232.443 1300.41 228.09L1299.99 227.306C1295.58 218.911 1292.37 209.773 1290.8 200.01L1290.66 199.147L1330.04 203.978L1330.21 203.995C1331.7 204.088 1333.04 203.07 1333.34 201.592L1336.6 185.374L1343.27 176.686Z" fill="#2E186A"/>
<path fill-rule="evenodd" clip-rule="evenodd" d="M1343.3 152.7C1340.7 155.2 1333.8 169.5 1332.2 176.2C1332.2 176.2 1315.2 170.6 1290.7 170.2C1290.7 170.2 1277.4 170.5 1272.1 172C1272.1 172 1273.3 195.7 1284 208C1294.7 220.3 1317.6 216.8 1328.3 209.5C1339 202.1 1340.8 198.6 1343.3 190.7C1345.8 182.8 1352.3 153.4 1352.3 153.4L1343.3 152.7Z" fill="#968BB4"/>
<path fill-rule="evenodd" clip-rule="evenodd" d="M1350.3 157.8C1350.3 157.8 1357.3 146.9 1360.1 135.6C1362.7 124.9 1357.7 113.8 1347.8 109C1339.5 105 1333.4 108.1 1333.4 108.1C1333.4 108.1 1342.2 93.2002 1329 80.0002C1324.4 75.4002 1318 72.8002 1311.4 73.0002C1295.3 73.5002 1290.4 87.0002 1290.4 87.0002C1290.4 87.0002 1273.2 55.4002 1238 74.1002C1234.4 76.0002 1230.4 81.2002 1228.5 84.8002C1216.9 106.2 1255.2 131.6 1275.2 133.7C1297.1 135.9 1310 132.3 1317 126.9C1311.8 130 1317.7 162.8 1350.3 157.8Z" fill="#2E186A"/>
<path fill-rule="evenodd" clip-rule="evenodd" d="M1288.52 160.868C1288.7 159.221 1290.19 158.035 1291.83 158.219C1293.42 158.396 1294.58 159.782 1294.5 161.358L1294.48 161.533L1292.67 177.782L1295.63 177C1297.18 176.592 1298.76 177.466 1299.25 178.966L1299.3 179.135C1299.71 180.68 1298.83 182.261 1297.33 182.751L1297.17 182.801L1289.97 184.701C1287.98 185.224 1286.09 183.654 1286.2 181.641L1286.22 181.468L1288.52 160.868Z" fill="#2E186A"/>
<path fill-rule="evenodd" clip-rule="evenodd" d="M1282.9 163C1284.06 163 1285 161.523 1285 159.7C1285 157.878 1284.06 156.4 1282.9 156.4C1281.74 156.4 1280.8 157.878 1280.8 159.7C1280.8 161.523 1281.74 163 1282.9 163Z" fill="#2E186A"/>
<path fill-rule="evenodd" clip-rule="evenodd" d="M1302.4 162.5C1303.56 162.5 1304.5 161.023 1304.5 159.2C1304.5 157.378 1303.56 155.9 1302.4 155.9C1301.24 155.9 1300.3 157.378 1300.3 159.2C1300.3 161.023 1301.24 162.5 1302.4 162.5Z" fill="#2E186A"/>
<path fill-rule="evenodd" clip-rule="evenodd" d="M1303.86 139.432C1307.57 138.886 1310.77 139.828 1313.36 141.719C1314.08 142.249 1314.71 142.817 1315.23 143.394C1315.57 143.762 1315.82 144.073 1315.97 144.298C1316.91 145.663 1316.57 147.531 1315.2 148.471C1313.89 149.376 1312.11 149.09 1311.14 147.849L1311.03 147.702C1310.89 147.495 1310.47 147.04 1309.82 146.562C1308.51 145.606 1306.96 145.119 1305.06 145.327L1304.74 145.368C1303.1 145.61 1301.57 144.477 1301.33 142.838C1301.09 141.199 1302.22 139.674 1303.86 139.432Z" fill="#2E186A"/>
<path fill-rule="evenodd" clip-rule="evenodd" d="M1280.4 139.16C1281.88 138.802 1283.37 138.809 1284.77 139.024L1285.12 139.082C1285.33 139.12 1285.51 139.159 1285.64 139.193C1287.25 139.601 1288.22 141.233 1287.81 142.839C1287.41 144.388 1285.88 145.346 1284.33 145.046L1284.1 144.994C1284.05 144.984 1283.97 144.97 1283.87 144.955C1283.17 144.848 1282.42 144.844 1281.81 144.992C1281.12 145.157 1280.76 145.442 1280.53 146.085L1280.48 146.24C1280.02 147.831 1278.35 148.744 1276.76 148.28C1275.17 147.816 1274.26 146.151 1274.72 144.56C1275.58 141.609 1277.68 139.815 1280.4 139.16Z" fill="#2E186A"/>
<path fill-rule="evenodd" clip-rule="evenodd" d="M1304.74 186.23C1305 184.593 1306.53 183.477 1308.17 183.737C1309.81 183.997 1310.92 185.534 1310.66 187.17C1310.62 187.466 1310.52 187.89 1310.37 188.406C1310.11 189.247 1309.76 190.09 1309.27 190.898C1307.47 193.938 1304.39 195.615 1300.34 194.848C1298.71 194.539 1297.64 192.969 1297.95 191.341C1298.25 189.771 1299.72 188.721 1301.29 188.925L1301.46 188.953C1302.83 189.213 1303.52 188.84 1304.12 187.831C1304.33 187.473 1304.5 187.068 1304.63 186.66L1304.68 186.453C1304.7 186.394 1304.71 186.344 1304.72 186.306L1304.74 186.23Z" fill="#2E186A"/>
<path fill-rule="evenodd" clip-rule="evenodd" d="M1472.7 378.3H124.5C122.843 378.3 121.5 379.643 121.5 381.3V755C121.5 756.657 122.843 758 124.5 758H1472.7C1474.36 758 1475.7 756.657 1475.7 755V381.3C1475.7 379.643 1474.36 378.3 1472.7 378.3ZM1469.7 384.299V751.999H127.5V384.299H1469.7Z" fill="#2E186A"/>
<rect x="121.9" y="380.5" width="1352.4" height="48.1" fill="#2E186A"/>
<path fill-rule="evenodd" clip-rule="evenodd" d="M1595.7 752.6C1597.36 752.6 1598.7 753.943 1598.7 755.6C1598.7 757.198 1597.45 758.504 1595.88 758.595L1595.7 758.6H3.6001C1.94324 758.6 0.600098 757.257 0.600098 755.6C0.600098 754.002 1.84902 752.696 3.42382 752.605L3.6001 752.6H1595.7Z" fill="#2E186A"/>
</svg>
