<svg width="1672" height="749" viewBox="0 0 1672 749" fill="none" xmlns="http://www.w3.org/2000/svg">
<path fill-rule="evenodd" clip-rule="evenodd" d="M238.3 745.2H202.3V241.2C202.3 234.9 207.4 229.7 213.8 229.7H226.9C233.2 229.7 238.4 234.8 238.4 241.2V745.2H238.3Z" fill="#2E186A"/>
<path fill-rule="evenodd" clip-rule="evenodd" d="M893 745.2H857V241.2C857 234.9 862.1 229.7 868.5 229.7H881.6C887.9 229.7 893.1 234.8 893.1 241.2V745.2H893Z" fill="#2E186A"/>
<rect x="139.2" y="284.4" width="776.4" height="87.8" fill="#FE7624"/>
<path fill-rule="evenodd" clip-rule="evenodd" d="M261.2 284.4H197.1L139.2 369.6V372.3H201.4L261.2 284.4Z" fill="white"/>
<path fill-rule="evenodd" clip-rule="evenodd" d="M333.6 372.3L393.3 284.4H329.3L269.6 372.3H333.6Z" fill="white"/>
<path fill-rule="evenodd" clip-rule="evenodd" d="M465.7 372.3L525.5 284.4H461.4L401.7 372.3H465.7Z" fill="white"/>
<path fill-rule="evenodd" clip-rule="evenodd" d="M597.9 372.3L657.6 284.4H593.6L533.9 372.3H597.9Z" fill="white"/>
<path fill-rule="evenodd" clip-rule="evenodd" d="M730 372.3L789.8 284.4H725.7L666 372.3H730Z" fill="white"/>
<path fill-rule="evenodd" clip-rule="evenodd" d="M862.2 372.3L915.6 293.7V284.4H857.9L798.2 372.3H862.2Z" fill="white"/>
<rect x="139.2" y="440.1" width="776.4" height="87.8" fill="#FE7624"/>
<path fill-rule="evenodd" clip-rule="evenodd" d="M261.2 440.1H197.1L139.2 525.3V527.9H201.4L261.2 440.1Z" fill="white"/>
<path fill-rule="evenodd" clip-rule="evenodd" d="M333.6 527.9L393.3 440.1H329.3L269.6 527.9H333.6Z" fill="white"/>
<path fill-rule="evenodd" clip-rule="evenodd" d="M465.7 527.9L525.5 440.1H461.4L401.7 527.9H465.7Z" fill="white"/>
<path fill-rule="evenodd" clip-rule="evenodd" d="M597.9 527.9L657.6 440.1H593.6L533.9 527.9H597.9Z" fill="white"/>
<path fill-rule="evenodd" clip-rule="evenodd" d="M730 527.9L789.8 440.1H725.7L666 527.9H730Z" fill="white"/>
<path fill-rule="evenodd" clip-rule="evenodd" d="M862.2 527.9L915.6 449.3V440.1H857.9L798.2 527.9H862.2Z" fill="white"/>
<path fill-rule="evenodd" clip-rule="evenodd" d="M1455.5 6.7002H1379.9H425C396.9 6.7002 374.2 29.5002 374.2 57.5002V606.6C374.2 634.7 397 657.4 425 657.4H1380H1406.8H1455.5C1481.6 657.4 1502.7 636.3 1502.7 610.2V53.9002C1502.7 27.8002 1481.6 6.7002 1455.5 6.7002Z" fill="#5D21D1"/>
<path fill-rule="evenodd" clip-rule="evenodd" d="M436.8 54C444.808 54 451.3 47.5081 451.3 39.5C451.3 31.4919 444.808 25 436.8 25C428.792 25 422.3 31.4919 422.3 39.5C422.3 47.5081 428.792 54 436.8 54Z" fill="#FE7624"/>
<path fill-rule="evenodd" clip-rule="evenodd" d="M493.4 54C501.408 54 507.9 47.5081 507.9 39.5C507.9 31.4919 501.408 25 493.4 25C485.392 25 478.9 31.4919 478.9 39.5C478.9 47.5081 485.392 54 493.4 54Z" fill="#FEBA91"/>
<path fill-rule="evenodd" clip-rule="evenodd" d="M549.9 54C557.908 54 564.4 47.5081 564.4 39.5C564.4 31.4919 557.908 25 549.9 25C541.892 25 535.4 31.4919 535.4 39.5C535.4 47.5081 541.892 54 549.9 54Z" fill="white"/>
<path fill-rule="evenodd" clip-rule="evenodd" d="M1112.2 72.5981L1118.2 72.6022L1117.8 658.702L1111.8 658.698L1112.2 72.5981Z" fill="white"/>
<path fill-rule="evenodd" clip-rule="evenodd" d="M1457.6 70C1459.26 70 1460.6 71.3431 1460.6 73C1460.6 74.5977 1459.35 75.9037 1457.78 75.9949L1457.6 76H374.3C372.643 76 371.3 74.6569 371.3 73C371.3 71.4023 372.549 70.0963 374.124 70.0051L374.3 70H1457.6Z" fill="white"/>
<path fill-rule="evenodd" clip-rule="evenodd" d="M1238.5 226.8H1236.2C1233.7 226.8 1231.8 224.8 1231.8 222.4V215.9C1231.8 213.4 1233.8 211.5 1236.2 211.5H1238.5C1241 211.5 1242.9 213.5 1242.9 215.9V222.4C1243 224.8 1241 226.8 1238.5 226.8Z" fill="#FE7624"/>
<path fill-rule="evenodd" clip-rule="evenodd" d="M1222.5 226.8H1155.4C1152.6 226.8 1150.4 224.6 1150.4 221.8V216.4C1150.4 213.6 1152.6 211.4 1155.4 211.4H1222.5C1225.3 211.4 1227.5 213.6 1227.5 216.4V221.8C1227.5 224.5 1225.2 226.8 1222.5 226.8Z" fill="#2E186A"/>
<path fill-rule="evenodd" clip-rule="evenodd" d="M1229.4 298.1H1155.3C1152.5 298.1 1150.3 295.9 1150.3 293.1V287.7C1150.3 284.9 1152.5 282.7 1155.3 282.7H1229.4C1232.2 282.7 1234.4 284.9 1234.4 287.7V293.1C1234.4 295.9 1232.2 298.1 1229.4 298.1Z" fill="#2E186A"/>
<path fill-rule="evenodd" clip-rule="evenodd" d="M1297.1 274.4H1176.6C1173.8 274.4 1171.6 272.2 1171.6 269.4V264C1171.6 261.2 1173.8 259 1176.6 259H1297.1C1299.9 259 1302.1 261.2 1302.1 264V269.4C1302.1 272.1 1299.8 274.4 1297.1 274.4Z" fill="#FE7624"/>
<path fill-rule="evenodd" clip-rule="evenodd" d="M1276 191.2H1155.5C1152.7 191.2 1150.5 189 1150.5 186.2V180.8C1150.5 178 1152.7 175.8 1155.5 175.8H1276C1278.8 175.8 1281 178 1281 180.8V186.2C1281 188.9 1278.8 191.2 1276 191.2Z" fill="#FEBA91"/>
<path fill-rule="evenodd" clip-rule="evenodd" d="M1276 374.2H1155.5C1152.7 374.2 1150.5 372 1150.5 369.2V363.8C1150.5 361 1152.7 358.8 1155.5 358.8H1276C1278.8 358.8 1281 361 1281 363.8V369.2C1281 372 1278.8 374.2 1276 374.2Z" fill="#FEBA91"/>
<path fill-rule="evenodd" clip-rule="evenodd" d="M1374.8 274.4H1314.3C1311.5 274.4 1309.3 272.2 1309.3 269.4V264C1309.3 261.2 1311.5 259 1314.3 259H1374.8C1377.6 259 1379.8 261.2 1379.8 264V269.4C1379.8 272.1 1377.6 274.4 1374.8 274.4Z" fill="#FEBA91"/>
<path fill-rule="evenodd" clip-rule="evenodd" d="M1399.2 250.6H1396.9C1394.4 250.6 1392.5 248.6 1392.5 246.2V239.7C1392.5 237.2 1394.5 235.3 1396.9 235.3H1399.2C1401.7 235.3 1403.6 237.3 1403.6 239.7V246.2C1403.7 248.6 1401.7 250.6 1399.2 250.6Z" fill="#2E186A"/>
<path fill-rule="evenodd" clip-rule="evenodd" d="M1280.2 250.6H1155.3C1152.5 250.6 1150.3 248.4 1150.3 245.6V240.2C1150.3 237.4 1152.5 235.2 1155.3 235.2H1280.2C1283 235.2 1285.2 237.4 1285.2 240.2V245.6C1285.2 248.3 1283 250.6 1280.2 250.6Z" fill="#2E186A"/>
<path fill-rule="evenodd" clip-rule="evenodd" d="M1320.1 226.8H1253C1250.2 226.8 1248 224.6 1248 221.8V216.4C1248 213.6 1250.2 211.4 1253 211.4H1320.1C1322.9 211.4 1325.1 213.6 1325.1 216.4V221.8C1325.1 224.5 1322.8 226.8 1320.1 226.8Z" fill="#2E186A"/>
<path fill-rule="evenodd" clip-rule="evenodd" d="M1381.4 250.6H1296.2C1293.4 250.6 1291.2 248.4 1291.2 245.6V240.1C1291.2 237.3 1293.4 235.1 1296.2 235.1H1381.4C1384.2 235.1 1386.4 237.3 1386.4 240.1V245.6C1386.4 248.4 1384.2 250.6 1381.4 250.6Z" fill="#FE7624"/>
<path fill-rule="evenodd" clip-rule="evenodd" d="M1222.5 434.6H1155.4C1152.6 434.6 1150.4 432.4 1150.4 429.6V424.2C1150.4 421.4 1152.6 419.2 1155.4 419.2H1222.5C1225.3 419.2 1227.5 421.4 1227.5 424.2V429.6C1227.5 432.4 1225.2 434.6 1222.5 434.6Z" fill="#2E186A"/>
<path fill-rule="evenodd" clip-rule="evenodd" d="M1229.4 506H1155.3C1152.5 506 1150.3 503.8 1150.3 501V495.6C1150.3 492.8 1152.5 490.6 1155.3 490.6H1229.4C1232.2 490.6 1234.4 492.8 1234.4 495.6V501C1234.4 503.7 1232.2 506 1229.4 506Z" fill="#2E186A"/>
<path fill-rule="evenodd" clip-rule="evenodd" d="M1297.1 482.2H1176.6C1173.8 482.2 1171.6 480 1171.6 477.2V471.8C1171.6 469 1173.8 466.8 1176.6 466.8H1297.1C1299.9 466.8 1302.1 469 1302.1 471.8V477.2C1302.1 480 1299.8 482.2 1297.1 482.2Z" fill="#FE7624"/>
<path fill-rule="evenodd" clip-rule="evenodd" d="M1374.8 482.2H1314.3C1311.5 482.2 1309.3 480 1309.3 477.2V471.8C1309.3 469 1311.5 466.8 1314.3 466.8H1374.8C1377.6 466.8 1379.8 469 1379.8 471.8V477.2C1379.8 480 1377.6 482.2 1374.8 482.2Z" fill="#FEBA91"/>
<path fill-rule="evenodd" clip-rule="evenodd" d="M1399.2 458.5H1396.9C1394.4 458.5 1392.5 456.5 1392.5 454.1V447.6C1392.5 445.1 1394.5 443.2 1396.9 443.2H1399.2C1401.7 443.2 1403.6 445.2 1403.6 447.6V454.1C1403.7 456.5 1401.7 458.5 1399.2 458.5Z" fill="#2E186A"/>
<path fill-rule="evenodd" clip-rule="evenodd" d="M1418.8 434.6H1416.5C1414 434.6 1412.1 432.6 1412.1 430.2V423.7C1412.1 421.2 1414.1 419.3 1416.5 419.3H1418.8C1421.3 419.3 1423.2 421.3 1423.2 423.7V430.2C1423.3 432.6 1421.3 434.6 1418.8 434.6Z" fill="#2E186A"/>
<path fill-rule="evenodd" clip-rule="evenodd" d="M1280.2 458.4H1155.3C1152.5 458.4 1150.3 456.2 1150.3 453.4V448C1150.3 445.2 1152.5 443 1155.3 443H1280.2C1283 443 1285.2 445.2 1285.2 448V453.4C1285.2 456.2 1283 458.4 1280.2 458.4Z" fill="#2E186A"/>
<path fill-rule="evenodd" clip-rule="evenodd" d="M1320.1 434.6H1236.8C1234 434.6 1231.8 432.4 1231.8 429.6V424.2C1231.8 421.4 1234 419.2 1236.8 419.2H1320.1C1322.9 419.2 1325.1 421.4 1325.1 424.2V429.6C1325.1 432.4 1322.8 434.6 1320.1 434.6Z" fill="#FE7624"/>
<path fill-rule="evenodd" clip-rule="evenodd" d="M1403.1 434.6H1336C1333.2 434.6 1331 432.4 1331 429.6V424.2C1331 421.4 1333.2 419.2 1336 419.2H1403.1C1405.9 419.2 1408.1 421.4 1408.1 424.2V429.6C1408.1 432.4 1405.9 434.6 1403.1 434.6Z" fill="#FE7624"/>
<path fill-rule="evenodd" clip-rule="evenodd" d="M1238.5 411.6H1236.2C1233.7 411.6 1231.8 409.6 1231.8 407.2V400.7C1231.8 398.2 1233.8 396.3 1236.2 396.3H1238.5C1241 396.3 1242.9 398.3 1242.9 400.7V407.2C1243 409.6 1241 411.6 1238.5 411.6Z" fill="#FE7624"/>
<path fill-rule="evenodd" clip-rule="evenodd" d="M1222.5 411.6H1155.4C1152.6 411.6 1150.4 409.4 1150.4 406.6V401.2C1150.4 398.4 1152.6 396.2 1155.4 396.2H1222.5C1225.3 396.2 1227.5 398.4 1227.5 401.2V406.6C1227.5 409.3 1225.2 411.6 1222.5 411.6Z" fill="#2E186A"/>
<path fill-rule="evenodd" clip-rule="evenodd" d="M1320.1 411.6H1253C1250.2 411.6 1248 409.4 1248 406.6V401.2C1248 398.4 1250.2 396.2 1253 396.2H1320.1C1322.9 396.2 1325.1 398.4 1325.1 401.2V406.6C1325.1 409.3 1322.8 411.6 1320.1 411.6Z" fill="#2E186A"/>
<path fill-rule="evenodd" clip-rule="evenodd" d="M1381.4 458.5H1296.2C1293.4 458.5 1291.2 456.3 1291.2 453.5V448C1291.2 445.2 1293.4 443 1296.2 443H1381.4C1384.2 443 1386.4 445.2 1386.4 448V453.5C1386.4 456.2 1384.2 458.5 1381.4 458.5Z" fill="#FE7624"/>
<path fill-rule="evenodd" clip-rule="evenodd" d="M963.3 460.9H846.3C837.774 460.9 830.9 467.812 830.9 476.3V596.2C830.9 604.657 837.843 611.6 846.3 611.6H963.3C971.826 611.6 978.7 604.688 978.7 596.2V476.3C978.7 467.774 971.788 460.9 963.3 460.9ZM846.3 466.9H963.3C968.482 466.9 972.7 471.095 972.7 476.3V596.2C972.7 601.381 968.505 605.6 963.3 605.6H846.3C841.157 605.6 836.9 601.343 836.9 596.2V476.3C836.9 471.118 841.095 466.9 846.3 466.9Z" fill="white"/>
<path fill-rule="evenodd" clip-rule="evenodd" d="M801.1 480.7C802.757 480.7 804.1 482.043 804.1 483.7C804.1 485.298 802.851 486.604 801.276 486.695L801.1 486.7H709.5C707.843 486.7 706.5 485.357 706.5 483.7C706.5 482.103 707.749 480.797 709.324 480.705L709.5 480.7H801.1Z" fill="white"/>
<path fill-rule="evenodd" clip-rule="evenodd" d="M801.7 521C803.357 521 804.7 522.343 804.7 524C804.7 525.598 803.451 526.904 801.876 526.995L801.7 527H534.2C532.543 527 531.2 525.657 531.2 524C531.2 522.402 532.449 521.096 534.024 521.005L534.2 521H801.7Z" fill="white"/>
<path fill-rule="evenodd" clip-rule="evenodd" d="M801.7 545C803.357 545 804.7 546.343 804.7 548C804.7 549.598 803.451 550.904 801.876 550.995L801.7 551H534.2C532.543 551 531.2 549.657 531.2 548C531.2 546.402 532.449 545.096 534.024 545.005L534.2 545H801.7Z" fill="white"/>
<path fill-rule="evenodd" clip-rule="evenodd" d="M801.7 569C803.357 569 804.7 570.343 804.7 572C804.7 573.598 803.451 574.904 801.876 574.995L801.7 575H534.2C532.543 575 531.2 573.657 531.2 572C531.2 570.402 532.449 569.096 534.024 569.005L534.2 569H801.7Z" fill="white"/>
<path fill-rule="evenodd" clip-rule="evenodd" d="M801.7 593.6C803.357 593.6 804.7 594.943 804.7 596.6C804.7 598.198 803.451 599.504 801.876 599.595L801.7 599.6H534.2C532.543 599.6 531.2 598.257 531.2 596.6C531.2 595.002 532.449 593.696 534.024 593.605L534.2 593.6H801.7Z" fill="white"/>
<path fill-rule="evenodd" clip-rule="evenodd" d="M970.469 464.889C971.635 463.712 973.534 463.703 974.711 464.869C975.841 465.988 975.895 467.783 974.866 468.967L974.731 469.111L839.431 605.711C838.265 606.888 836.366 606.897 835.189 605.731C834.059 604.612 834.005 602.817 835.034 601.633L835.169 601.489L970.469 464.889Z" fill="white"/>
<path fill-rule="evenodd" clip-rule="evenodd" d="M663.6 271.1H546.6C538.112 271.1 531.2 277.974 531.2 286.5V406.4C531.2 414.888 538.074 421.8 546.6 421.8H663.6C672.059 421.8 678.954 415.009 679.002 406.666L679.001 286.5C679.001 278.012 672.126 271.1 663.6 271.1ZM546.6 277.1H663.6C668.805 277.1 673.001 281.319 673.001 286.5V406.4C673.076 411.56 668.836 415.8 663.6 415.8H546.6C541.395 415.8 537.2 411.582 537.2 406.4V286.5C537.2 281.295 541.418 277.1 546.6 277.1Z" fill="white"/>
<path fill-rule="evenodd" clip-rule="evenodd" d="M800.5 290.9C802.157 290.9 803.5 292.243 803.5 293.9C803.5 295.498 802.251 296.804 800.676 296.895L800.5 296.9H708.9C707.243 296.9 705.9 295.557 705.9 293.9C705.9 292.302 707.149 290.996 708.724 290.905L708.9 290.9H800.5Z" fill="white"/>
<path fill-rule="evenodd" clip-rule="evenodd" d="M975.8 331.2C977.457 331.2 978.8 332.543 978.8 334.2C978.8 335.798 977.551 337.104 975.976 337.195L975.8 337.2H708.2C706.543 337.2 705.2 335.857 705.2 334.2C705.2 332.603 706.449 331.297 708.024 331.205L708.2 331.2H975.8Z" fill="white"/>
<path fill-rule="evenodd" clip-rule="evenodd" d="M975.8 355.2C977.457 355.2 978.8 356.543 978.8 358.2C978.8 359.798 977.551 361.104 975.976 361.195L975.8 361.2H708.2C706.543 361.2 705.2 359.857 705.2 358.2C705.2 356.603 706.449 355.297 708.024 355.205L708.2 355.2H975.8Z" fill="white"/>
<path fill-rule="evenodd" clip-rule="evenodd" d="M975.8 379.2C977.457 379.2 978.8 380.543 978.8 382.2C978.8 383.798 977.551 385.104 975.976 385.195L975.8 385.2H708.2C706.543 385.2 705.2 383.857 705.2 382.2C705.2 380.603 706.449 379.297 708.024 379.205L708.2 379.2H975.8Z" fill="white"/>
<path fill-rule="evenodd" clip-rule="evenodd" d="M975.8 403.2C977.457 403.2 978.8 404.543 978.8 406.2C978.8 407.798 977.551 409.104 975.976 409.195L975.8 409.2H708.2C706.543 409.2 705.2 407.857 705.2 406.2C705.2 404.603 706.449 403.297 708.024 403.205L708.2 403.2H975.8Z" fill="white"/>
<path fill-rule="evenodd" clip-rule="evenodd" d="M670.368 275.29C671.533 274.112 673.433 274.102 674.61 275.268C675.741 276.387 675.795 278.182 674.766 279.366L674.632 279.51L539.332 416.21C538.167 417.388 536.267 417.398 535.09 416.232C533.959 415.113 533.905 413.318 534.934 412.134L535.068 411.99L670.368 275.29Z" fill="white"/>
<path fill-rule="evenodd" clip-rule="evenodd" d="M1060.8 116.6H420.8C412.543 116.6 405.9 123.243 405.9 131.5V231.3C405.9 239.557 412.543 246.2 420.8 246.2H1060.8C1068.99 246.2 1075.65 239.678 1075.7 231.568L1075.7 131.5C1075.7 123.243 1069.06 116.6 1060.8 116.6ZM420.8 122.6H1060.8C1065.74 122.6 1069.7 126.557 1069.7 131.5V231.3C1069.77 236.223 1065.77 240.2 1060.8 240.2H420.8C415.857 240.2 411.9 236.243 411.9 231.3V131.5C411.9 126.557 415.857 122.6 420.8 122.6Z" fill="white"/>
<path fill-rule="evenodd" clip-rule="evenodd" d="M1406.8 0.299805C1436.24 0.299805 1460.12 24.0426 1460.59 53.5053L1460.6 54.3998V606.6C1460.6 608.257 1459.26 609.6 1457.6 609.6C1456 609.6 1454.7 608.351 1454.61 606.776L1454.6 606.6V54.3998C1454.6 27.8293 1433.22 6.2998 1406.8 6.2998C1405.14 6.2998 1403.8 4.95666 1403.8 3.2998C1403.8 1.64295 1405.14 0.299805 1406.8 0.299805Z" fill="white"/>
<path fill-rule="evenodd" clip-rule="evenodd" d="M1173.5 695.6C1177.7 696 1182.5 696.4 1187.6 696.9C1187.9 695.8 1188.2 694.7 1188.5 693.6L1189 604.7C1189 598.5 1194.1 593.5 1200.3 593.5L1260.5 593.8C1290.4 573.1 1326.5 560.9 1365.3 561.1C1465.5 561.7 1547.5 644.4 1547.3 744.6L1171.4 744.3C1159.8 744.3 1150.3 734.8 1150.4 723.2V716.4C1150.7 704.1 1161.2 694.5 1173.5 695.6Z" fill="#FE7624"/>
<path fill-rule="evenodd" clip-rule="evenodd" d="M1225.79 624.174C1226.91 622.952 1228.8 622.869 1230.03 623.988C1231.25 625.107 1231.33 627.005 1230.21 628.226C1214.77 645.093 1205.01 661.09 1199.8 675.792C1197.92 681.108 1196.76 685.939 1196.17 690.233C1195.94 691.955 1195.81 693.44 1195.77 694.677L1195.75 695.2L1195.87 695.244C1224.82 705.928 1261.73 713.925 1304.76 719.536L1306.26 719.731C1339.85 724.054 1375.7 726.76 1412.16 728.142L1415.04 728.249C1439.31 729.122 1460.94 729.326 1478.41 729.133L1482.78 729.075L1484.02 729.054L1484.34 726.373C1484.43 725.622 1484.52 724.876 1484.62 724.141L1484.9 721.976L1485.22 719.55L1485.47 717.837C1485.81 715.513 1486.1 713.819 1486.36 712.805L1486.4 712.651C1489.94 698.898 1496.99 689.725 1506.48 684.526C1513.99 680.417 1521.78 679.305 1528.35 679.82L1528.91 679.87C1529.13 679.892 1529.3 679.913 1529.43 679.931C1531.07 680.166 1532.2 681.686 1531.97 683.326C1531.74 684.907 1530.32 686.023 1528.75 685.89L1528.28 685.836C1528.17 685.826 1528.04 685.814 1527.89 685.802C1522.37 685.37 1515.7 686.323 1509.36 689.789C1501.47 694.112 1495.54 701.73 1492.36 713.563L1492.2 714.168C1491.99 714.975 1491.67 716.848 1491.29 719.463L1491.09 720.947C1491.01 721.525 1490.93 722.129 1490.84 722.756L1490.57 724.894C1490.43 725.984 1490.3 727.098 1490.16 728.219L1489.68 732.334C1489.52 733.763 1488.37 734.869 1486.96 734.989L1486.73 735L1484.2 735.052C1483.36 735.067 1482.44 735.082 1481.42 735.096L1477.48 735.144C1460.1 735.319 1438.74 735.105 1414.83 734.245C1377.2 732.891 1340.17 730.144 1305.5 725.682C1260.4 719.878 1221.82 711.484 1191.74 700.106C1190.67 699.703 1189.93 698.729 1189.81 697.594L1189.79 697.204L1189.78 697.069C1189.69 695.206 1189.79 692.637 1190.23 689.421C1190.87 684.725 1192.13 679.495 1194.15 673.79C1199.63 658.315 1209.81 641.624 1225.79 624.174Z" fill="#2E186A"/>
<path fill-rule="evenodd" clip-rule="evenodd" d="M618.6 708.7H591.8L495.7 455.8C490.4 441.9 474.1 442.1 469.1 456.2L379 708.7H352.8C347.4 708.7 342.9 714.1 342.9 720.8V736.8C342.9 743.5 347.3 748.9 352.8 748.9H618.5C623.9 748.9 628.4 743.5 628.4 736.8V720.8C628.5 714.1 624.1 708.7 618.6 708.7Z" fill="#FE7624"/>
<path fill-rule="evenodd" clip-rule="evenodd" d="M587.3 705.7C588.957 705.7 590.3 707.043 590.3 708.7C590.3 710.298 589.051 711.604 587.476 711.695L587.3 711.7H383C381.343 711.7 380 710.357 380 708.7C380 707.103 381.249 705.797 382.824 705.705L383 705.7H587.3Z" fill="#2E186A"/>
<path fill-rule="evenodd" clip-rule="evenodd" d="M578.1 671.6H392.3L407.3 629.3H562L578.1 671.6Z" fill="white"/>
<path fill-rule="evenodd" clip-rule="evenodd" d="M424.9 580.2H543.1L527 537.9H440L424.9 580.2Z" fill="white"/>
<path fill-rule="evenodd" clip-rule="evenodd" d="M806.7 726.5H791.8L738.4 586C735.5 578.3 726.4 578.4 723.6 586.2L673.6 726.5H659.1C656.1 726.5 653.6 729.5 653.6 733.2V742.1C653.6 745.8 656.1 748.8 659.1 748.8H806.7C809.7 748.8 812.2 745.8 812.2 742.1V733.2C812.2 729.5 809.7 726.5 806.7 726.5Z" fill="#FE7624"/>
<path fill-rule="evenodd" clip-rule="evenodd" d="M789.3 723.5C790.957 723.5 792.3 724.843 792.3 726.5C792.3 728.098 791.051 729.404 789.476 729.495L789.3 729.5H675.8C674.143 729.5 672.8 728.157 672.8 726.5C672.8 724.902 674.049 723.596 675.624 723.505L675.8 723.5H789.3Z" fill="#2E186A"/>
<path fill-rule="evenodd" clip-rule="evenodd" d="M784.2 705.9H681L689.3 682.4H775.2L784.2 705.9Z" fill="white"/>
<path fill-rule="evenodd" clip-rule="evenodd" d="M699.1 655.2H764.7L755.8 631.7H707.5L699.1 655.2Z" fill="white"/>
<path fill-rule="evenodd" clip-rule="evenodd" d="M1668.6 742.6C1670.26 742.6 1671.6 743.943 1671.6 745.6C1671.6 747.198 1670.35 748.504 1668.78 748.595L1668.6 748.6H3C1.34315 748.6 0 747.257 0 745.6C0 744.002 1.24892 742.696 2.82373 742.605L3 742.6H1668.6Z" fill="#2E186A"/>
</svg>
