<svg width="1664" height="505" viewBox="0 0 1664 505" fill="none" xmlns="http://www.w3.org/2000/svg">
<path fill-rule="evenodd" clip-rule="evenodd" d="M530.901 498.8C527.801 462.3 502.301 409.7 496.601 359.4C535.001 323.5 493.501 218.8 470.601 217.7C447.501 213.5 427.501 209.2 390.601 207.9C345.001 206.3 303.801 211.8 288.501 214C231.401 242.2 200.401 408 238.001 440.7C245.101 446.9 256.601 453.1 270.601 458.9C269.401 472.9 268.601 486.9 268.601 499.9L530.901 498.8Z" fill="#2E186A"/>
<path fill-rule="evenodd" clip-rule="evenodd" d="M348.101 213.701L356.401 164.101L418.401 187.401L420.701 222.701C412.301 284.201 346.301 224.601 348.101 213.701Z" fill="white"/>
<path fill-rule="evenodd" clip-rule="evenodd" d="M353.442 163.605L345.142 213.205C343.851 221.02 362.104 239.555 379.245 248.039C389.467 253.098 398.914 254.613 406.659 251.564C415.745 247.986 421.568 238.52 423.673 223.106C423.7 222.907 423.707 222.706 423.694 222.505L421.394 187.205C421.318 186.029 420.559 185.007 419.456 184.592L357.456 161.292C355.688 160.628 353.754 161.742 353.442 163.605ZM358.757 168.19L415.533 189.527L417.687 222.585L417.728 222.294C414.326 247.207 401.385 252.302 381.906 242.662C374.142 238.818 366.04 232.746 359.641 226.248L359.055 225.646C353.948 220.338 350.848 215.479 351.061 214.189L358.757 168.19Z" fill="#2E186A"/>
<path fill-rule="evenodd" clip-rule="evenodd" d="M434.301 70.7006C434.301 70.7006 386.801 100.501 409.701 128.601C409.701 128.601 420.001 140.401 428.401 138.101C428.401 138.101 422.201 128.101 429.401 123.001C429.401 123.001 431.501 152.901 456.001 146.901C456.001 146.901 447.001 133.601 449.501 117.801C454.601 84.6006 447.001 64.7006 434.301 70.7006Z" fill="#2E186A"/>
<path fill-rule="evenodd" clip-rule="evenodd" d="M335.801 117.8C335.801 117.8 326.701 59.5003 385.701 49.4003C391.201 48.5003 428.901 42.8003 435.801 74.1003C440.401 95.0003 441.301 117.7 440.701 135.3C440.701 135.4 440.101 168.6 427.001 187C413.901 205.4 384.801 203.7 369.501 194.6C354.101 185.5 351.301 180.8 347.001 170C342.701 159.2 335.801 117.9 335.801 117.9V117.8Z" fill="white"/>
<path fill-rule="evenodd" clip-rule="evenodd" d="M394.762 45.4807C391.092 45.6235 388.094 45.9687 385.216 46.4397C360.48 50.6741 345.091 63.3463 337.511 81.7147C332.85 93.0071 331.688 104.799 332.504 115.147L332.584 116.088L332.669 116.938C332.687 117.109 332.705 117.269 332.723 117.417L332.804 118.051L332.819 118.231L332.881 118.632L333.58 122.701C333.814 124.042 334.066 125.469 334.333 126.968L335.029 130.82C335.848 135.307 336.69 139.752 337.537 144.01L337.901 145.823C338.612 149.35 339.305 152.627 339.973 155.608L340.432 157.625C341.806 163.582 343.031 168.05 344.106 170.837L344.213 171.11C349.299 183.883 353.291 188.507 367.974 197.183C376.404 202.197 388.174 204.862 399.279 204.106C411.971 203.241 422.777 198.105 429.444 188.74C435.493 180.245 439.42 168.451 441.721 154.786C442.453 150.441 442.969 146.182 443.306 142.154L443.417 140.746C443.58 138.547 443.675 136.563 443.696 135.632L443.699 135.402C444.402 114.786 442.967 93.3618 438.998 74.6948L438.73 73.4544C435.404 58.365 425.273 49.8622 410.86 46.7432C405.701 45.6266 400.266 45.2664 394.762 45.4807ZM409.591 52.6074C421.723 55.2329 429.891 61.9942 432.764 74.277L432.871 74.7451C436.923 93.1582 438.405 114.59 437.702 135.198L437.693 135.674C437.668 136.56 437.572 138.491 437.411 140.604C437.092 144.78 436.571 149.239 435.805 153.789C433.64 166.639 429.973 177.652 424.557 185.26C419.027 193.027 409.892 197.369 398.872 198.12C388.958 198.795 378.402 196.404 371.034 192.022L370.072 191.45C357.329 183.835 354.268 180.144 349.788 168.891C348.767 166.326 347.474 161.565 346.006 155.088L345.466 152.664C344.92 150.174 344.358 147.489 343.782 144.636C342.69 139.224 341.599 133.455 340.552 127.654L339.729 123.032L338.794 117.616L338.785 117.491L338.699 116.846L338.633 116.276C338.6 115.972 338.567 115.641 338.536 115.283C337.694 105.653 338.721 94.5099 343.057 84.0037C349.862 67.5135 363.559 56.2342 386.207 52.3573L387.268 52.1911C389.588 51.8449 392.057 51.5905 394.995 51.4761C400.029 51.2802 404.972 51.6078 409.591 52.6074Z" fill="#2E186A"/>
<path fill-rule="evenodd" clip-rule="evenodd" d="M415.8 119.361C417.365 119.041 418.895 120.003 419.3 121.528L419.34 121.699L424.84 148.599C425.208 150.401 423.886 152.091 422.077 152.195L421.901 152.2H411.801C410.144 152.2 408.801 150.857 408.801 149.2C408.801 147.603 410.05 146.297 411.625 146.205L411.801 146.2H418.225L413.462 122.901C413.142 121.336 414.104 119.806 415.628 119.402L415.8 119.361Z" fill="#2E186A"/>
<path fill-rule="evenodd" clip-rule="evenodd" d="M431.731 120.054C431.755 117.514 430.433 115.441 428.776 115.425C427.119 115.409 425.755 117.455 425.731 119.996C425.706 122.536 427.029 124.609 428.686 124.625C430.342 124.641 431.706 122.595 431.731 120.054Z" fill="#2E186A"/>
<path fill-rule="evenodd" clip-rule="evenodd" d="M403.304 120.796C403.803 118.305 402.891 116.022 401.267 115.696C399.642 115.37 397.92 117.126 397.421 119.617C396.921 122.108 397.834 124.391 399.458 124.717C401.083 125.042 402.804 123.287 403.304 120.796Z" fill="#2E186A"/>
<path fill-rule="evenodd" clip-rule="evenodd" d="M385.698 97.3208C388.992 94.786 393.078 93.4596 397.852 94.0212C399.497 94.2148 400.674 95.7056 400.481 97.3511C400.287 98.9966 398.796 100.174 397.151 99.9801C394.037 99.6137 391.477 100.445 389.357 102.076C388.729 102.559 388.192 103.076 387.752 103.586L387.549 103.83C387.518 103.868 387.489 103.905 387.461 103.94L387.321 104.129C386.422 105.52 384.565 105.92 383.173 105.02C381.781 104.121 381.382 102.264 382.281 100.872L382.444 100.633C382.629 100.371 382.884 100.042 383.211 99.6637C383.905 98.8602 384.732 98.0638 385.698 97.3208Z" fill="#2E186A"/>
<path fill-rule="evenodd" clip-rule="evenodd" d="M424.961 91.1007C427.335 90.4031 429.75 90.0367 432.095 90.1929C435.596 90.426 438.588 91.826 440.629 94.6376C441.602 95.9785 441.304 97.8545 439.963 98.8277C438.674 99.7635 436.89 99.5239 435.889 98.3121L435.773 98.162C434.876 96.9267 433.543 96.3026 431.697 96.1796C430.155 96.077 428.405 96.3424 426.653 96.8572C426.255 96.9742 425.881 97.0973 425.537 97.2211L425.087 97.3897L424.734 97.5346C423.224 98.2157 421.447 97.5435 420.766 96.0331C420.085 94.5227 420.757 92.7462 422.267 92.065L422.583 91.9282C423.157 91.6883 423.968 91.3925 424.961 91.1007Z" fill="#2E186A"/>
<path fill-rule="evenodd" clip-rule="evenodd" d="M382.101 74.2997C382.101 74.2997 404.401 152.5 352.401 160.5C352.401 160.5 322.101 165.9 315.201 155.2C315.201 155.2 337.101 143.5 334.401 131C334.401 131 309.701 158.1 288.201 138.6C288.201 138.6 324.001 132.6 320.901 100.4C318.601 77.1997 374.101 55.4997 382.101 74.2997Z" fill="#2E186A"/>
<path fill-rule="evenodd" clip-rule="evenodd" d="M287.001 85.3002L318.701 80.5002C322.001 59.2002 334.401 28.6002 378.101 23.6002C446.401 15.7002 448.501 82.1002 448.501 82.1002L290.201 105.7C284.601 106.6 279.301 102.7 278.401 97.0002C277.501 91.4002 281.401 86.2002 287.001 85.3002Z" fill="#FE7624"/>
<path fill-rule="evenodd" clip-rule="evenodd" d="M393.726 153.34C395.196 152.714 396.887 153.352 397.588 154.765L397.705 155.011L397.732 155.063C397.835 155.261 397.969 155.49 398.135 155.744C398.628 156.5 399.266 157.265 400.058 157.982C403.004 160.645 407.173 161.939 413.045 161.035C414.683 160.783 416.214 161.907 416.466 163.544C416.718 165.182 415.595 166.714 413.957 166.965C406.28 168.147 400.304 166.293 396.034 162.432C394.84 161.352 393.873 160.193 393.11 159.023C392.632 158.291 392.316 157.687 392.141 157.276C391.492 155.751 392.202 153.989 393.726 153.34Z" fill="#2E186A"/>
<path fill-rule="evenodd" clip-rule="evenodd" d="M549.6 278.701V244.401C549.6 230.401 538.3 219.101 524.3 219.101H514.4C514.4 253.801 486.3 282.001 451.5 282.001C416.7 282.001 388.6 253.901 388.6 219.101H378.7C364.7 219.101 353.4 230.401 353.4 244.401V427.101C353.4 441.101 364.7 452.401 378.7 452.401H524.2C538.2 452.401 549.5 441.101 549.5 427.101V404.401C584.2 404.401 612.4 376.301 612.4 341.501C612.5 306.801 584.3 278.701 549.6 278.701Z" fill="#FEBA91"/>
<path fill-rule="evenodd" clip-rule="evenodd" d="M532.301 443.8C532.201 443.4 510.201 417.7 509.501 418.3C508.801 418.9 478.701 432.3 478.001 433.4C477.301 434.4 476.201 440.5 479.201 446.1C482.201 451.7 485.601 464.6 499.201 465.6C512.801 466.7 532.301 443.8 532.301 443.8Z" fill="white"/>
<path fill-rule="evenodd" clip-rule="evenodd" d="M492.201 424.3C492.201 424.3 489.601 406.6 493.701 402.4C497.801 398.2 520.701 437.4 528.601 440.1" fill="white"/>
<path fill-rule="evenodd" clip-rule="evenodd" d="M491.554 400.305C493.461 398.351 495.792 398.826 498.067 400.447C499.331 401.347 500.763 402.733 502.459 404.64L503.174 405.455C505.208 407.799 506.944 410.001 510.862 415.19L515.601 421.485C523.228 431.567 527.471 436.444 529.483 437.23L529.571 437.262C531.139 437.797 531.975 439.503 531.439 441.071C530.904 442.638 529.198 443.475 527.63 442.939L527.357 442.84C523.747 441.454 519.73 436.892 511.12 425.508L504.687 416.974C501.817 413.198 500.318 411.32 498.648 409.394L498.268 408.959C497.17 407.706 496.225 406.728 495.456 406.04L495.185 405.805L495.179 405.824C494.727 407.261 494.427 409.611 494.391 412.535L494.388 412.92C494.378 415.329 494.526 417.936 494.78 420.541C494.832 421.071 494.885 421.577 494.94 422.056L495.094 423.313C495.127 423.569 495.153 423.755 495.169 423.864C495.41 425.504 494.276 427.028 492.637 427.268C490.997 427.509 489.473 426.376 489.232 424.736L489.097 423.722L488.979 422.739C488.921 422.228 488.863 421.687 488.808 421.123C488.536 418.331 488.377 415.531 488.388 412.894C488.414 406.944 489.225 402.69 491.554 400.305Z" fill="#2E186A"/>
<path fill-rule="evenodd" clip-rule="evenodd" d="M480 427.4C480 427.4 474.5 414.5 481.8 408.3C489 402.1 506.9 437.4 514.7 441.9" fill="white"/>
<path fill-rule="evenodd" clip-rule="evenodd" d="M479.843 406.027C483.134 403.193 487.001 404.512 491.151 408.309C493.751 410.688 496.567 414.071 500.248 419.048L501.526 420.791C501.885 421.284 502.258 421.8 502.658 422.356L506.757 428.055C512.676 436.233 514.404 438.266 516.2 439.302C517.635 440.13 518.127 441.964 517.299 443.399C516.471 444.835 514.636 445.327 513.201 444.499L512.699 444.2C509.953 442.502 508.148 440.278 500.453 429.575L497.216 425.068C496.845 424.556 496.496 424.075 496.154 423.608L495.447 422.647C491.973 417.948 489.347 414.791 487.101 412.736C485.858 411.598 484.825 410.901 484.096 410.653L483.834 410.564C483.801 410.555 483.786 410.556 483.772 410.563L483.742 410.587C482.125 411.961 481.266 413.926 481.061 416.466C480.88 418.691 481.217 421.172 481.899 423.638C482.055 424.205 482.221 424.736 482.387 425.22L482.606 425.831L482.76 426.224C483.41 427.748 482.701 429.51 481.177 430.16C479.653 430.81 477.891 430.101 477.241 428.577C476.943 427.879 476.526 426.724 476.115 425.236C475.262 422.149 474.835 419.005 475.08 415.982C475.405 411.964 476.912 408.516 479.843 406.027Z" fill="#2E186A"/>
<path fill-rule="evenodd" clip-rule="evenodd" d="M476.801 442.2C476.801 442.2 467.601 419.1 474.001 414.2C480.401 409.3 490.901 439.3 503.401 446.2" fill="white"/>
<path fill-rule="evenodd" clip-rule="evenodd" d="M472.176 411.818C474.137 410.317 476.469 410.325 478.636 411.549C480.123 412.39 481.567 413.79 483.176 415.802L483.62 416.367C484.666 417.722 485.789 419.334 487.184 421.455L492.057 428.981L492.706 429.962C497.627 437.351 501.292 441.61 504.85 443.574C506.3 444.374 506.827 446.199 506.026 447.65C505.226 449.1 503.401 449.627 501.95 448.827C497.184 446.196 493.003 441.292 487.394 432.809L485.987 430.651C484.714 428.684 482.908 425.876 482.466 425.201L481.933 424.39C480.549 422.298 479.47 420.775 478.49 419.549C477.392 418.176 476.481 417.273 475.814 416.851L475.643 416.75L475.585 416.816C474.586 418.039 474.413 421.66 475.375 426.783L475.449 427.17C475.866 429.296 476.444 431.57 477.143 433.915C477.591 435.418 478.066 436.877 478.545 438.253L478.833 439.068C478.954 439.405 479.069 439.721 479.178 440.015L479.587 441.09C480.2 442.629 479.449 444.374 477.91 444.987C476.371 445.6 474.626 444.849 474.013 443.31L473.778 442.703C473.634 442.324 473.478 441.903 473.311 441.443L473.184 441.091C472.573 439.385 471.963 437.543 471.393 435.628C470.643 433.111 470.018 430.655 469.561 428.324C468.01 420.41 468.39 414.717 472.176 411.818Z" fill="#2E186A"/>
<path fill-rule="evenodd" clip-rule="evenodd" d="M527 439.201C528 434.201 527.5 429.001 525.5 424.401C523.2 419.001 520.5 411.801 520.3 407.101C519.9 399.001 533.1 402.801 533.7 407.801C534.3 412.801 536.8 412.501 542.6 417.701C548.4 422.901 547.3 443.201 547.3 443.201C547.3 443.201 552.4 453.701 536 466.201C519.6 478.701 502 469.001 502 469.001C502 469.001 470.2 457.301 470.2 434.401C470.2 411.501 478.6 444.901 494.5 454.301" fill="white"/>
<path fill-rule="evenodd" clip-rule="evenodd" d="M517.304 407.248C517.013 401.353 521.591 398.643 527.126 399.58C531.84 400.377 536.202 403.47 536.679 407.443C536.855 408.911 537.123 409.48 537.926 410.201L538.073 410.33C538.035 410.297 542.518 413.598 544.603 415.466C547.533 418.093 549.082 422.919 549.856 429.499C550.324 433.475 550.446 437.62 550.363 441.374L550.334 442.425L550.324 442.697L550.355 442.788C550.405 442.937 550.455 443.097 550.503 443.269L550.576 443.534C551.327 446.385 551.274 449.806 549.932 453.589C548.135 458.658 544.219 463.708 537.819 468.586C536.697 469.441 535.552 470.215 534.383 470.909C524.878 476.561 514.78 476.724 505.416 473.644C503.445 472.995 501.919 472.337 500.922 471.824L500.752 471.735L500.104 471.48L499.474 471.219C498.336 470.742 497.073 470.173 495.716 469.51C491.841 467.62 487.966 465.357 484.335 462.713C473.699 454.971 467.2 445.56 467.2 434.4C467.2 429.94 467.481 427.328 468.306 425.735C469.153 424.1 470.806 423.153 472.694 423.654C473.803 423.947 474.641 424.623 475.531 425.655C476.869 427.208 483.248 437.688 484.754 439.89C488.616 445.536 492.271 449.497 496.027 451.718C497.453 452.561 497.926 454.401 497.083 455.827C496.239 457.253 494.4 457.726 492.973 456.883C488.447 454.206 484.378 449.867 480.206 443.864L479.801 443.278C478.728 441.709 476.028 437.347 473.873 433.942L473.214 432.905L473.212 433.054C473.206 433.37 473.203 433.702 473.201 434.049L473.2 434.4C473.2 443.278 478.626 451.136 487.866 457.862C491.19 460.282 494.768 462.372 498.347 464.118C499.42 464.641 500.425 465.1 501.343 465.495L501.794 465.686C502.063 465.799 502.308 465.899 502.527 465.987L503.036 466.185C503.131 466.22 503.223 466.259 503.314 466.303L503.676 466.491C503.845 466.575 504.083 466.689 504.385 466.825C505.227 467.204 506.202 467.586 507.291 467.944C515.151 470.53 523.508 470.394 531.317 465.752C532.288 465.175 533.243 464.53 534.182 463.814C539.698 459.61 542.892 455.491 544.277 451.584C545.196 448.993 545.23 446.795 544.774 445.062L544.711 444.837C544.653 444.64 544.61 444.529 544.602 444.511C544.379 444.053 544.277 443.546 544.305 443.038L544.332 442.383C544.336 442.281 544.339 442.169 544.343 442.049C544.457 438.344 544.361 434.139 543.897 430.2C543.286 425.001 542.088 421.27 540.598 419.934L540.299 419.672C538.344 417.984 534.365 415.054 534.171 414.887C532.104 413.118 531.086 411.198 530.722 408.158C530.631 407.399 528.516 405.9 526.125 405.496C523.933 405.125 523.227 405.543 523.297 406.973C523.44 410.333 525.134 415.736 527.809 422.154L528.251 423.204C530.485 428.342 531.067 434.162 529.942 439.789C529.617 441.413 528.037 442.467 526.412 442.142C524.787 441.817 523.734 440.237 524.058 438.612C524.915 434.331 524.52 429.925 522.923 426.009L522.229 424.361C519.307 417.344 517.484 411.491 517.304 407.248Z" fill="#2E186A"/>
<path fill-rule="evenodd" clip-rule="evenodd" d="M355.101 443.8C355.201 443.4 377.201 417.7 377.901 418.3C378.601 418.9 408.701 432.3 409.401 433.4C410.101 434.5 411.201 440.5 408.201 446.1C405.201 451.7 401.801 464.6 388.201 465.6C374.601 466.7 355.101 443.8 355.101 443.8Z" fill="white"/>
<path fill-rule="evenodd" clip-rule="evenodd" d="M395.201 424.3C395.201 424.3 397.801 406.6 393.701 402.4C389.601 398.2 366.701 437.4 358.801 440.1" fill="white"/>
<path fill-rule="evenodd" clip-rule="evenodd" d="M389.334 400.447C391.609 398.826 393.94 398.351 395.847 400.305C398.176 402.69 398.987 406.944 399.013 412.894C399.024 415.531 398.865 418.331 398.593 421.123L398.48 422.218C398.461 422.395 398.442 422.569 398.422 422.739L398.235 424.26C398.207 424.466 398.185 424.626 398.169 424.736C397.928 426.376 396.404 427.509 394.765 427.268C393.125 427.028 391.992 425.504 392.232 423.864L392.308 423.313L392.351 422.974C392.443 422.242 392.535 421.424 392.621 420.541C392.875 417.936 393.023 415.329 393.013 412.92C393 409.965 392.723 407.562 392.288 406.045L392.216 405.805L392.134 405.874C391.394 406.513 390.477 407.445 389.404 408.652L388.504 409.683C386.64 411.85 384.895 414.079 381.074 419.142L376.281 425.508C367.453 437.18 363.454 441.68 359.771 442.939C358.203 443.475 356.498 442.638 355.962 441.071C355.445 439.559 356.205 437.919 357.665 437.323L357.83 437.262C359.806 436.586 364.062 431.715 371.8 421.485L376.027 415.869C380.31 410.188 382.107 407.899 384.227 405.455L384.621 405.004C386.459 402.908 387.992 401.403 389.334 400.447Z" fill="#2E186A"/>
<path fill-rule="evenodd" clip-rule="evenodd" d="M407.401 427.4C407.401 427.4 412.901 414.5 405.601 408.3C398.401 402.1 380.501 437.4 372.701 441.9" fill="white"/>
<path fill-rule="evenodd" clip-rule="evenodd" d="M396.25 408.31C400.4 404.513 404.267 403.193 407.543 406.014C410.489 408.517 411.996 411.965 412.321 415.983C412.566 419.005 412.139 422.149 411.286 425.236C410.875 426.725 410.458 427.88 410.16 428.577C409.511 430.101 407.748 430.81 406.224 430.16C404.754 429.534 404.043 427.873 404.577 426.388L404.795 425.832C404.824 425.755 404.855 425.67 404.889 425.575C405.097 424.999 405.307 424.348 405.503 423.638C406.184 421.172 406.521 418.692 406.341 416.467C406.144 414.042 405.353 412.141 403.861 410.767L403.621 410.557C403.597 410.546 403.557 410.567 403.305 410.653C402.576 410.902 401.544 411.599 400.3 412.736C397.979 414.86 395.253 418.16 391.603 423.123L390.185 425.069L385.143 432.079C378.543 441.201 377.014 442.876 374.2 444.499C372.765 445.327 370.93 444.835 370.102 443.4C369.274 441.965 369.766 440.13 371.202 439.302L371.345 439.217C373.212 438.08 375.129 435.717 381.885 426.337L384.744 422.357C385.144 421.801 385.517 421.285 385.875 420.791L386.405 420.065C390.457 414.526 393.477 410.847 396.25 408.31Z" fill="#2E186A"/>
<path fill-rule="evenodd" clip-rule="evenodd" d="M410.601 442.2C410.601 442.2 419.801 419.1 413.401 414.2C407.001 409.3 396.501 439.3 384.001 446.2" fill="white"/>
<path fill-rule="evenodd" clip-rule="evenodd" d="M408.765 411.549C410.931 410.325 413.264 410.317 415.224 411.818C419.011 414.717 419.391 420.41 417.839 428.324C417.382 430.655 416.758 433.111 416.008 435.628C415.519 437.269 415.001 438.857 414.478 440.352L414.216 441.091C414.045 441.57 413.883 442.011 413.733 442.411L413.388 443.31C412.775 444.849 411.03 445.6 409.491 444.987C407.951 444.374 407.2 442.629 407.813 441.09L408.014 440.571L408.334 439.714C408.409 439.508 408.487 439.293 408.567 439.068C409.144 437.459 409.72 435.719 410.258 433.915C410.956 431.57 411.535 429.296 411.952 427.17L412.103 426.363C412.978 421.463 412.787 418.006 411.815 416.816L411.757 416.75L411.717 416.772C411.082 417.131 410.201 417.97 409.128 419.28L408.911 419.549L408.538 420.023C407.656 421.164 406.679 422.56 405.468 424.39L404.472 425.913C403.404 427.566 401.119 431.117 400.359 432.274L399.658 433.335C394.223 441.496 390.117 446.25 385.45 448.827C384 449.627 382.175 449.1 381.374 447.65C380.573 446.199 381.1 444.374 382.551 443.574C386.108 441.61 389.774 437.351 394.695 429.962L395.786 428.303C396.98 426.464 399.378 422.735 399.913 421.917L400.511 421.008C401.965 418.813 403.123 417.179 404.225 415.802C405.834 413.79 407.277 412.39 408.765 411.549Z" fill="#2E186A"/>
<path fill-rule="evenodd" clip-rule="evenodd" d="M360.501 439.201C359.501 434.201 360.001 429.001 362.001 424.401C364.301 419.001 367.001 411.801 367.201 407.101C367.601 399.001 354.401 402.801 353.801 407.801C353.201 412.801 350.701 412.501 344.901 417.701C339.101 422.901 340.201 443.201 340.201 443.201C340.201 443.201 335.101 453.701 351.501 466.201C367.901 478.701 385.501 469.001 385.501 469.001C385.501 469.001 417.301 457.301 417.301 434.401C417.301 411.501 408.901 444.901 393.001 454.301" fill="white"/>
<path fill-rule="evenodd" clip-rule="evenodd" d="M360.376 399.58C365.91 398.644 370.488 401.354 370.198 407.228C370.017 411.49 368.194 417.344 365.265 424.379L364.752 425.596C363.012 429.599 362.555 434.172 363.443 438.612C363.768 440.237 362.714 441.817 361.089 442.142C359.465 442.467 357.884 441.413 357.559 439.789C356.47 434.343 356.98 428.717 359.031 423.722L359.685 422.172C362.367 415.736 364.061 410.332 364.205 406.952C364.274 405.543 363.568 405.125 361.376 405.496C358.985 405.9 356.871 407.399 356.78 408.158C356.429 411.081 355.474 412.969 353.564 414.683L353.331 414.887C353.125 415.063 348.716 418.309 346.904 419.934C345.413 421.27 344.215 425.001 343.604 430.2C343.176 433.836 343.061 437.699 343.136 441.185L343.169 442.383C343.18 442.689 343.19 442.911 343.197 443.038C343.22 443.474 343.149 443.908 342.987 444.312L342.9 444.511C342.888 444.535 342.816 444.724 342.727 445.062C342.271 446.795 342.305 448.993 343.224 451.584C344.609 455.491 347.803 459.61 353.32 463.814C354.258 464.53 355.214 465.175 356.184 465.752C363.993 470.394 372.35 470.53 380.21 467.944C381.144 467.637 381.993 467.312 382.747 466.987L383.116 466.825C383.54 466.634 383.836 466.488 383.994 466.405L384.053 466.373C384.141 466.324 384.232 466.28 384.325 466.241L384.763 466.07C384.966 465.991 385.194 465.899 385.446 465.795L385.707 465.686C386.743 465.252 387.903 464.729 389.154 464.118C392.733 462.372 396.311 460.282 399.635 457.862C408.875 451.136 414.301 443.278 414.301 434.4L414.3 433.934L414.286 432.905L412.509 435.717C410.758 438.502 408.899 441.481 407.922 442.948L407.7 443.278C403.386 449.585 399.201 454.12 394.528 456.883C393.102 457.726 391.262 457.253 390.419 455.827C389.575 454.401 390.048 452.561 391.474 451.718C395.231 449.497 398.886 445.536 402.748 439.89L402.942 439.6C404.737 436.895 410.684 427.148 411.97 425.655C412.86 424.623 413.699 423.947 414.807 423.654C416.696 423.153 418.348 424.1 419.195 425.735C420.021 427.328 420.301 429.94 420.301 434.4C420.301 445.56 413.802 454.971 403.167 462.713C399.535 465.357 395.66 467.62 391.785 469.51C390.428 470.173 389.165 470.742 388.028 471.219L387.215 471.553L386.748 471.735L386.579 471.824L386.152 472.037C385.243 472.476 384.003 472.995 382.473 473.514L382.085 473.644C372.721 476.724 362.623 476.561 353.118 470.909C351.95 470.215 350.804 469.441 349.682 468.586C343.282 463.708 339.366 458.658 337.569 453.589C336.228 449.806 336.174 446.385 336.925 443.534C336.973 443.352 337.022 443.18 337.072 443.02L337.177 442.697L337.161 442.233C337.039 438.258 337.141 433.781 337.645 429.499C338.419 422.919 339.968 418.093 342.898 415.467L343.356 415.066C345.573 413.163 349.464 410.299 349.428 410.33C350.346 409.544 350.636 408.998 350.822 407.443C351.299 403.47 355.661 400.377 360.376 399.58Z" fill="#2E186A"/>
<path fill-rule="evenodd" clip-rule="evenodd" d="M885.6 213.899L818.8 203.299L811.6 180.599C824.1 172.699 866.1 176.399 898.9 188.499L885.6 213.899Z" fill="#2E186A"/>
<path fill-rule="evenodd" clip-rule="evenodd" d="M995.2 340.199L945.5 223.999C942.3 216.799 935.6 211.499 927.5 209.299C923.4 207.399 918.9 206.199 914.2 205.799L897.3 204.399L898.8 188.499C898.8 188.499 896.5 194.199 877.9 197.699C852.8 202.399 811.5 180.599 811.5 180.599C811.5 180.599 811.5 202.199 811.5 205.199L785.9 204.499C774.9 204.199 753.6 203.299 741.2 227.799L681.1 378.699C670.4 398.199 676 426.999 693.7 441.899L728.8 461.299L725.5 500.299L991.1 499.399L989.6 464.799C1070.4 414.699 995.2 340.199 995.2 340.199Z" fill="#5D21D1"/>
<path fill-rule="evenodd" clip-rule="evenodd" d="M709.452 377.561C722.04 368.543 734.242 364.659 745.861 365.158C755.022 365.55 763.266 368.617 770.474 373.469C773.176 375.288 775.545 377.236 777.568 379.191L778.041 379.655C779.024 380.629 779.723 381.408 780.131 381.912C781.174 383.199 780.975 385.088 779.687 386.131C778.449 387.134 776.655 386.989 775.592 385.831L775.184 385.357C775.127 385.293 775.062 385.22 774.989 385.14C774.547 384.652 774.016 384.103 773.399 383.507C771.618 381.786 769.519 380.059 767.124 378.446C760.778 374.175 753.571 371.494 745.604 371.152C735.366 370.713 724.474 374.18 712.947 382.438C711.6 383.403 709.726 383.094 708.761 381.747C707.796 380.4 708.105 378.526 709.452 377.561Z" fill="white"/>
<path fill-rule="evenodd" clip-rule="evenodd" d="M716.614 362.038C729.853 355.147 741.577 352.875 751.819 354.585C760.115 355.97 766.988 359.869 772.514 365.473C774.888 367.88 776.862 370.453 778.466 373.043C779.043 373.974 779.537 374.852 779.952 375.659L780.16 376.071C780.316 376.387 780.434 376.641 780.541 376.881C781.214 378.395 780.532 380.168 779.018 380.84C777.504 381.513 775.731 380.831 775.058 379.317C774.724 378.566 774.211 377.567 773.366 376.203C771.986 373.976 770.282 371.755 768.242 369.686C763.556 364.934 757.795 361.665 750.831 360.503C741.951 359.02 731.525 361.041 719.385 367.36C717.915 368.125 716.104 367.554 715.339 366.084C714.574 364.615 715.145 362.803 716.614 362.038Z" fill="white"/>
<path fill-rule="evenodd" clip-rule="evenodd" d="M965.761 357.597C977.689 355.906 990.652 359.131 1004.53 368.078C1005.92 368.976 1006.32 370.832 1005.42 372.225C1004.52 373.617 1002.67 374.018 1001.27 373.12C988.567 364.926 977.04 362.058 966.603 363.538C958.367 364.705 951.108 368.529 944.845 374.206C942.148 376.651 939.823 379.274 937.88 381.894C937.301 382.675 936.794 383.405 936.359 384.071L935.958 384.698C935.788 384.971 935.673 385.164 935.616 385.266C934.806 386.711 932.977 387.226 931.532 386.416C930.087 385.605 929.573 383.777 930.383 382.332L930.567 382.011C931.072 381.153 931.903 379.881 933.061 378.32C935.226 375.4 937.809 372.485 940.815 369.761C947.909 363.331 956.229 358.948 965.761 357.597Z" fill="white"/>
<path fill-rule="evenodd" clip-rule="evenodd" d="M937.103 360.295C948.512 348.909 964.618 343.503 985.835 347.347C987.465 347.643 988.547 349.204 988.252 350.834C987.956 352.464 986.395 353.547 984.765 353.251C965.531 349.766 951.392 354.512 941.341 364.542C938.619 367.259 936.417 370.171 934.697 373.077C934.186 373.942 933.751 374.749 933.39 375.483L933.215 375.844C933.074 376.142 932.967 376.379 932.894 376.549L932.798 376.781C932.2 378.327 930.463 379.095 928.918 378.497C927.372 377.9 926.604 376.163 927.202 374.617L927.351 374.247C927.764 373.257 928.48 371.802 929.534 370.021C931.499 366.701 934.003 363.389 937.103 360.295Z" fill="white"/>
<path fill-rule="evenodd" clip-rule="evenodd" d="M820.6 202.4V135.3L879.6 170.8L878.2 206.9L820.6 202.4Z" fill="white"/>
<path fill-rule="evenodd" clip-rule="evenodd" d="M817.6 135.3V202.4C817.6 203.966 818.804 205.268 820.366 205.39L877.966 209.89C879.664 210.023 881.131 208.718 881.197 207.016L882.597 170.916C882.64 169.823 882.084 168.793 881.146 168.229L822.146 132.729C820.147 131.526 817.6 132.966 817.6 135.3ZM823.6 140.606L876.533 172.456L875.323 203.666L823.6 199.625V140.606Z" fill="#2E186A"/>
<path fill-rule="evenodd" clip-rule="evenodd" d="M898.699 63.299C874.699 46.699 853.099 40.599 819.199 83.9991L814.599 112.599C800.399 108.299 792.899 115.299 795.999 127.699C799.299 141.099 807.099 147.099 819.999 143.599C819.999 143.599 819.299 141.899 819.999 143.599C826.199 157.599 837.899 173.699 859.599 178.399C893.599 185.799 901.399 164.699 905.199 156.499C908.899 148.099 922.699 79.899 898.699 63.299Z" fill="white"/>
<path fill-rule="evenodd" clip-rule="evenodd" d="M862.234 48.1803C847.945 50.2439 833.408 60.9363 816.836 82.1528L816.709 82.3281C816.468 82.6871 816.307 83.0947 816.238 83.5232L812.157 108.896L811.734 108.815C797.887 106.273 789.633 114.602 793.09 128.427L793.203 128.879C796.82 142.968 805.495 149.533 818.294 147.074L818.559 147.622C826.967 164.952 840.103 177.246 858.965 181.332C880.209 185.955 893.83 180.597 902.279 168.376C903.555 166.53 904.664 164.602 905.734 162.452L906.132 161.64C906.33 161.229 906.53 160.806 906.741 160.349L907.922 157.761C910.704 151.446 914.547 130.527 915.335 113.11C916.48 87.7808 912.186 68.9797 900.407 60.8322C885.64 50.6185 874.455 46.4155 862.234 48.1803ZM896.994 65.7669C906.492 72.3367 910.399 89.4419 909.341 112.839L909.287 113.936C908.423 130.452 904.814 149.933 902.455 155.29L901.501 157.383C901.085 158.291 900.733 159.036 900.363 159.778C899.412 161.688 898.442 163.375 897.344 164.964C890.278 175.183 879.111 179.576 860.238 175.468C842.492 171.624 830.363 159.59 822.743 142.385C822.146 141.036 820.657 140.322 819.232 140.7L818.846 140.802C808.234 143.547 801.894 139.086 798.913 126.982C796.334 116.664 801.954 111.905 813.731 115.471L813.905 115.518C815.588 115.921 817.283 114.81 817.562 113.076L822.038 85.2415L823.001 84.028C838.091 65.1399 850.997 55.8653 863.091 54.1187C873.471 52.6198 883.356 56.3343 896.994 65.7669Z" fill="#2E186A"/>
<path fill-rule="evenodd" clip-rule="evenodd" d="M887.062 112.619C888.65 112.439 890.088 113.533 890.356 115.088L890.381 115.262L893.281 140.862C893.479 142.608 892.143 144.136 890.411 144.198L890.237 144.199L880.737 143.999C879.08 143.964 877.766 142.593 877.8 140.937C877.834 139.339 879.11 138.06 880.687 138.002L880.863 138.001L886.933 138.128L884.419 115.938C884.239 114.35 885.333 112.912 886.888 112.644L887.062 112.619Z" fill="#2E186A"/>
<path fill-rule="evenodd" clip-rule="evenodd" d="M898.5 120C900.101 120 901.4 118.03 901.4 115.6C901.4 113.17 900.101 111.2 898.5 111.2C896.898 111.2 895.6 113.17 895.6 115.6C895.6 118.03 896.898 120 898.5 120Z" fill="#2E186A"/>
<path fill-rule="evenodd" clip-rule="evenodd" d="M871 119.5C872.601 119.5 873.9 117.53 873.9 115.1C873.9 112.67 872.601 110.7 871 110.7C869.398 110.7 868.1 112.67 868.1 115.1C868.1 117.53 869.398 119.5 871 119.5Z" fill="#2E186A"/>
<path fill-rule="evenodd" clip-rule="evenodd" d="M896.733 86.776C898.523 86.4888 900.42 86.473 902.287 86.928C905.558 87.7252 908.074 89.8659 909.167 93.4177C909.654 95.0013 908.765 96.68 907.181 97.1673C905.654 97.6371 904.039 96.8275 903.489 95.3492L903.432 95.1822C902.997 93.7701 902.185 93.0787 900.867 92.7574C899.89 92.5194 898.752 92.5288 897.683 92.7003L897.442 92.7419C897.338 92.7613 897.259 92.7779 897.209 92.7895L897.17 92.7992C895.569 93.2249 893.926 92.2719 893.5 90.6706C893.074 89.0694 894.027 87.4263 895.628 87.0006L895.87 86.9412C896.097 86.889 896.387 86.8314 896.733 86.776Z" fill="#2E186A"/>
<path fill-rule="evenodd" clip-rule="evenodd" d="M868.6 146.5C868.6 146.5 877.8 149.8 885.5 148.5C885.5 148.5 882.6 161.8 875.1 160.2C867.7 158.5 868.6 146.5 868.6 146.5Z" fill="#2E186A"/>
<path fill-rule="evenodd" clip-rule="evenodd" d="M773.5 32.5995C758.2 2.6995 733.7 0.0994942 705.4 5.79949C677.1 11.3995 661.3 49.4995 660.3 52.9995C648.8 94.1995 664 138.199 698 164.199C701.8 167.099 705.5 169.999 709.1 172.799C729.1 188.4 684.8 201.799 684.8 201.799C769.5 208.6 751 123.799 749.2 116.299C776.4 105.999 787.7 60.3995 773.5 32.5995Z" fill="#2E186A"/>
<path fill-rule="evenodd" clip-rule="evenodd" d="M819.1 91.7997C816.4 98.6997 808.6 102.1 801.7 99.3997L752.6 80.2997C745.7 77.5997 742.3 69.7997 745 62.8997C747.7 55.9997 755.5 52.5997 762.4 55.2997L811.5 74.3997C818.4 77.0997 821.8 84.8997 819.1 91.7997Z" fill="#FE7624"/>
<path fill-rule="evenodd" clip-rule="evenodd" d="M922.5 92.4997C922.2 71.6997 917.2 53.4997 904.7 41.4997C903 39.3997 900.7 37.5997 897.6 35.8997C887.4 29.2997 873.5 25.6997 855 26.3997C854.7 26.3997 854.3 26.4997 853.9 26.6997C851 26.9997 848.1 27.3997 845.3 27.9997C843.8 28.1997 842.3 28.5997 840.7 29.0997C835.4 30.4997 830.5 32.3997 825.9 34.4997C784.5 52.2997 768.3 84.3997 786.8 128.7C796.3 151.5 808.7 158.9 820.7 158.9V145.1C819.7 142.9 818 143.8 818 143.8C805.1 147.3 799.4 141.1 796 127.7C794.4 121.2 795.7 116.3 799.2 113.6C799.3 113.5 799.4 113.5 799.5 113.4C799.6 113.3 799.8 113.2 799.9 113.1C800 113 800.1 113 800.2 112.9C800.4 112.8 800.5 112.7 800.7 112.6C800.8 112.6 800.9 112.5 801 112.5C801.2 112.4 801.4 112.3 801.5 112.3C801.6 112.3 801.7 112.2 801.8 112.2C802 112.1 802.2 112.1 802.4 112C802.5 112 802.5 112 802.6 111.9C803.7 111.6 804.9 111.4 806.2 111.4H806.3C806.6 111.4 806.9 111.4 807.2 111.4C807.3 111.4 807.3 111.4 807.4 111.4C807.7 111.4 808 111.4 808.3 111.4C808.4 111.4 808.4 111.4 808.5 111.4C808.8 111.4 809.2 111.5 809.5 111.5H809.6C811.1 111.7 812.8 112.1 814.5 112.6C815.6 112.9 814.8 113.4 816 113.9L819 113.7C820 113.7 821.1 113.6 822.2 113.5C848.3 110.4 888.9 91.6997 903.3 67.6997C913.5 80.0997 914.6 104.4 912.7 125C918.9 115.3 922.7 104.4 922.5 92.4997Z" fill="#2E186A"/>
<path fill-rule="evenodd" clip-rule="evenodd" d="M860.717 84.8527C863.995 82.4456 868.043 81.2443 872.734 81.9308C874.373 82.1707 875.508 83.6942 875.268 85.3336C875.028 86.973 873.505 88.1075 871.865 87.8676C868.839 87.4247 866.343 88.1656 864.267 89.6893C863.681 90.1195 863.179 90.5793 862.766 91.032L862.594 91.2252C862.495 91.3398 862.427 91.4245 862.391 91.472L862.371 91.5005C861.431 92.8652 859.563 93.2097 858.198 92.2701C856.834 91.3305 856.489 89.4626 857.429 88.0979L857.588 87.8768C857.77 87.6349 858.019 87.3325 858.335 86.9863C859.003 86.2538 859.796 85.5286 860.717 84.8527Z" fill="white"/>
<path fill-rule="evenodd" clip-rule="evenodd" d="M940.2 274.299L933.9 240.899C931.3 227.299 918.2 218.399 904.7 220.899L895.1 222.699C888.7 188.899 856.2 166.699 822.4 172.999C788.6 179.399 766.4 211.899 772.7 245.699L763.1 247.499C749.5 250.099 740.6 263.199 743.1 276.699L749.4 310.099C783.2 303.699 815.8 325.999 822.1 359.799C828.5 393.599 806.2 426.199 772.4 432.599L776.6 454.699C779.2 468.299 792.3 477.199 805.8 474.699L947.4 447.999C961 445.399 969.9 432.299 967.4 418.799L963.2 396.699C929.4 403.099 896.8 380.799 890.5 346.999C884.1 313.299 906.3 280.699 940.2 274.299Z" fill="#FEBA91"/>
<path fill-rule="evenodd" clip-rule="evenodd" d="M806 451.4C819.5 461 821.3 453.7 817.3 449.1C812.4 443.3 788.8 424.8 788.8 424.8C788.8 424.8 807.7 430.4 812.3 419.8C816.9 409.2 811.9 407.1 804.8 410.7C797.7 414.3 775.6 401.3 775.6 401.3L768.4 394.6C768.4 394.6 744.1 386.8 737.9 413.7C733.1 429.1 743.2 439.7 743.2 439.7C746.1 443 756.1 456 787.8 471.8C787.8 471.8 802.7 477.3 791.5 466.6C788.6 463.8 785.6 461.3 782.7 459.2" fill="white"/>
<path fill-rule="evenodd" clip-rule="evenodd" d="M751.42 392.091C756.503 390.259 761.819 390.181 766.77 391.127L767.324 391.238C768.207 391.423 768.884 391.604 769.317 391.743C769.666 391.855 769.992 392.03 770.277 392.259L770.444 392.403L777.397 398.873L777.83 399.121L778.574 399.539C778.966 399.756 779.386 399.987 779.831 400.228C781.955 401.376 784.216 402.525 786.512 403.595C788.538 404.539 790.496 405.375 792.346 406.076L793.133 406.368C798.185 408.199 801.972 408.769 803.443 408.024C808.058 405.684 812.222 405.255 814.939 407.69C817.875 410.32 817.685 414.926 815.052 420.994C812.754 426.289 807.76 428.798 801.242 429.216C800.787 429.245 800.328 429.264 799.867 429.273L799.218 429.278L800.422 430.254C801.697 431.29 802.956 432.321 804.187 433.337L806.109 434.932L808.081 436.583C813.656 441.282 817.579 444.836 819.429 446.973L819.564 447.131C822.613 450.638 823.368 455.515 819.986 457.994C816.65 460.438 811.31 458.857 804.261 453.844C802.911 452.884 802.595 451.011 803.555 449.661C804.515 448.311 806.388 447.994 807.739 448.954C810.685 451.05 813.094 452.333 814.875 452.86C815.316 452.991 815.69 453.066 815.992 453.096L816.136 453.107L816.122 453.036C815.999 452.505 815.677 451.864 815.18 451.242L815.008 451.035C813.373 449.1 809.056 445.217 802.949 440.109L801.576 438.965C798.378 436.31 794.948 433.526 791.518 430.784L789.549 429.215L786.949 427.16C784.39 425.154 786.406 421.127 789.486 421.878L790.104 422.046C790.191 422.069 790.288 422.094 790.394 422.12C791.033 422.28 791.755 422.441 792.542 422.592C795.377 423.134 798.245 423.395 800.858 423.228C805.361 422.94 808.31 421.458 809.548 418.605C810.527 416.348 811.017 414.547 811.07 413.276C811.089 412.818 811.048 412.482 810.975 412.264L810.936 412.159L810.894 412.143C810.875 412.137 810.847 412.129 810.808 412.119C810.604 412.07 810.305 412.057 809.921 412.096C809.009 412.19 807.829 412.563 806.494 413.208L806.157 413.375C802.542 415.208 797.229 414.34 790.222 411.687C788.223 410.93 786.131 410.036 783.979 409.034C781.565 407.909 779.2 406.708 776.977 405.505L776.078 405.015C775.791 404.856 775.515 404.703 775.254 404.556L774.447 404.098C774.286 404.006 774.163 403.934 774.079 403.885C773.954 403.811 773.834 403.729 773.721 403.638L773.556 403.496L766.892 397.294L766.807 397.273C766.547 397.209 766.262 397.145 765.957 397.082L765.643 397.021C761.659 396.259 757.377 396.322 753.454 397.736C747.381 399.925 742.963 405.09 740.823 414.373C740.806 414.447 740.787 414.52 740.764 414.592C738.59 421.567 739.573 427.922 742.548 433.475C743.192 434.678 743.88 435.738 744.562 436.64L744.808 436.958C745.036 437.249 745.213 437.457 745.323 437.577L745.453 437.719L746.909 439.405C747.623 440.223 748.322 440.994 749.105 441.815C751.217 444.029 753.661 446.312 756.61 448.749C764.461 455.234 774.799 461.901 788.238 468.663L788.981 469.035L789.388 469.176L789.85 469.327L790.071 469.395L789.687 469.018L789.416 468.758C786.684 466.12 783.799 463.699 780.94 461.629C779.598 460.657 779.298 458.782 780.27 457.44C781.242 456.098 783.118 455.798 784.459 456.77C787.548 459.006 790.65 461.608 793.572 464.43L794.122 464.961C798.043 468.795 799.543 471.318 798.28 473.908C797.483 475.542 796.014 476.136 794.277 476.206C793.343 476.244 792.299 476.119 791.122 475.874C790.498 475.743 789.849 475.58 789.186 475.392L788.595 475.22C787.835 474.992 787.197 474.775 786.761 474.614C786.659 474.576 786.559 474.533 786.462 474.484C772.185 467.368 761.176 460.302 752.789 453.375C749.654 450.785 747.037 448.339 744.764 445.956C744.085 445.245 743.464 444.568 742.849 443.875L740.968 441.705L740.929 441.662C740.684 441.396 740.35 441.003 739.952 440.488L739.777 440.259C738.914 439.118 738.056 437.798 737.258 436.308C733.647 429.566 732.39 421.766 734.882 413.315L735.005 412.908L735.104 412.486C737.71 401.754 743.33 395.158 751.033 392.235L751.42 392.091Z" fill="#2E186A"/>
<path fill-rule="evenodd" clip-rule="evenodd" d="M784.9 436.999C789.6 440.499 809.4 451.599 814.1 458.699C818.8 465.799 812.9 468.099 796 455.899" fill="white"/>
<path fill-rule="evenodd" clip-rule="evenodd" d="M782.493 435.207C783.445 433.93 785.219 433.626 786.536 434.484L786.951 434.777C788.945 436.152 798.496 442.217 801.168 444.006L802.535 444.929C804.095 445.992 805.534 447.006 806.867 447.987C811.59 451.462 814.863 454.417 816.601 457.043C818.136 459.362 818.892 461.489 818.596 463.425C818.182 466.141 815.93 467.595 813.087 467.536C808.983 467.451 802.525 464.31 794.244 458.332C792.9 457.362 792.597 455.487 793.567 454.143C794.537 452.8 796.412 452.497 797.756 453.467L798.638 454.097C804.605 458.318 809.311 460.755 812.052 461.378L812.23 461.415L812.146 461.26C812.028 461.044 811.889 460.807 811.725 460.551L811.598 460.355C810.359 458.484 807.497 455.9 803.311 452.819C801.857 451.749 800.259 450.63 798.499 449.441L797.338 448.665C794.057 446.505 784.418 440.381 783.108 439.405C781.779 438.416 781.504 436.536 782.493 435.207Z" fill="#2E186A"/>
<path fill-rule="evenodd" clip-rule="evenodd" d="M777.6 444.6C778.1 445.5 810.5 463 808.4 467.6C806.7 471.4 802.1 471.6 784.1 460.2L769.7 450.2" fill="white"/>
<path fill-rule="evenodd" clip-rule="evenodd" d="M776.143 441.977C777.269 441.351 778.624 441.527 779.55 442.318L779.669 442.427L780.02 442.66L781.027 443.288C781.556 443.612 782.21 444.006 783.353 444.69L787.267 447.036C790.105 448.745 792.088 449.963 794.331 451.382L794.653 451.586C795.763 452.29 796.821 452.974 797.831 453.639L798.578 454.134C802.229 456.566 805.137 458.702 807.236 460.548L807.53 460.81C810.848 463.796 812.374 466.116 811.138 468.824C809.548 472.379 806.28 473.667 801.637 472.51C797.635 471.513 791.895 468.626 783.551 463.399L782.494 462.734L782.388 462.663L767.988 452.663C766.627 451.718 766.29 449.849 767.235 448.488C768.145 447.178 769.913 446.816 771.257 447.635L771.411 447.735L785.763 457.701L786.206 457.981C794.172 463 799.558 465.751 802.882 466.635L803.087 466.688C804.194 466.964 804.768 467.054 805.115 466.955L805.154 466.941L805.126 466.905C804.801 466.507 804.337 466.024 803.744 465.478L803.516 465.27C801.74 463.672 799.097 461.707 795.718 459.439L795.252 459.128C794.299 458.493 793.295 457.838 792.239 457.163L791.438 456.652C789.105 455.172 787.1 453.938 784.157 452.167L777.778 448.334L777.078 447.899C776.778 447.71 776.532 447.55 776.331 447.414C776.152 447.292 776 447.182 775.864 447.074C775.483 446.771 775.249 446.546 774.977 446.056C774.172 444.608 774.694 442.781 776.143 441.977Z" fill="#2E186A"/>
<path fill-rule="evenodd" clip-rule="evenodd" d="M924.299 421.399C908.499 426.499 908.999 419.099 914.199 415.799C920.699 411.699 948.699 401.099 948.699 401.099C948.699 401.099 928.999 400.799 927.799 389.299C926.599 377.799 931.999 377.299 937.699 382.899C943.399 388.499 968.399 382.599 968.399 382.599L977.299 378.399C977.299 378.399 1002.8 378.199 1000.8 405.699C1000.8 421.899 987.999 428.899 987.999 428.899C984.299 431.199 970.799 440.599 935.799 446.299C935.799 446.299 919.899 447.099 933.799 440.199C937.399 438.399 940.999 436.999 944.399 435.799" fill="white"/>
<path fill-rule="evenodd" clip-rule="evenodd" d="M977.059 375.409L977.276 375.399L977.579 375.402C977.85 375.408 978.197 375.423 978.612 375.453C979.521 375.516 980.52 375.632 981.587 375.811C984.606 376.32 987.625 377.243 990.47 378.696C999.497 383.307 1004.65 392.056 1003.83 405.401L1003.8 405.824L1003.8 406.244C1003.68 413.662 1001.15 419.898 996.995 424.947L996.688 425.314C995.138 427.142 993.479 428.68 991.811 429.943C991.043 430.526 990.388 430.966 989.887 431.272L989.528 431.48L988.481 432.143C987.919 432.497 987.416 432.807 986.872 433.133C985.404 434.015 983.858 434.875 982.119 435.759C977.51 438.103 972.085 440.337 965.591 442.428C957.221 445.123 947.506 447.432 936.282 449.26L936.116 449.283L935.95 449.296C935.859 449.3 935.707 449.306 935.502 449.312C934.298 449.347 932.975 449.33 931.695 449.221C930.479 449.117 929.42 448.939 928.516 448.646C926.862 448.109 925.622 447.207 925.207 445.494C924.451 442.372 926.91 440.27 932.458 437.516C935.799 435.846 939.259 434.432 943.401 432.97C944.963 432.419 946.677 433.239 947.228 434.801C947.78 436.363 946.96 438.077 945.398 438.628C941.472 440.014 938.231 441.338 935.133 442.886L934.464 443.225L934.267 443.326L934.718 443.327L935.491 443.309L936.443 443.153C946.526 441.465 955.304 439.383 962.912 436.985L963.752 436.717C969.944 434.723 975.074 432.61 979.399 430.411C981.009 429.592 982.433 428.8 983.786 427.988C984.163 427.762 984.52 427.543 984.898 427.308L986.416 426.352L986.758 426.149L986.937 426.037C987.308 425.801 987.729 425.509 988.187 425.161C989.52 424.151 990.86 422.91 992.111 421.434C995.575 417.348 997.68 412.322 997.795 406.225L997.799 405.699L997.807 405.482C998.622 394.282 994.762 387.626 987.741 384.04C985.487 382.888 983.043 382.141 980.59 381.728C979.866 381.606 979.185 381.521 978.561 381.467L978.017 381.426L977.926 381.42L969.68 385.312C969.554 385.372 969.423 385.423 969.29 385.464L969.088 385.519L968.541 385.644C968.198 385.721 967.814 385.804 967.394 385.893L967.071 385.96C965.509 386.286 963.802 386.611 962.002 386.914C958.806 387.453 955.67 387.865 952.713 388.1C944.501 388.75 938.675 388.063 935.597 385.039C934.413 383.876 933.297 383.069 932.382 382.671C932.027 382.516 931.737 382.439 931.527 382.423L931.395 382.422C931.399 382.42 931.382 382.434 931.328 382.508C931.194 382.693 931.054 383.001 930.934 383.444C930.602 384.672 930.528 386.539 930.783 388.988C931.142 392.429 934.063 394.906 939.124 396.504C941.215 397.165 943.489 397.609 945.769 397.872C946.41 397.946 947.012 398.001 947.567 398.04L947.973 398.066C948.304 398.085 948.545 398.095 948.684 398.098L948.745 398.1C951.992 398.149 952.826 402.565 949.929 403.836L945.418 405.574L944.189 406.052C940.529 407.478 936.869 408.932 933.399 410.349L931.057 411.311L928.425 412.41C922.205 415.034 917.744 417.11 915.807 418.332C915.048 418.814 914.454 419.413 914.139 419.951L914.107 420.008C914.375 420.073 914.709 420.116 915.113 420.133L915.365 420.14C917.229 420.165 919.922 419.66 923.378 418.544C924.955 418.035 926.645 418.901 927.154 420.478C927.663 422.055 926.798 423.745 925.221 424.254C916.965 426.919 911.408 426.845 908.961 423.531C906.478 420.169 908.646 415.771 912.599 413.262L912.983 413.026C915.533 411.497 920.361 409.281 927.054 406.478L929.639 405.405C931.609 404.594 933.648 403.769 935.721 402.941L937.431 402.26L937.317 402.226C930.357 400.028 925.652 396.105 924.856 389.955L924.816 389.611C924.129 383.026 925.333 378.574 928.929 376.952C932.257 375.451 936.101 377.123 939.802 380.759C941.149 382.083 945.785 382.63 952.239 382.118C955.003 381.899 957.97 381.51 961.004 380.998C962.724 380.708 964.357 380.397 965.848 380.086L966.722 379.901L967.411 379.747L976.019 375.686C976.347 375.532 976.699 375.438 977.059 375.409Z" fill="#2E186A"/>
<path fill-rule="evenodd" clip-rule="evenodd" d="M948.799 413.899C943.199 415.799 921.099 420.499 914.399 425.899C907.799 431.199 912.699 435.299 932.499 428.699" fill="white"/>
<path fill-rule="evenodd" clip-rule="evenodd" d="M947.836 411.058C949.405 410.526 951.108 411.366 951.641 412.935C952.154 414.448 951.391 416.086 949.929 416.679L949.764 416.74C948.299 417.237 935.927 420.544 932.142 421.678L930.558 422.161C923.495 424.349 918.564 426.396 916.278 428.238C915.954 428.499 915.679 428.743 915.452 428.962L915.344 429.068L915.376 429.073C918.194 429.381 923.686 428.437 931.067 426.013L931.551 425.853C933.123 425.329 934.822 426.179 935.346 427.751C935.87 429.322 935.02 431.021 933.448 431.545L932.362 431.902C923.222 434.852 916.49 435.776 912.688 434.635C909.969 433.82 908.275 431.746 908.695 429.041C908.996 427.098 910.361 425.295 912.517 423.563C915.713 420.988 921.471 418.641 929.82 416.111L931.085 415.734C935.267 414.515 945.111 411.872 947.438 411.182L947.836 411.058Z" fill="#2E186A"/>
<path fill-rule="evenodd" clip-rule="evenodd" d="M953.5 423.399C952.7 424.099 916.6 431.099 917.2 436.099C917.7 440.199 922.1 441.799 942.6 436.299L959.3 430.999" fill="white"/>
<path fill-rule="evenodd" clip-rule="evenodd" d="M952.305 420.647C953.47 420.141 954.876 420.417 955.757 421.424C956.848 422.671 956.721 424.566 955.475 425.657L955.263 425.839C954.892 426.146 954.641 426.267 953.729 426.513L951.982 426.96L944.637 428.727C942.098 429.343 940.066 429.852 938.043 430.382L936.133 430.89C930.649 432.369 926.307 433.747 923.324 435.014C922.234 435.477 921.362 435.912 920.739 436.295L920.518 436.436L920.536 436.449C920.825 436.632 921.355 436.723 922.358 436.791L922.58 436.805C925.998 437.011 932.017 436.008 941.252 433.554L941.756 433.418L958.392 428.14C959.914 427.657 961.537 428.452 962.1 429.925L962.159 430.092C962.642 431.615 961.846 433.237 960.373 433.801L960.207 433.859L943.507 439.159L943.376 439.197L941.588 439.67C932.438 442.049 926.267 443.039 922.218 442.794C917.443 442.506 914.69 440.31 914.22 436.457C913.85 433.368 916.147 431.58 920.66 429.628L920.978 429.492C924.148 428.145 928.491 426.754 933.915 425.275L936.131 424.681C938.836 423.967 941.488 423.31 945.235 422.411L950.914 421.041L951.738 420.828L952.196 420.697L952.305 420.647Z" fill="#2E186A"/>
<path fill-rule="evenodd" clip-rule="evenodd" d="M1477.5 289.399C1477.8 234.799 1398.1 215.999 1398.1 215.999C1404.1 188.899 1401.4 121.799 1287.8 142.299C1229.6 152.399 1213.2 182.899 1225.6 207.599C1203 218.799 1146.5 299.799 1146.5 299.799L1147.6 369.399C1143.4 368.499 1139 367.999 1134.5 367.999C1098.8 367.799 1069.6 396.699 1069.5 432.499C1069.3 468.199 1101.2 500.199 1137 500.399C1141.3 500.399 1145.5 499.999 1149.6 499.099V500.399L1458.3 499.599C1458.3 499.599 1459.8 437.699 1452.4 372.099C1465.3 342.399 1477.5 309.199 1477.5 289.399Z" fill="#FE7624"/>
<path fill-rule="evenodd" clip-rule="evenodd" d="M1348.1 182.699L1368.7 194.099C1368.7 194.099 1315.1 217.199 1305.4 324.099C1299.1 393.499 1304.1 501.799 1304.1 501.799L1268.7 501.299C1268.7 501.299 1278.2 286.599 1262.8 251.599C1247.4 216.699 1264.4 214.499 1272.2 207.199C1280.1 199.999 1348.1 182.699 1348.1 182.699Z" fill="white"/>
<path fill-rule="evenodd" clip-rule="evenodd" d="M1123 477.999C1151.39 477.999 1174.4 454.987 1174.4 426.599C1174.4 398.212 1151.39 375.199 1123 375.199C1094.61 375.199 1071.6 398.212 1071.6 426.599C1071.6 454.987 1094.61 477.999 1123 477.999Z" fill="#2E186A"/>
<path fill-rule="evenodd" clip-rule="evenodd" d="M1310.4 475.599C1335.09 475.599 1355.1 455.586 1355.1 430.899C1355.1 406.212 1335.09 386.199 1310.4 386.199C1285.71 386.199 1265.7 406.212 1265.7 430.899C1265.7 455.586 1285.71 475.599 1310.4 475.599Z" fill="#2E186A"/>
<path fill-rule="evenodd" clip-rule="evenodd" d="M1347.1 279.2C1356 275.2 1384.3 242.8 1398.1 215.8C1409.6 215.6 1426.2 223.5 1433.4 229.1C1400.7 280.7 1347 279.2 1347.1 279.2Z" fill="#2E186A"/>
<path fill-rule="evenodd" clip-rule="evenodd" d="M1344.91 367.646C1350.93 366.199 1357.7 365.661 1364.9 366.559C1374.57 367.765 1383.99 371.467 1392.82 378.167C1399.92 383.562 1406.46 390.785 1412.33 399.986C1413.22 401.383 1412.81 403.237 1411.41 404.128C1410.02 405.019 1408.16 404.609 1407.27 403.212C1401.78 394.595 1395.71 387.9 1389.19 382.946C1381.23 376.901 1372.8 373.591 1364.16 372.513C1357.72 371.711 1351.67 372.192 1346.31 373.48C1345.24 373.736 1344.28 374.008 1343.44 374.279L1343.09 374.395C1342.56 374.573 1342.21 374.705 1342.06 374.767C1340.53 375.406 1338.77 374.684 1338.13 373.155C1337.49 371.626 1338.22 369.869 1339.74 369.231L1340.11 369.085C1341.14 368.682 1342.77 368.16 1344.91 367.646Z" fill="#2E186A"/>
<path fill-rule="evenodd" clip-rule="evenodd" d="M1344.76 363.924C1352.91 359.338 1362.27 356.893 1372.6 357.742C1385.95 358.838 1399.73 365.401 1413.65 378.407C1414.86 379.538 1414.92 381.436 1413.79 382.647C1412.66 383.858 1410.76 383.922 1409.55 382.791C1396.58 370.671 1384.05 364.702 1372.11 363.722C1363.06 362.979 1354.87 365.119 1347.7 369.153C1345.53 370.374 1343.63 371.679 1342 372.978L1341.47 373.414C1341.22 373.625 1340.98 373.827 1340.77 374.018L1340.32 374.431L1340.14 374.603C1338.98 375.784 1337.08 375.799 1335.9 374.637C1334.72 373.475 1334.7 371.575 1335.86 370.395L1336.08 370.183C1336.55 369.728 1337.27 369.079 1338.25 368.295C1340.12 366.8 1342.29 365.311 1344.76 363.924Z" fill="#2E186A"/>
<path fill-rule="evenodd" clip-rule="evenodd" d="M1451.81 372.31C1453.35 372.741 1454.27 374.296 1453.93 375.837L1453.88 376.053L1453.58 377.055L1453.25 378.135C1453.03 378.837 1452.79 379.602 1452.52 380.426L1452.35 380.928C1451.07 384.789 1449.51 389.087 1447.66 393.712C1442.38 406.925 1435.83 420.139 1427.93 432.491C1415.29 452.261 1400.4 467.905 1383.1 477.846C1362.28 489.808 1338.84 492.941 1312.86 485.706L1312.08 485.486L1311.68 485.381C1311.48 485.324 1311.23 485.255 1310.95 485.173L1310.74 485.109C1309.64 484.783 1308.42 484.383 1307.11 483.907C1303.37 482.546 1299.63 480.835 1296.12 478.737C1291.24 475.821 1287.19 472.387 1284.27 468.359C1283.3 467.017 1283.6 465.141 1284.94 464.169C1286.28 463.197 1288.16 463.498 1289.13 464.839C1291.52 468.136 1294.96 471.057 1299.19 473.586C1302.35 475.472 1305.76 477.029 1309.16 478.269C1310.18 478.64 1311.14 478.96 1312.02 479.228L1312.81 479.463C1313.14 479.559 1313.39 479.627 1313.55 479.668L1313.73 479.715C1338.44 486.784 1360.47 483.926 1380.11 472.643C1396.48 463.242 1410.71 448.279 1422.87 429.259C1430.55 417.253 1436.94 404.369 1442.09 391.484C1443.77 387.275 1445.21 383.35 1446.4 379.796L1446.66 379.04C1446.98 378.059 1447.27 377.162 1447.52 376.354L1447.91 375.092L1448.11 374.39C1448.56 372.794 1450.22 371.863 1451.81 372.31Z" fill="#2E186A"/>
<path fill-rule="evenodd" clip-rule="evenodd" d="M1370.32 303.215C1371.86 303.833 1372.6 305.58 1371.99 307.118L1370.82 309.986C1369.89 312.261 1368.85 314.797 1367.71 317.527L1366.08 321.426C1363.35 327.916 1360.58 334.346 1357.87 340.419L1356.74 342.927C1356.37 343.751 1356 344.563 1355.64 345.363L1355.09 346.554C1353.05 351.015 1351.14 355.033 1349.39 358.535C1349.1 359.107 1348.82 359.678 1348.53 360.246C1344.3 368.553 1339.77 376.117 1335.24 382.796C1333.65 385.139 1332.17 387.206 1330.84 388.979L1330.18 389.855L1329.39 390.863C1329.27 391.012 1329.19 391.123 1329.13 391.193C1328.08 392.478 1326.19 392.671 1324.91 391.625C1323.67 390.619 1323.45 388.833 1324.36 387.555L1324.48 387.404C1324.54 387.328 1324.67 387.162 1324.87 386.91L1325.41 386.205C1325.61 385.95 1325.82 385.674 1326.04 385.379L1326.75 384.423C1327.84 382.947 1329.02 381.278 1330.27 379.427C1334.67 372.947 1339.07 365.596 1343.18 357.525L1343.6 356.694L1344.02 355.857C1345.74 352.416 1347.62 348.457 1349.64 344.054L1350.72 341.677C1351.27 340.47 1351.83 339.235 1352.39 337.975C1355.35 331.341 1358.39 324.269 1361.36 317.159L1363.16 312.829C1363.7 311.532 1364.21 310.288 1364.7 309.106L1366.42 304.88C1367.04 303.343 1368.78 302.597 1370.32 303.215Z" fill="#2E186A"/>
<path fill-rule="evenodd" clip-rule="evenodd" d="M1349.7 139.399L1348.2 186.799C1348.4 193.099 1345.6 199.099 1340.8 203.199C1331.6 210.799 1314.8 225.899 1293.7 249.799C1293.7 249.799 1267.3 221.699 1262.9 177.899L1349.7 139.399Z" fill="white"/>
<path fill-rule="evenodd" clip-rule="evenodd" d="M1348.48 136.657L1261.68 175.157C1260.5 175.682 1259.79 176.909 1259.92 178.199C1261.73 196.262 1267.26 213.006 1275.35 228.144C1278.86 234.719 1282.62 240.552 1286.39 245.58C1287.58 247.171 1288.7 248.58 1289.72 249.802L1290.39 250.582C1290.9 251.18 1291.28 251.605 1291.51 251.853C1292.72 253.141 1294.78 253.11 1295.95 251.785C1313.59 231.804 1329.61 216.334 1342.71 205.512L1343.05 205.218C1348.3 200.567 1351.3 193.992 1351.21 187.142L1351.2 186.813L1352.7 139.494C1352.77 137.284 1350.51 135.76 1348.48 136.657ZM1346.55 144.078L1345.2 186.704L1345.2 186.894C1345.37 192.202 1343.02 197.354 1338.85 200.918L1338.22 201.445C1326.1 211.522 1311.58 225.445 1295.67 243.086L1293.74 245.239L1293.67 245.162C1292.9 244.211 1292.07 243.15 1291.19 241.981C1287.6 237.188 1284 231.611 1280.64 225.317L1280.18 224.447C1273.15 211.066 1268.22 196.403 1266.24 180.688L1266.12 179.752L1346.55 144.078Z" fill="#2E186A"/>
<path fill-rule="evenodd" clip-rule="evenodd" d="M1356.1 115C1356.1 115 1377 115.5 1373.2 134.2C1369.4 152.9 1346.3 142 1346.3 142L1349.5 115.4L1356.1 115Z" fill="white"/>
<path fill-rule="evenodd" clip-rule="evenodd" d="M1356.19 112.001C1356.1 111.999 1356.01 112 1355.92 112.005L1349.32 112.405C1347.87 112.493 1346.7 113.603 1346.52 115.042L1343.32 141.642C1343.17 142.924 1343.85 144.162 1345.02 144.713L1345.41 144.89C1346.38 145.323 1347.82 145.884 1349.6 146.442C1353.12 147.544 1356.66 148.195 1360.05 148.157C1368.3 148.062 1374.31 143.829 1376.14 134.797C1378.05 125.416 1374.66 118.815 1367.79 115.099C1365.45 113.835 1362.88 112.997 1360.22 112.488C1359.27 112.307 1358.37 112.18 1357.54 112.096L1357.09 112.056C1356.95 112.044 1356.82 112.034 1356.7 112.026L1356.19 112.001ZM1352.18 118.243L1356.14 118.003L1356.37 118.016C1357.03 118.058 1357.98 118.168 1359.09 118.381C1361.19 118.782 1363.19 119.436 1364.93 120.377C1369.56 122.877 1371.62 126.902 1370.26 133.603C1369.03 139.658 1365.58 142.093 1359.98 142.157C1357.31 142.188 1354.36 141.645 1351.39 140.716L1350.89 140.554C1350.55 140.445 1350.23 140.334 1349.92 140.222L1349.55 140.088L1352.18 118.243Z" fill="#2E186A"/>
<path fill-rule="evenodd" clip-rule="evenodd" d="M1296.7 55.5996C1291.2 55.0996 1253.4 52.5996 1249.1 84.0996C1244.8 115.6 1249.1 150.5 1252.6 166.4C1256 182.3 1328.5 175.3 1332.6 173.9C1336.7 172.5 1341.6 167.7 1341.6 167.7L1351.7 119.3C1351.7 119.3 1356 60.7996 1296.7 55.5996Z" fill="white"/>
<path fill-rule="evenodd" clip-rule="evenodd" d="M1287.42 52.4149C1281.96 52.6483 1276.6 53.4501 1271.58 54.9797C1257.55 59.2487 1248.2 68.4974 1246.13 83.6939C1242.44 110.705 1244.68 144.383 1249.67 167.045C1251.62 176.172 1266.83 179.488 1291.58 179.634L1293.31 179.638C1309.38 179.62 1330.13 177.913 1333.57 176.739C1334.28 176.497 1335 176.179 1335.74 175.793C1336.96 175.158 1338.22 174.346 1339.5 173.398C1340.54 172.622 1341.54 171.798 1342.47 170.974L1343.14 170.376C1343.37 170.156 1343.56 169.976 1343.7 169.843C1344.12 169.427 1344.42 168.894 1344.54 168.312L1354.64 119.912C1354.66 119.783 1354.68 119.652 1354.69 119.52L1354.72 118.957L1354.73 118.76C1354.75 118.185 1354.77 117.522 1354.77 116.779C1354.77 114.675 1354.67 112.33 1354.43 109.797C1353.75 102.56 1352.11 95.2338 1349.21 88.25C1340.96 68.3568 1324.39 55.2512 1297.77 52.6856L1296.96 52.6111C1294.3 52.3689 1291.1 52.2574 1287.42 52.4149ZM1296.43 58.5873C1321.23 60.7621 1336.16 72.4559 1343.67 90.5493C1346.31 96.9311 1347.83 103.682 1348.46 110.359C1348.65 112.436 1348.75 114.371 1348.77 116.124L1348.77 116.773C1348.77 117.438 1348.76 118.023 1348.74 118.523L1348.72 118.902L1338.86 166.156L1338.5 166.482C1337.68 167.199 1336.81 167.917 1335.92 168.581C1334.88 169.354 1333.88 169.999 1332.97 170.471C1332.48 170.725 1332.03 170.923 1331.63 171.061C1328.99 171.963 1308.31 173.654 1292.82 173.638L1292.35 173.637C1270.78 173.566 1256.55 170.546 1255.53 165.772C1250.68 143.741 1248.49 110.757 1252.07 84.5054C1253.8 71.8533 1261.38 64.3554 1273.32 60.7196C1277.82 59.3512 1282.69 58.6226 1287.68 58.4094C1291.07 58.2644 1294 58.3668 1296.43 58.5873Z" fill="#2E186A"/>
<path fill-rule="evenodd" clip-rule="evenodd" d="M1344.7 118.899C1341.1 122.399 1331.6 142.399 1329.2 151.699C1329.2 151.699 1305.7 143.699 1272 143.099C1272 143.099 1253.6 143.399 1246.3 145.499C1246.3 145.499 1247.7 178.599 1262.6 195.799C1277.4 212.999 1308.9 208.299 1323.7 198.099C1338.5 187.899 1341 182.999 1344.4 171.899C1347.9 160.899 1357.1 119.799 1357.1 119.799L1344.7 118.899Z" fill="#968BB4"/>
<path fill-rule="evenodd" clip-rule="evenodd" d="M1354.3 126C1354.3 126 1364.2 110.8 1368.1 94.9997C1371.7 80.0997 1364.9 64.4997 1351.1 57.7997C1339.6 52.1997 1331 56.4997 1331 56.4997C1331 56.4997 1343.3 35.6997 1325 17.1997C1318.6 10.6997 1309.6 7.09968 1300.5 7.29968C1278.1 7.89968 1271.1 26.7997 1271.1 26.7997C1271.1 26.7997 1247.3 -17.4003 1198 8.49968C1193 11.0997 1187.4 18.3997 1184.7 23.3997C1168.3 53.2997 1221.7 88.9997 1249.6 91.8997C1280.2 95.0997 1298.2 90.0997 1308 82.6997C1300.6 86.9997 1308.7 132.9 1354.3 126Z" fill="#2E186A"/>
<path fill-rule="evenodd" clip-rule="evenodd" d="M1291.05 164.264C1292.02 162.383 1294.3 161.573 1296.25 162.456C1298.26 163.367 1299.16 165.737 1298.24 167.75L1298.09 168.063C1297.92 168.406 1297.68 168.838 1297.38 169.336C1296.71 170.404 1295.91 171.468 1294.95 172.471C1290.55 177.071 1284.48 178.831 1277.37 175.897C1275.33 175.054 1274.36 172.715 1275.2 170.673C1276.05 168.631 1278.38 167.659 1280.43 168.502C1284.25 170.079 1286.91 169.308 1289.17 166.942C1289.72 166.366 1290.19 165.74 1290.58 165.117L1290.76 164.816L1290.96 164.45L1291.05 164.264Z" fill="#2E186A"/>
<path fill-rule="evenodd" clip-rule="evenodd" d="M1268.31 129.448C1268.84 127.302 1271.01 125.989 1273.15 126.514C1275.23 127.023 1276.53 129.072 1276.13 131.15L1276.09 131.351L1271.08 151.784L1279.3 152.62C1281.44 152.836 1283.01 154.688 1282.89 156.804L1282.88 157.004C1282.66 159.135 1280.81 160.705 1278.7 160.594L1278.5 160.579L1265.7 159.279C1263.35 159.04 1261.73 156.835 1262.17 154.544L1262.21 154.348L1268.31 129.448Z" fill="#2E186A"/>
<path fill-rule="evenodd" clip-rule="evenodd" d="M1262.76 126.554C1262.77 124.013 1261.44 121.948 1259.78 121.941C1258.12 121.934 1256.77 123.987 1256.76 126.528C1256.75 129.068 1258.09 131.134 1259.74 131.141C1261.4 131.148 1262.75 129.094 1262.76 126.554Z" fill="#2E186A"/>
<path fill-rule="evenodd" clip-rule="evenodd" d="M1291.19 126.222C1291.2 123.681 1289.87 121.616 1288.21 121.609C1286.55 121.602 1285.2 123.655 1285.19 126.196C1285.18 128.736 1286.51 130.802 1288.17 130.809C1289.83 130.816 1291.18 128.762 1291.19 126.222Z" fill="#2E186A"/>
<path fill-rule="evenodd" clip-rule="evenodd" d="M1289.53 100.34C1294.59 99.6179 1298.98 100.934 1302.55 103.544C1303.55 104.28 1304.42 105.069 1305.16 105.868L1305.49 106.233C1305.79 106.582 1306.02 106.88 1306.18 107.109C1307.44 108.92 1307 111.414 1305.19 112.679C1303.44 113.903 1301.05 113.528 1299.75 111.861L1299.58 111.641C1299.53 111.576 1299.43 111.454 1299.28 111.289C1298.88 110.857 1298.39 110.416 1297.83 110.002C1295.93 108.616 1293.7 107.913 1291.02 108.214L1290.67 108.259C1288.48 108.572 1286.45 107.052 1286.14 104.865C1285.83 102.678 1287.35 100.652 1289.53 100.34Z" fill="#2E186A"/>
<path fill-rule="evenodd" clip-rule="evenodd" d="M1256.68 99.7329C1258.74 99.2377 1260.82 99.2601 1262.79 99.5788L1263.22 99.6549C1263.56 99.7186 1263.83 99.782 1264.04 99.8367C1266.17 100.409 1267.44 102.603 1266.86 104.737C1266.31 106.804 1264.23 108.056 1262.16 107.612L1261.85 107.538C1261.77 107.522 1261.65 107.5 1261.5 107.476C1260.5 107.312 1259.42 107.301 1258.54 107.513C1257.52 107.756 1256.94 108.21 1256.58 109.204L1256.52 109.396C1255.86 111.504 1253.61 112.678 1251.5 112.017C1249.4 111.356 1248.22 109.112 1248.88 107.004C1250.13 103.026 1253 100.614 1256.68 99.7329Z" fill="#2E186A"/>
<path fill-rule="evenodd" clip-rule="evenodd" d="M1286 204.699L1139.9 204.099C1125.9 203.999 1114.5 215.399 1114.4 229.399L1114.3 263.799C1079.4 263.599 1051 291.799 1050.9 326.699C1050.7 361.599 1078.9 389.999 1113.8 390.099L1113.7 412.899C1113.6 426.899 1125 438.299 1139 438.399L1285.1 438.999C1299.1 439.099 1310.5 427.699 1310.6 413.699L1311.4 230.199C1311.3 216.199 1300 204.799 1286 204.699Z" fill="#FEBA91"/>
<path fill-rule="evenodd" clip-rule="evenodd" d="M1103.3 425.7C1103.4 425.3 1125.4 399.6 1126.1 400.2C1126.8 400.8 1156.9 414.2 1157.6 415.3C1158.3 416.3 1159.4 422.4 1156.4 428C1153.4 433.6 1150 446.5 1136.4 447.5C1122.8 448.5 1103.3 425.7 1103.3 425.7Z" fill="white"/>
<path fill-rule="evenodd" clip-rule="evenodd" d="M1143.4 406.1C1143.4 406.1 1146 388.4 1141.9 384.2C1137.8 380 1114.9 419.2 1107 421.9" fill="white"/>
<path fill-rule="evenodd" clip-rule="evenodd" d="M1137.53 382.246C1139.81 380.626 1142.14 380.151 1144.05 382.105C1146.38 384.49 1147.19 388.744 1147.21 394.694C1147.22 397.331 1147.06 400.131 1146.79 402.923L1146.68 404.018C1146.66 404.195 1146.64 404.368 1146.62 404.539L1146.43 406.06C1146.41 406.266 1146.38 406.426 1146.37 406.536C1146.13 408.175 1144.6 409.309 1142.96 409.068C1141.32 408.827 1140.19 407.303 1140.43 405.664L1140.51 405.113L1140.55 404.774C1140.64 404.042 1140.73 403.224 1140.82 402.341C1141.07 399.736 1141.22 397.129 1141.21 394.72C1141.2 391.765 1140.92 389.362 1140.49 387.845L1140.41 387.605L1140.33 387.674C1139.59 388.313 1138.68 389.244 1137.6 390.451L1136.7 391.483C1134.84 393.65 1133.09 395.878 1129.27 400.942L1124.48 407.308C1115.65 418.98 1111.65 423.48 1107.97 424.739C1106.4 425.275 1104.7 424.438 1104.16 422.87C1103.64 421.359 1104.4 419.719 1105.86 419.123L1106.03 419.061C1108.01 418.386 1112.26 413.515 1120 403.285L1124.23 397.669C1128.51 391.988 1130.31 389.699 1132.43 387.255L1132.82 386.803C1134.66 384.707 1136.19 383.203 1137.53 382.246Z" fill="#2E186A"/>
<path fill-rule="evenodd" clip-rule="evenodd" d="M1155.6 409.2C1155.6 409.2 1161.1 396.3 1153.8 390.1C1146.6 383.9 1128.7 419.2 1120.9 423.7" fill="white"/>
<path fill-rule="evenodd" clip-rule="evenodd" d="M1144.45 390.109C1148.6 386.312 1152.47 384.993 1155.74 387.814C1158.69 390.317 1160.19 393.765 1160.52 397.782C1160.76 400.805 1160.34 403.949 1159.49 407.036C1159.07 408.524 1158.66 409.679 1158.36 410.377C1157.71 411.901 1155.95 412.61 1154.42 411.96C1152.95 411.334 1152.24 409.673 1152.78 408.188L1152.99 407.632C1153.02 407.555 1153.05 407.469 1153.09 407.375C1153.3 406.799 1153.51 406.148 1153.7 405.438C1154.38 402.972 1154.72 400.492 1154.54 398.267C1154.34 395.842 1153.55 393.941 1152.06 392.567L1151.82 392.357C1151.8 392.346 1151.76 392.367 1151.5 392.453C1150.78 392.702 1149.74 393.399 1148.5 394.536C1146.18 396.66 1143.45 399.959 1139.8 404.922L1138.38 406.868L1133.34 413.879C1126.74 423.001 1125.21 424.675 1122.4 426.299C1120.96 427.127 1119.13 426.635 1118.3 425.2C1117.47 423.765 1117.97 421.93 1119.4 421.102L1119.54 421.017C1121.41 419.88 1123.33 417.517 1130.08 408.137L1132.94 404.156C1133.34 403.601 1133.72 403.085 1134.07 402.591L1134.6 401.865C1138.66 396.326 1141.68 392.647 1144.45 390.109Z" fill="#2E186A"/>
<path fill-rule="evenodd" clip-rule="evenodd" d="M1158.9 424C1158.9 424 1168.1 400.9 1161.7 396C1155.3 391.1 1144.8 421.1 1132.3 428" fill="white"/>
<path fill-rule="evenodd" clip-rule="evenodd" d="M1157.06 393.349C1159.23 392.124 1161.56 392.117 1163.52 393.618C1167.31 396.517 1167.69 402.21 1166.14 410.124C1165.68 412.455 1165.06 414.91 1164.31 417.428C1163.82 419.069 1163.3 420.657 1162.78 422.151L1162.52 422.891C1162.34 423.37 1162.18 423.811 1162.03 424.211L1161.69 425.11C1161.07 426.649 1159.33 427.4 1157.79 426.787C1156.25 426.174 1155.5 424.429 1156.11 422.89L1156.31 422.371L1156.63 421.514C1156.71 421.308 1156.79 421.093 1156.87 420.868C1157.44 419.259 1158.02 417.519 1158.56 415.715C1159.26 413.37 1159.83 411.096 1160.25 408.97L1160.4 408.162C1161.28 403.262 1161.09 399.806 1160.12 398.616L1160.06 398.55L1160.02 398.572C1159.38 398.931 1158.5 399.77 1157.43 401.08L1157.21 401.349L1156.84 401.823C1155.96 402.964 1154.98 404.36 1153.77 406.19L1152.77 407.713C1151.7 409.366 1149.42 412.917 1148.66 414.074L1147.96 415.134C1142.52 423.295 1138.42 428.05 1133.75 430.626C1132.3 431.427 1130.47 430.9 1129.67 429.45C1128.87 427.999 1129.4 426.174 1130.85 425.374C1134.41 423.41 1138.07 419.151 1142.99 411.762L1144.09 410.103C1145.28 408.264 1147.68 404.534 1148.21 403.717L1148.81 402.808C1150.27 400.612 1151.42 398.979 1152.52 397.601C1154.13 395.59 1155.58 394.19 1157.06 393.349Z" fill="#2E186A"/>
<path fill-rule="evenodd" clip-rule="evenodd" d="M1108.7 421.1C1107.7 416.1 1108.2 410.9 1110.2 406.3C1112.5 400.9 1115.2 393.7 1115.4 389C1115.8 380.9 1102.6 384.7 1102 389.7C1101.4 394.7 1098.9 394.4 1093.1 399.6C1087.3 404.7 1088.4 425.1 1088.4 425.1C1088.4 425.1 1083.3 435.6 1099.7 448.1C1116.1 460.6 1133.7 450.9 1133.7 450.9C1133.7 450.9 1165.5 439.2 1165.5 416.3C1165.5 393.4 1157.1 426.8 1141.2 436.2" fill="white"/>
<path fill-rule="evenodd" clip-rule="evenodd" d="M1108.57 381.479C1114.11 380.543 1118.69 383.253 1118.4 389.127C1118.22 393.389 1116.39 399.243 1113.46 406.278L1112.95 407.496C1111.21 411.498 1110.75 416.072 1111.64 420.511C1111.97 422.136 1110.91 423.716 1109.29 424.041C1107.66 424.366 1106.08 423.313 1105.76 421.688C1104.67 416.243 1105.18 410.617 1107.23 405.621L1107.88 404.071C1110.57 397.635 1112.26 392.232 1112.4 388.852C1112.47 387.442 1111.77 387.024 1109.58 387.395C1107.18 387.8 1105.07 389.299 1104.98 390.057C1104.63 392.981 1103.67 394.868 1101.76 396.582L1101.53 396.787C1101.32 396.963 1096.92 400.209 1095.08 401.853C1093.6 403.153 1092.4 406.895 1091.8 412.124C1091.37 415.75 1091.26 419.603 1091.33 423.082L1091.36 423.943C1091.37 424.428 1091.39 424.768 1091.4 424.938C1091.42 425.374 1091.35 425.808 1091.19 426.211L1091.1 426.41C1091.09 426.434 1091.02 426.624 1090.93 426.962C1090.47 428.694 1090.5 430.892 1091.42 433.483C1092.81 437.39 1096 441.509 1101.52 445.714C1102.46 446.429 1103.41 447.074 1104.38 447.652C1112.19 452.294 1120.55 452.429 1128.41 449.844C1129.34 449.536 1130.19 449.212 1130.95 448.887L1131.32 448.724C1131.74 448.534 1132.04 448.387 1132.19 448.304L1132.25 448.272C1132.34 448.224 1132.43 448.179 1132.52 448.14L1132.96 447.97C1133.16 447.89 1133.39 447.799 1133.65 447.694L1133.91 447.586C1134.94 447.151 1136.1 446.628 1137.35 446.018C1140.93 444.271 1144.51 442.182 1147.83 439.762C1157.07 433.036 1162.5 425.178 1162.5 416.3L1162.5 415.833L1162.49 414.805L1160.71 417.617C1158.96 420.401 1157.1 423.381 1156.12 424.847L1155.9 425.177C1151.58 431.484 1147.4 436.02 1142.73 438.782C1141.3 439.625 1139.46 439.153 1138.62 437.726C1137.77 436.3 1138.25 434.46 1139.67 433.617C1143.43 431.396 1147.08 427.436 1150.95 421.79L1151.14 421.5C1152.94 418.795 1158.88 409.047 1160.17 407.555C1161.06 406.522 1161.9 405.847 1163.01 405.553C1164.89 405.053 1166.55 406 1167.39 407.635C1168.22 409.227 1168.5 411.839 1168.5 416.3C1168.5 427.459 1162 436.87 1151.37 444.613C1147.73 447.257 1143.86 449.519 1139.98 451.41C1138.63 452.072 1137.36 452.642 1136.23 453.119L1135.41 453.452L1134.95 453.635L1134.78 453.724L1134.35 453.936C1133.44 454.375 1132.2 454.894 1130.67 455.413L1130.28 455.543C1120.92 458.624 1110.82 458.46 1101.32 452.809C1100.15 452.114 1099 451.34 1097.88 450.486C1091.48 445.608 1087.57 440.557 1085.77 435.488C1084.43 431.706 1084.37 428.285 1085.12 425.434C1085.2 425.16 1085.27 424.911 1085.35 424.688L1085.38 424.596L1085.36 424.127C1085.24 420.162 1085.34 415.698 1085.84 411.431C1086.59 404.964 1088.08 400.199 1090.87 397.569L1091.1 397.366C1093.18 395.497 1097.67 392.197 1097.63 392.229C1098.55 391.443 1098.84 390.897 1099.02 389.342C1099.5 385.37 1103.86 382.277 1108.57 381.479Z" fill="#2E186A"/>
<path fill-rule="evenodd" clip-rule="evenodd" d="M1308.5 428.599C1308.4 428.199 1286.4 402.499 1285.7 403.099C1285 403.699 1254.9 417.099 1254.2 418.199C1253.5 419.199 1252.4 425.299 1255.4 430.899C1258.4 436.499 1261.8 449.399 1275.4 450.399C1289 451.399 1308.5 428.599 1308.5 428.599Z" fill="white"/>
<path fill-rule="evenodd" clip-rule="evenodd" d="M1268.4 409C1268.4 409 1265.8 391.3 1269.9 387.1C1274 382.9 1296.9 422.1 1304.8 424.8" fill="white"/>
<path fill-rule="evenodd" clip-rule="evenodd" d="M1267.75 385.004C1269.66 383.05 1271.99 383.525 1274.27 385.146C1275.53 386.046 1276.96 387.432 1278.66 389.339L1279.37 390.154C1281.41 392.499 1283.14 394.701 1287.06 399.889L1291.8 406.185C1299.43 416.266 1303.67 421.143 1305.68 421.929L1305.77 421.961C1307.34 422.497 1308.18 424.202 1307.64 425.77C1307.1 427.338 1305.4 428.174 1303.83 427.638L1303.56 427.539C1299.95 426.153 1295.93 421.591 1287.32 410.208L1280.89 401.674C1278.02 397.897 1276.52 396.019 1274.85 394.093L1274.47 393.658C1273.37 392.405 1272.43 391.427 1271.66 390.739L1271.38 390.505L1271.38 390.524C1270.93 391.96 1270.63 394.31 1270.59 397.235L1270.59 397.619C1270.58 400.029 1270.73 402.635 1270.98 405.24C1271.03 405.77 1271.09 406.277 1271.14 406.755L1271.29 408.012C1271.33 408.268 1271.35 408.454 1271.37 408.564C1271.61 410.203 1270.48 411.727 1268.84 411.968C1267.2 412.208 1265.67 411.075 1265.43 409.436L1265.3 408.421L1265.18 407.438C1265.12 406.927 1265.06 406.387 1265.01 405.822C1264.74 403.031 1264.58 400.23 1264.59 397.594C1264.61 391.643 1265.43 387.39 1267.75 385.004Z" fill="#2E186A"/>
<path fill-rule="evenodd" clip-rule="evenodd" d="M1256.2 412.1C1256.2 412.1 1250.7 399.2 1258 393C1265.2 386.8 1283.1 422.1 1290.9 426.6" fill="white"/>
<path fill-rule="evenodd" clip-rule="evenodd" d="M1256.04 390.726C1259.33 387.892 1263.2 389.211 1267.35 393.008C1269.95 395.387 1272.77 398.77 1276.45 403.747L1277.73 405.49C1278.08 405.984 1278.46 406.5 1278.86 407.055L1282.96 412.755C1288.88 420.932 1290.6 422.965 1292.4 424.001C1293.83 424.829 1294.33 426.664 1293.5 428.099C1292.67 429.534 1290.84 430.026 1289.4 429.198L1288.9 428.899C1286.15 427.201 1284.35 424.977 1276.65 414.274L1273.42 409.767C1273.05 409.255 1272.7 408.774 1272.35 408.307L1271.65 407.346C1268.17 402.647 1265.55 399.491 1263.3 397.435C1262.06 396.298 1261.02 395.601 1260.3 395.352L1260.03 395.263C1260 395.255 1259.99 395.255 1259.97 395.262L1259.94 395.286C1258.32 396.66 1257.47 398.625 1257.26 401.166C1257.08 403.391 1257.42 405.871 1258.1 408.337C1258.26 408.905 1258.42 409.435 1258.59 409.919L1258.81 410.531L1258.96 410.923C1259.61 412.447 1258.9 414.209 1257.38 414.859C1255.85 415.509 1254.09 414.8 1253.44 413.276C1253.14 412.578 1252.73 411.423 1252.32 409.935C1251.46 406.848 1251.04 403.704 1251.28 400.681C1251.61 396.664 1253.11 393.216 1256.04 390.726Z" fill="#2E186A"/>
<path fill-rule="evenodd" clip-rule="evenodd" d="M1253 427C1253 427 1243.8 403.9 1250.2 399C1256.6 394.1 1267.1 424.1 1279.6 431" fill="white"/>
<path fill-rule="evenodd" clip-rule="evenodd" d="M1248.38 396.618C1250.34 395.117 1252.67 395.124 1254.84 396.349C1256.32 397.19 1257.77 398.59 1259.38 400.601L1259.82 401.167C1260.87 402.521 1261.99 404.134 1263.38 406.254L1268.26 413.78L1268.91 414.762C1273.83 422.151 1277.49 426.41 1281.05 428.374C1282.5 429.174 1283.03 430.999 1282.23 432.45C1281.43 433.9 1279.6 434.427 1278.15 433.626C1273.38 430.995 1269.2 426.092 1263.59 417.609L1262.19 415.451C1260.91 413.484 1259.11 410.676 1258.67 410.001L1258.13 409.19C1256.75 407.098 1255.67 405.574 1254.69 404.349C1253.59 402.975 1252.68 402.073 1252.01 401.65L1251.84 401.55L1251.79 401.616C1250.79 402.839 1250.61 406.46 1251.57 411.583L1251.65 411.97C1252.07 414.096 1252.64 416.37 1253.34 418.715C1253.79 420.218 1254.27 421.677 1254.75 423.053L1255.03 423.868C1255.15 424.205 1255.27 424.521 1255.38 424.815L1255.79 425.89C1256.4 427.429 1255.65 429.174 1254.11 429.787C1252.57 430.4 1250.83 429.649 1250.21 428.11L1249.98 427.502C1249.83 427.124 1249.68 426.703 1249.51 426.243L1249.38 425.891C1248.77 424.185 1248.16 422.343 1247.59 420.428C1246.84 417.91 1246.22 415.455 1245.76 413.124C1244.21 405.21 1244.59 399.517 1248.38 396.618Z" fill="#2E186A"/>
<path fill-rule="evenodd" clip-rule="evenodd" d="M1303.2 424C1304.2 419 1303.7 413.8 1301.7 409.2C1299.4 403.8 1296.7 396.6 1296.5 391.9C1296.1 383.8 1309.3 387.6 1309.9 392.6C1310.5 397.6 1313 397.3 1318.8 402.5C1324.6 407.7 1323.5 428 1323.5 428C1323.5 428 1328.6 438.5 1312.2 451C1295.8 463.5 1278.2 453.8 1278.2 453.8C1278.2 453.8 1246.4 442.1 1246.4 419.2C1246.4 396.3 1254.8 429.7 1270.7 439.1" fill="white"/>
<path fill-rule="evenodd" clip-rule="evenodd" d="M1293.5 392.048C1293.21 386.153 1297.79 383.443 1303.33 384.38C1308.04 385.177 1312.4 388.27 1312.88 392.243C1313.06 393.711 1313.32 394.28 1314.13 395.001L1314.27 395.13C1314.23 395.097 1318.72 398.398 1320.8 400.266C1323.73 402.893 1325.28 407.719 1326.06 414.299C1326.52 418.274 1326.65 422.419 1326.56 426.174L1326.53 427.225L1326.52 427.497L1326.56 427.588C1326.61 427.737 1326.65 427.897 1326.7 428.069L1326.78 428.334C1327.53 431.185 1327.47 434.606 1326.13 438.388C1324.34 443.457 1320.42 448.508 1314.02 453.386C1312.9 454.241 1311.75 455.014 1310.58 455.709C1301.08 461.36 1290.98 461.524 1281.62 458.443C1279.65 457.795 1278.12 457.136 1277.12 456.624L1276.95 456.535L1276.3 456.28L1275.67 456.019C1274.54 455.542 1273.27 454.972 1271.92 454.31C1268.04 452.42 1264.17 450.157 1260.53 447.513C1249.9 439.77 1243.4 430.359 1243.4 419.2C1243.4 414.74 1243.68 412.128 1244.51 410.535C1245.35 408.9 1247.01 407.953 1248.89 408.454C1250 408.747 1250.84 409.423 1251.73 410.455C1253.07 412.007 1259.45 422.488 1260.95 424.69C1264.82 430.336 1268.47 434.297 1272.23 436.518C1273.65 437.361 1274.13 439.2 1273.28 440.627C1272.44 442.053 1270.6 442.526 1269.17 441.682C1264.65 439.006 1260.58 434.666 1256.41 428.664L1256 428.078C1254.93 426.509 1252.23 422.147 1250.07 418.742L1249.41 417.705L1249.41 417.854C1249.41 418.17 1249.4 418.502 1249.4 418.848L1249.4 419.2C1249.4 428.078 1254.83 435.936 1264.07 442.662C1267.39 445.082 1270.97 447.172 1274.55 448.918C1275.62 449.441 1276.62 449.9 1277.54 450.294L1277.99 450.486C1278.26 450.599 1278.51 450.699 1278.73 450.786L1279.24 450.985C1279.33 451.019 1279.42 451.059 1279.51 451.103L1279.88 451.291C1280.05 451.375 1280.28 451.488 1280.59 451.625C1281.43 452.003 1282.4 452.386 1283.49 452.744C1291.35 455.33 1299.71 455.194 1307.52 450.552C1308.49 449.975 1309.44 449.33 1310.38 448.614C1315.9 444.41 1319.09 440.29 1320.48 436.383C1321.4 433.792 1321.43 431.595 1320.97 429.862L1320.91 429.637C1320.85 429.44 1320.81 429.329 1320.8 429.311C1320.58 428.853 1320.48 428.346 1320.5 427.838L1320.53 427.183C1320.54 427.081 1320.54 426.969 1320.54 426.848C1320.66 423.144 1320.56 418.939 1320.1 414.999C1319.49 409.801 1318.29 406.07 1316.8 404.734L1316.5 404.472C1314.54 402.784 1310.57 399.854 1310.37 399.687C1308.3 397.918 1307.29 395.998 1306.92 392.957C1306.83 392.199 1304.72 390.7 1302.32 390.295C1300.13 389.925 1299.43 390.342 1299.5 391.772C1299.64 395.133 1301.33 400.535 1304.01 406.954L1304.45 408.004C1306.69 413.142 1307.27 418.961 1306.14 424.588C1305.82 426.213 1304.24 427.267 1302.61 426.942C1300.99 426.617 1299.93 425.036 1300.26 423.412C1301.11 419.131 1300.72 414.725 1299.12 410.809L1298.43 409.161C1295.51 402.144 1293.68 396.291 1293.5 392.048Z" fill="#2E186A"/>
<path fill-rule="evenodd" clip-rule="evenodd" d="M1660.3 498.8C1661.96 498.8 1663.3 500.143 1663.3 501.8C1663.3 503.397 1662.05 504.703 1660.48 504.795L1660.3 504.8H3.7002C2.04334 504.8 0.700195 503.457 0.700195 501.8C0.700195 500.202 1.94912 498.896 3.52392 498.805L3.7002 498.8H1660.3Z" fill="#2E186A"/>
</svg>
