<svg width="1524" height="674" viewBox="0 0 1524 674" fill="none" xmlns="http://www.w3.org/2000/svg">
<path fill-rule="evenodd" clip-rule="evenodd" d="M960 0H731.3C704 0 681.9 22.1 681.9 49.4V217.1H699.9V49.7C699.9 35.3 711.9 23.6 726.8 23.6H778V34.5C778 38 781 40.9 784.6 40.9H879.2C882.9 40.9 885.8 38 885.8 34.5V23.6H937C951.9 23.6 963.9 35.3 963.9 49.7V230.9H981.6V45.9C981.6 24.8 963.9 7.7 942.1 7.7C940.4 7.7 939.1 6.4 939.1 4.7C939.1 3 940.4 1.7 942.1 1.7C967.2 1.7 987.6 21.5 987.6 45.9V230.9H1009.5V49.4C1009.5 22.1 987.3 0 960 0Z" fill="#2E186A"/>
<rect x="681.9" y="358.5" width="18" height="200.1" fill="#2E186A"/>
<path fill-rule="evenodd" clip-rule="evenodd" d="M963.9 289.1V424.9L981.6 428.1V289.1H963.9Z" fill="#2E186A"/>
<path fill-rule="evenodd" clip-rule="evenodd" d="M981.6 607V606.9V454.4L963.9 451.6V615C963.9 629.4 951.9 641.1 937 641.1H726.8C712.6 641.1 700.9 630.4 700 616.8H682C683.4 642.8 705.7 665.2 732 665.2L945.7 663.5C945.7 662.1 946.6 660.9 948 660.6C962.5 657.1 972.6 647.2 977.9 631.1C982 618.6 981.6 607.1 981.6 607Z" fill="#2E186A"/>
<path fill-rule="evenodd" clip-rule="evenodd" d="M987.6 289.1V430.8L998.5 441.8L987.6 449V606.8C987.6 607.9 987.9 619.7 983.7 632.7C978.9 647.5 970 658 957.9 663.5H960C987.3 663.5 1009.4 641.4 1009.4 614.1V289.1H987.6Z" fill="#2E186A"/>
<path fill-rule="evenodd" clip-rule="evenodd" d="M945.8 664.1C946.1 665.5 947.4 666.4 948.7 666.4C948.9 666.4 949.2 666.4 949.4 666.3C952.4 665.6 955.2 664.6 957.9 663.4H945.7C945.7 663.7 945.7 663.9 945.8 664.1Z" fill="#2E186A"/>
<path fill-rule="evenodd" clip-rule="evenodd" d="M899.755 193.611C900.632 192.206 902.483 191.777 903.889 192.655C921.192 203.456 940.905 209.031 966.244 209.4C967.9 209.424 969.224 210.787 969.2 212.443C969.176 214.1 967.813 215.423 966.156 215.399C939.745 215.015 918.962 209.137 900.711 197.744C899.306 196.867 898.878 195.016 899.755 193.611Z" fill="#2E186A"/>
<path fill-rule="evenodd" clip-rule="evenodd" d="M712.07 84.5776C725.288 82.5989 736.261 81.7104 747.985 82.1454C763.457 82.7193 778.101 85.7041 791.974 91.6865C804.479 97.0789 816.09 104.814 826.703 115.16C832.234 120.597 837.679 126.289 843.416 132.578C844.533 133.802 844.446 135.699 843.222 136.816C841.998 137.933 840.1 137.846 838.984 136.622C833.316 130.409 827.944 124.794 822.506 119.448C812.43 109.626 801.434 102.3 789.598 97.196C776.45 91.5262 762.53 88.689 747.763 88.1413C736.835 87.7359 726.527 88.5289 714.198 90.3282L712.947 90.5148C712.039 90.663 701.403 92.3312 698.255 92.7303L697.835 92.7811C696.188 92.9658 694.703 91.7808 694.519 90.1342C694.334 88.4877 695.519 87.0032 697.166 86.8185L697.895 86.7272C701.564 86.239 712.833 84.4634 712.07 84.5776Z" fill="#2E186A"/>
<path fill-rule="evenodd" clip-rule="evenodd" d="M697.156 470.72C708.479 469.414 721.429 469.16 735.313 470.617C736.961 470.79 738.157 472.266 737.984 473.914C737.811 475.561 736.335 476.757 734.687 476.584C721.272 475.176 708.754 475.422 697.844 476.681C696.198 476.871 694.71 475.69 694.52 474.044C694.33 472.398 695.51 470.91 697.156 470.72Z" fill="#2E186A"/>
<path fill-rule="evenodd" clip-rule="evenodd" d="M810.457 502.826C811.492 501.532 813.38 501.323 814.674 502.358C818.926 505.759 822.869 509.225 826.694 512.952L829.076 515.266C854.397 539.78 868.679 550.736 885.874 557.959C904.501 565.784 926.528 568.779 966.239 569.301C967.896 569.322 969.222 570.683 969.2 572.34C969.178 573.996 967.817 575.322 966.161 575.3C926.144 574.774 903.511 571.746 884.137 563.735L883.551 563.491C864.942 555.674 849.832 543.886 822.506 517.249C818.825 513.662 815.029 510.325 810.926 507.043C809.632 506.008 809.422 504.12 810.457 502.826Z" fill="#2E186A"/>
<path fill-rule="evenodd" clip-rule="evenodd" d="M900.3 131.1H769C767.067 131.1 765.5 132.667 765.5 134.6V265.9C765.5 267.833 767.067 269.4 769 269.4H900.3C902.233 269.4 903.8 267.833 903.8 265.9V134.6C903.8 132.667 902.233 131.1 900.3 131.1ZM896.8 138.099V262.399H772.5V138.099H896.8Z" fill="#FE7624"/>
<path fill-rule="evenodd" clip-rule="evenodd" d="M805.1 273.6H771.3C769.367 273.6 767.8 275.167 767.8 277.1V310.9C767.8 312.833 769.367 314.4 771.3 314.4H805.1C807.033 314.4 808.6 312.833 808.6 310.9V277.1C808.6 275.167 807.033 273.6 805.1 273.6ZM801.599 280.599V307.399H774.799V280.599H801.599Z" fill="#FE7624"/>
<path fill-rule="evenodd" clip-rule="evenodd" d="M802.625 274.625C803.992 273.258 806.208 273.258 807.575 274.625C808.893 275.943 808.94 278.05 807.716 279.425L807.575 279.574L773.775 313.374C772.408 314.741 770.192 314.741 768.825 313.374C767.507 312.056 767.46 309.949 768.684 308.574L768.825 308.425L802.625 274.625Z" fill="#FE7624"/>
<path fill-rule="evenodd" clip-rule="evenodd" d="M851.2 273.6H817.4C815.467 273.6 813.9 275.167 813.9 277.1V310.9C813.9 312.833 815.467 314.4 817.4 314.4H851.2C853.133 314.4 854.7 312.833 854.7 310.9V277.1C854.7 275.167 853.133 273.6 851.2 273.6ZM847.699 280.6V307.4H820.899V280.6H847.699Z" fill="#FE7624"/>
<path fill-rule="evenodd" clip-rule="evenodd" d="M848.725 274.625C850.092 273.258 852.308 273.258 853.675 274.625C854.993 275.943 855.04 278.05 853.816 279.425L853.675 279.574L819.875 313.374C818.508 314.741 816.292 314.741 814.925 313.374C813.607 312.056 813.56 309.949 814.784 308.574L814.925 308.425L848.725 274.625Z" fill="#FE7624"/>
<path fill-rule="evenodd" clip-rule="evenodd" d="M897.4 273.6H863.6C861.667 273.6 860.1 275.167 860.1 277.1V310.9C860.1 312.833 861.667 314.4 863.6 314.4H897.4C899.333 314.4 900.9 312.833 900.9 310.9V277.1C900.9 275.167 899.333 273.6 897.4 273.6ZM893.899 280.6V307.4H867.099V280.6H893.899Z" fill="#FE7624"/>
<path fill-rule="evenodd" clip-rule="evenodd" d="M894.925 274.625C896.292 273.258 898.508 273.258 899.875 274.625C901.193 275.943 901.24 278.05 900.016 279.425L899.875 279.574L866.075 313.374C864.708 314.741 862.492 314.741 861.125 313.374C859.807 312.056 859.76 309.949 860.984 308.574L861.125 308.425L894.925 274.625Z" fill="#FE7624"/>
<path fill-rule="evenodd" clip-rule="evenodd" d="M910.9 347H763.5C747.067 347 733.8 360.267 733.8 376.7V393.6C733.8 410.033 747.067 423.3 763.5 423.3H910.9C927.301 423.3 940.6 409.965 940.6 393.6V376.7C940.6 360.267 927.333 347 910.9 347ZM763.5 354H910.9C923.467 354 933.6 364.133 933.6 376.7V393.6C933.6 406.104 923.43 416.3 910.9 416.3H763.5C750.933 416.3 740.8 406.167 740.8 393.6V376.7C740.8 364.133 750.933 354 763.5 354Z" fill="#FE7624"/>
<path fill-rule="evenodd" clip-rule="evenodd" d="M909.9 430.2H762.5C746.067 430.2 732.8 443.467 732.8 459.9V476.8C732.8 493.233 746.067 506.5 762.5 506.5H909.9C926.301 506.5 939.6 493.166 939.6 476.8V459.9C939.6 443.467 926.333 430.2 909.9 430.2ZM762.5 437.2H909.9C922.467 437.2 932.6 447.333 932.6 459.9V476.8C932.6 489.304 922.43 499.5 909.9 499.5H762.5C749.933 499.5 739.8 489.367 739.8 476.8V459.9C739.8 447.333 749.933 437.2 762.5 437.2Z" fill="#FE7624"/>
<path fill-rule="evenodd" clip-rule="evenodd" d="M895.513 133.137C896.873 131.764 899.089 131.752 900.462 133.112C901.787 134.424 901.845 136.531 900.628 137.912L900.487 138.062L771.487 268.362C770.127 269.736 767.911 269.747 766.538 268.387C765.213 267.075 765.155 264.968 766.372 263.587L766.513 263.437L895.513 133.137Z" fill="#FE7624"/>
<path fill-rule="evenodd" clip-rule="evenodd" d="M722.7 214.1H520C506.243 214.1 495.1 225.243 495.1 239V336.6C495.1 350.356 506.243 361.5 520 361.5H722.7C736.439 361.5 747.6 350.374 747.6 336.7V239C747.6 225.243 736.457 214.1 722.7 214.1ZM520 220.1H722.7C733.143 220.1 741.6 228.556 741.6 239V336.7C741.6 347.056 733.13 355.5 722.7 355.5H520C509.557 355.5 501.1 347.043 501.1 336.6V239C501.1 228.556 509.557 220.1 520 220.1Z" fill="#2E186A"/>
<path fill-rule="evenodd" clip-rule="evenodd" d="M593.9 281.5H593.2C591.1 281.5 589.5 279.8 589.5 277.8V274.1C589.5 272 591.2 270.4 593.2 270.4H593.9C596 270.4 597.6 272.1 597.6 274.1V277.8C597.6 279.8 595.9 281.5 593.9 281.5Z" fill="#FE7624"/>
<path fill-rule="evenodd" clip-rule="evenodd" d="M581.3 281.5H535.4C532.6 281.5 530.4 279.3 530.4 276.5V275.4C530.4 272.6 532.6 270.4 535.4 270.4H581.3C584.1 270.4 586.3 272.6 586.3 275.4V276.5C586.3 279.3 584.1 281.5 581.3 281.5Z" fill="#2E186A"/>
<path fill-rule="evenodd" clip-rule="evenodd" d="M586.4 333.2H535.4C532.6 333.2 530.4 331 530.4 328.2V327.1C530.4 324.3 532.6 322.1 535.4 322.1H586.4C589.2 322.1 591.4 324.3 591.4 327.1V328.2C591.4 331 589.1 333.2 586.4 333.2Z" fill="#2E186A"/>
<path fill-rule="evenodd" clip-rule="evenodd" d="M635.4 316H550.9C548.1 316 545.9 313.8 545.9 311V309.9C545.9 307.1 548.1 304.9 550.9 304.9H635.4C638.2 304.9 640.4 307.1 640.4 309.9V311C640.4 313.8 638.1 316 635.4 316Z" fill="#FE7624"/>
<path fill-rule="evenodd" clip-rule="evenodd" d="M691.7 316H650.6C647.8 316 645.6 313.8 645.6 311V309.9C645.6 307.1 647.8 304.9 650.6 304.9H691.7C694.5 304.9 696.7 307.1 696.7 309.9V311C696.7 313.8 694.5 316 691.7 316Z" fill="#FE7624"/>
<path fill-rule="evenodd" clip-rule="evenodd" d="M710.3 298.8H709.6C707.5 298.8 705.9 297.1 705.9 295.1V291.4C705.9 289.3 707.6 287.7 709.6 287.7H710.3C712.4 287.7 714 289.4 714 291.4V295.1C714 297.1 712.4 298.8 710.3 298.8Z" fill="#2E186A"/>
<path fill-rule="evenodd" clip-rule="evenodd" d="M623.2 298.8H535.4C532.6 298.8 530.4 296.6 530.4 293.8V292.7C530.4 289.9 532.6 287.7 535.4 287.7H623.2C626 287.7 628.2 289.9 628.2 292.7V293.8C628.2 296.5 625.9 298.8 623.2 298.8Z" fill="#2E186A"/>
<path fill-rule="evenodd" clip-rule="evenodd" d="M652.1 281.5H606.2C603.4 281.5 601.2 279.3 601.2 276.5V275.4C601.2 272.6 603.4 270.4 606.2 270.4H652.1C654.9 270.4 657.1 272.6 657.1 275.4V276.5C657.1 279.3 654.8 281.5 652.1 281.5Z" fill="#2E186A"/>
<path fill-rule="evenodd" clip-rule="evenodd" d="M696.5 298.8H637.5C634.7 298.8 632.5 296.6 632.5 293.8V292.6C632.5 289.8 634.7 287.6 637.5 287.6H696.5C699.3 287.6 701.5 289.8 701.5 292.6V293.8C701.5 296.5 699.3 298.8 696.5 298.8Z" fill="#FE7624"/>
<path fill-rule="evenodd" clip-rule="evenodd" d="M540.9 246.2L555.3 237.5C555.5 237.4 555.8 237.3 556 237.3C556.4 237.3 556.7 237.4 557 237.7C557.3 238 557.4 238.3 557.4 238.7C557.4 239.2 557.2 239.6 556.7 240L544.3 247.4L556.7 254.8C557.2 255.1 557.4 255.5 557.4 256.1C557.4 256.5 557.3 256.8 557 257.1C556.7 257.4 556.4 257.5 556 257.5C555.7 257.5 555.5 257.4 555.3 257.3L540.9 248.6C540.4 248.3 540.1 247.8 540.1 247.3C540.1 247 540.4 246.5 540.9 246.2Z" fill="#2E186A"/>
<path fill-rule="evenodd" clip-rule="evenodd" d="M572.4 232C572.7 231.7 573 231.6 573.4 231.6C573.8 231.6 574.1 231.7 574.4 232C574.7 232.3 574.8 232.6 574.8 233C574.8 233.2 574.8 233.4 574.7 233.6L563.1 262.6C563 262.7 562.9 262.9 562.8 263C562.5 263.3 562.2 263.4 561.8 263.4C561.4 263.4 561.1 263.3 560.8 263C560.5 262.7 560.4 262.4 560.4 262C560.4 261.8 560.4 261.6 560.5 261.4L572.1 232.4C572.2 232.2 572.3 232.1 572.4 232Z" fill="#2E186A"/>
<path fill-rule="evenodd" clip-rule="evenodd" d="M595.2 247.5C595.2 248 594.9 248.5 594.4 248.8L580 257.5C579.8 257.6 579.5 257.7 579.3 257.7C578.9 257.7 578.6 257.6 578.3 257.3C578 257 577.9 256.7 577.9 256.3C577.9 255.8 578.1 255.4 578.6 255L591 247.6L578.6 240.2C578.1 239.9 577.9 239.5 577.9 238.9C577.9 238.5 578 238.2 578.3 237.9C578.6 237.6 578.9 237.5 579.3 237.5C579.6 237.5 579.8 237.6 580 237.7L594.4 246.4C594.9 246.5 595.2 247 595.2 247.5Z" fill="#2E186A"/>
<path fill-rule="evenodd" clip-rule="evenodd" d="M1242.3 550.7C1242.8 536.5 1235 523.4 1222.4 516.9L1191.2 499.8L1188.8 510.5C1186.2 522.2 1174.6 529.7 1162.8 527.1C1151.1 524.5 1143.6 512.9 1146.2 501.1L1149.3 487C1145.4 484.3 1142.3 480.6 1140.8 475.8C1140.5 474.9 1140.3 474 1140.1 473.1C1130.8 470.3 1120.8 470.5 1111.5 473.8L1065.1 490.3L1005.7 427.2L965.3 469.6L1040.7 556.3C1045.6 561.9 1053.4 563.9 1060.4 561.3L1073.2 555.5L1050.6 664.8L1071.3 665.2C1065.8 664.2 1068.5 659.8 1072.1 658.5C1074.4 657.7 1077.7 656.2 1080.5 655.1C1076.8 656.3 1072 658.1 1069.2 659.9C1065.6 661.3 1061.6 658.9 1061.2 657.7C1060.9 656.9 1062.3 655.4 1064.8 653.6L1063.9 654C1057 655.7 1053.7 655.3 1055.5 651.5C1056.8 648.9 1074.3 639.8 1077.7 638.8C1081.1 637.8 1111 633.5 1111 633.5L1118.7 665.3L1224.3 666C1235.2 666 1243.9 658.7 1243.8 647.8L1242.3 550.7ZM1189 618.9L1116.6 635C1116.4 635 1116.2 635.1 1115.9 635.1C1114.5 635.1 1113.3 634.1 1113 632.7C1112.6 631.1 1113.7 629.5 1115.3 629.1L1185.1 613.6L1182.5 577.5C1182.4 575.8 1183.6 574.4 1185.3 574.3C1187 574.2 1188.4 575.4 1188.5 577.1L1191.3 615.8C1191.4 617.2 1190.4 618.5 1189 618.9Z" fill="#2E186A"/>
<path fill-rule="evenodd" clip-rule="evenodd" d="M937.702 435.329L935.759 434.603C935.281 434.427 934.805 434.255 934.454 434.134L933.911 433.95L933.701 433.881L934.203 434.24L934.538 434.475C936.84 436.077 939.78 437.91 943.145 439.875L944.426 440.618C946.861 442.056 949.785 443.27 953.093 444.263C956.972 445.429 961.161 446.233 965.354 446.736C966.614 446.887 967.796 447.001 968.877 447.083L969.408 447.121C969.832 447.15 970.206 447.171 970.526 447.187L970.889 447.202C972.545 447.251 973.848 448.633 973.799 450.289C973.75 451.945 972.367 453.248 970.711 453.199L970.127 453.175C969.823 453.159 969.445 453.137 969 453.107C967.681 453.017 966.216 452.882 964.64 452.693C960.128 452.152 955.612 451.285 951.367 450.01C947.875 448.961 944.714 447.676 941.982 446.134L939.942 444.955C930.105 439.229 925.007 435.551 924.451 432.349C923.889 429.33 925.823 427.256 928.643 426.973C930.113 426.826 931.85 427.104 933.95 427.689C934.689 427.895 935.459 428.137 936.264 428.411L936.959 428.655C937.425 428.822 937.955 429.017 938.425 429.191L939.698 429.671C941.261 430.223 942.08 431.936 941.529 433.499C940.978 435.061 939.264 435.881 937.702 435.329Z" fill="#2E186A"/>
<path fill-rule="evenodd" clip-rule="evenodd" d="M927.944 425.511C927.111 420.698 930.941 417.9 935.76 418.606C939.791 419.197 944.203 421.987 947.651 426.336C948.68 427.634 948.462 429.521 947.164 430.551C945.865 431.58 943.978 431.362 942.949 430.063C940.403 426.851 937.314 424.898 934.89 424.543C934.707 424.516 934.542 424.501 934.397 424.494L934.216 424.489L934.309 424.589C934.686 424.989 935.17 425.471 935.748 426.021L936.001 426.26C937.712 427.87 940.077 429.931 942.7 432.101L943.827 433.027C948.954 437.212 953.918 440.887 956.257 442.177C960.946 444.782 967.538 446.907 975.873 448.237C976.602 448.354 977.26 448.734 977.724 449.303L977.846 449.463L982.746 456.363C983.705 457.714 983.388 459.586 982.037 460.546C980.738 461.468 978.957 461.21 977.969 459.988L977.854 459.837L973.676 453.954L973.359 453.9C965.35 452.496 958.792 450.354 953.826 447.686L953.351 447.426C950.556 445.884 945.197 441.91 939.683 437.389L938.121 436.098C931.58 430.657 928.252 427.465 927.944 425.511Z" fill="#2E186A"/>
<path fill-rule="evenodd" clip-rule="evenodd" d="M946.08 416.406C946.965 415.002 948.601 414.326 950.471 414.444C952.036 414.542 953.937 415.172 956.325 416.359L956.784 416.592L958.762 417.649C959.996 418.303 961.245 418.958 962.459 419.583L964.009 420.375C966.106 421.438 967.831 422.27 969.018 422.785L969.467 422.975L970.084 423.065C970.866 423.181 971.734 423.324 972.668 423.494C975.342 423.982 978.019 424.598 980.538 425.356C985.154 426.746 988.738 428.444 990.978 430.634L998.552 438.309L999.021 438.779C1000.19 439.951 1000.19 441.85 999.021 443.022C997.85 444.193 995.95 444.193 994.779 443.022L986.786 434.928C985.366 433.562 982.546 432.227 978.809 431.102C976.527 430.415 974.06 429.847 971.59 429.396C970.724 429.238 969.92 429.106 969.202 428.999L968.333 428.878C968.086 428.847 967.844 428.786 967.613 428.696L967.175 428.521C965.795 427.951 963.799 426.995 961.297 425.727L960.634 425.39C959.492 424.807 958.311 424.194 957.13 423.573L955.012 422.45L953.935 421.872L953.617 421.711L953.888 421.944C955.245 423.098 957.027 424.464 958.826 425.736L959.242 426.028C959.85 426.452 960.433 426.846 960.966 427.194L961.178 427.331L961.516 427.524L962.206 427.905C962.428 428.027 962.643 428.142 962.848 428.252L963.742 428.717C966.822 430.257 965.303 434.926 961.907 434.36C961.257 434.251 960.082 433.666 958.661 432.808L958.52 432.721L957.669 432.239C956.449 431.535 955.237 430.795 954.066 430.027L953.195 429.447C950.597 427.68 948.474 425.939 946.961 424.214C946.675 423.888 946.411 423.563 946.169 423.237L946.13 423.182C945.762 422.859 945.284 422.578 944.735 422.354L944.579 422.293L944.716 422.478C945.325 423.294 946.066 424.244 946.976 425.381L948.128 426.809C949.217 428.148 950.963 429.663 953.169 431.231C954.699 432.32 956.351 433.366 958.005 434.328L958.679 434.714C958.896 434.838 959.105 434.955 959.306 435.066L960.177 435.535C961.649 436.295 962.226 438.105 961.466 439.577C960.705 441.049 958.895 441.626 957.423 440.866L956.732 440.497C956.205 440.21 955.619 439.881 954.989 439.515C953.188 438.467 951.385 437.326 949.691 436.121C947.083 434.266 944.962 432.426 943.472 430.592L942.323 429.169C940.62 427.044 939.454 425.505 938.585 424.211C937.912 423.21 937.428 422.367 937.118 421.612C936.515 420.142 936.397 418.789 937.432 417.459C938.904 415.566 942.583 415.372 945.914 416.428L946.042 416.47L946.08 416.406Z" fill="#2E186A"/>
<path fill-rule="evenodd" clip-rule="evenodd" d="M1113.87 632.623L1113.92 632.794L1121.62 664.594C1122.06 666.425 1120.73 668.19 1118.88 668.295L1118.7 668.3L1075.5 668.299L1075.26 668.314C1069.57 668.625 1065.76 667.067 1065.3 663.435L1065.28 663.258L1065.17 663.243C1062.12 662.74 1059.35 661.049 1058.52 658.931L1058.45 658.749C1058.37 658.505 1058.32 658.26 1058.29 658.013L1058.28 657.954L1058.03 657.96C1057.26 657.968 1056.57 657.909 1055.95 657.777L1055.72 657.725C1052.14 656.839 1051.17 653.625 1052.82 650.159C1053.83 648.138 1057.77 645.541 1064.37 641.921L1065.47 641.32C1070.26 638.736 1075.01 636.464 1076.85 635.922L1077.16 635.839C1078.92 635.39 1083.69 634.582 1091.07 633.439L1093.74 633.028L1099.43 632.168L1106.47 631.127L1110.57 630.531C1112.05 630.319 1113.44 631.217 1113.87 632.623ZM1114.89 662.299L1108.73 636.86L1106.18 637.233C1103.23 637.667 1100.28 638.105 1097.44 638.534L1092.07 639.355C1084.8 640.483 1079.82 641.329 1078.61 641.659L1078.55 641.678C1077.16 642.087 1072.25 644.454 1067.59 646.998L1067.26 647.18C1064.68 648.593 1062.39 649.943 1060.69 651.066L1060.12 651.444C1060.03 651.505 1059.95 651.565 1059.86 651.624L1059.59 651.815L1059.64 651.808C1060.43 651.693 1061.36 651.514 1062.43 651.267L1063.21 651.08L1063.44 650.925C1064.78 650.016 1066.33 649.128 1068.04 648.277L1068.38 648.107C1069.38 647.614 1070.47 647.11 1071.63 646.599C1073.75 645.667 1076.02 644.752 1078.28 643.89L1079.2 643.542C1079.49 643.431 1079.78 643.324 1080.05 643.223L1081.3 642.771C1082.87 642.22 1084.58 643.041 1085.13 644.604C1085.66 646.111 1084.92 647.758 1083.46 648.367L1082.52 648.711C1081.88 648.942 1081.18 649.205 1080.41 649.496C1078.24 650.325 1076.07 651.204 1074.05 652.091C1072.96 652.57 1071.95 653.039 1071.02 653.493C1068.78 654.594 1066.85 655.806 1065.51 656.914L1065.28 657.109L1065.42 657.163C1066.25 657.438 1067.08 657.501 1067.79 657.333L1067.99 657.279L1068.01 657.266C1069.71 656.228 1071.96 655.184 1074.66 654.123L1075.21 653.911C1076.26 653.507 1077.34 653.112 1078.44 652.73L1078.79 652.612L1080.67 651.863C1084.02 650.553 1085 650.378 1086.24 650.668L1086.33 650.69C1089.31 651.435 1089.37 655.649 1086.42 656.487L1085.66 656.71L1084.46 657.071C1084.18 657.158 1083.89 657.249 1083.6 657.344C1082.89 657.569 1082.18 657.8 1081.47 658.037L1080.9 658.233L1074.69 660.756L1073.19 661.333C1072.74 661.49 1072.29 661.745 1071.93 662.044L1071.75 662.194L1071.8 662.204C1072.52 662.342 1073.55 662.397 1074.86 662.327L1075.2 662.307L1075.4 662.3L1114.89 662.299Z" fill="#2E186A"/>
<path fill-rule="evenodd" clip-rule="evenodd" d="M1195.4 473.343C1195.82 471.74 1197.45 470.779 1199.06 471.198C1200.6 471.601 1201.55 473.139 1201.24 474.686L1201.2 474.858L1191.71 511.213L1191.64 511.55C1188.53 524.537 1175.67 532.781 1162.55 530.114L1162.15 530.029C1148.93 527.092 1140.49 514.1 1143.19 500.849L1143.27 500.447L1146.17 487.447C1146.53 485.83 1148.14 484.812 1149.75 485.172C1151.31 485.52 1152.32 487.023 1152.06 488.58L1152.03 488.754L1149.13 501.746C1146.89 511.889 1153.33 521.922 1163.45 524.171C1173.48 526.381 1183.4 520.115 1185.79 510.182L1185.9 509.743L1195.4 473.343Z" fill="#2E186A"/>
<path fill-rule="evenodd" clip-rule="evenodd" d="M1178.77 397.971C1181.71 398.282 1184.73 399.06 1187.7 400.171C1189.72 400.926 1191.39 401.703 1192.79 402.449C1206.33 409.675 1212.14 419.772 1212.33 431.75C1212.4 436.077 1211.72 440.391 1210.5 444.503C1210.06 446 1209.58 447.38 1209.07 448.621L1208.97 448.885C1208.79 449.313 1208.63 449.684 1208.49 449.993L1208.28 450.423L1208.07 450.792L1204.67 457.059C1203.09 459.943 1201.64 462.572 1200.2 465.113L1199.07 467.107L1198.21 468.609C1195.05 474.076 1192.6 477.975 1191.19 479.692L1190.68 480.269C1186.01 485.62 1183.5 487.052 1174.53 489.064L1174.05 489.171C1162.17 491.824 1147.19 485.736 1143.87 474.919C1142.99 472.067 1142.55 468.715 1142.52 464.968C1142.47 460.269 1143.05 455.208 1144.05 450.109L1144.29 448.932L1144.46 448.161C1144.61 447.492 1144.78 446.767 1144.95 446.047L1145.92 442.127L1145.98 442.145C1149.64 429.66 1154.92 416.804 1161.08 406.324C1165.07 399.565 1171.09 397.158 1178.77 397.971ZM1213.32 453.702L1212.18 455.65C1211.47 456.826 1212.36 454.9 1210.9 454.9C1212.04 454.9 1213.07 454.258 1213.58 453.242L1213.63 453.152L1213.82 452.747C1214.06 452.24 1214.34 451.613 1214.64 450.87C1215.21 449.455 1215.76 447.892 1216.26 446.201C1217.63 441.543 1218.41 436.638 1218.33 431.653C1218.11 417.552 1211.14 405.438 1195.61 397.153C1193.99 396.291 1192.09 395.408 1189.8 394.551C1186.39 393.275 1182.89 392.373 1179.4 392.004C1169.7 390.978 1161.46 394.199 1156.15 402.881L1155.91 403.279C1149.48 414.224 1144.02 427.527 1140.22 440.455L1140.17 440.663C1140.14 440.802 1140.12 440.944 1140.11 441.086L1140.1 441.295L1140.1 441.263C1140.09 441.122 1140 441.341 1139.94 441.488L1139.9 441.594L1139.73 442.213L1139.64 442.544C1139.2 444.191 1138.77 445.991 1138.37 447.934C1137.17 453.743 1136.46 459.551 1136.52 465.027C1136.56 469.313 1137.07 473.224 1138.13 476.681C1142.5 490.894 1160.71 498.297 1175.35 495.028L1176.37 494.798C1186.52 492.47 1189.98 490.293 1195.77 483.556C1197.5 481.46 1200.05 477.415 1203.36 471.692L1204.64 469.462L1204.99 468.831C1206.59 466.023 1208.19 463.134 1209.93 459.937L1213.32 453.702Z" fill="#2E186A"/>
<path fill-rule="evenodd" clip-rule="evenodd" d="M1143 441.3C1146.2 430.4 1151.4 416.7 1158.4 404.8C1158.7 404.3 1159.1 403.7 1159.4 403.2C1153.7 398.7 1144.4 408 1138 426.9C1134.7 436.7 1125.6 441.7 1125.6 441.7C1132.5 447.8 1138.8 445.1 1142.9 441.7C1143 441.5 1143 441.3 1143 441.3Z" fill="#2E186A"/>
<path fill-rule="evenodd" clip-rule="evenodd" d="M1156.41 433.886C1157.03 432.347 1158.78 431.599 1160.31 432.214C1161.8 432.808 1162.55 434.452 1162.05 435.948L1161.99 436.114L1155.74 451.731L1158.92 452.878C1160.42 453.42 1161.23 455.038 1160.78 456.55L1160.72 456.718C1160.18 458.221 1158.56 459.025 1157.05 458.577L1156.88 458.522L1150.78 456.322C1149.24 455.767 1148.44 454.087 1148.95 452.555L1149.01 452.386L1156.41 433.886Z" fill="#2E186A"/>
<path fill-rule="evenodd" clip-rule="evenodd" d="M1154.26 433.738C1154.91 432.216 1154.66 430.646 1153.69 430.232C1152.73 429.818 1151.42 430.717 1150.76 432.24C1150.11 433.763 1150.36 435.332 1151.33 435.746C1152.29 436.16 1153.6 435.261 1154.26 433.738Z" fill="#2E186A"/>
<path fill-rule="evenodd" clip-rule="evenodd" d="M1171.04 440.952C1171.4 439.334 1170.86 437.839 1169.83 437.613C1168.81 437.387 1167.69 438.515 1167.33 440.133C1166.97 441.751 1167.51 443.246 1168.54 443.472C1169.56 443.698 1170.68 442.57 1171.04 440.952Z" fill="#2E186A"/>
<path fill-rule="evenodd" clip-rule="evenodd" d="M1174.26 428.501C1174.59 426.878 1176.18 425.83 1177.8 426.161C1180.57 426.724 1182.77 428.082 1184.41 429.968C1185.19 430.86 1185.79 431.81 1186.24 432.765C1186.52 433.365 1186.7 433.863 1186.8 434.216C1187.23 435.815 1186.28 437.463 1184.68 437.896C1183.14 438.314 1181.56 437.449 1181.06 435.953L1180.98 435.725C1180.96 435.649 1180.9 435.509 1180.81 435.322C1180.59 434.842 1180.28 434.357 1179.89 433.909C1179.14 433.047 1178.17 432.424 1176.9 432.107L1176.6 432.04C1174.98 431.709 1173.93 430.125 1174.26 428.501Z" fill="#2E186A"/>
<path fill-rule="evenodd" clip-rule="evenodd" d="M1153.84 415.528C1156.22 415.278 1158.54 416.029 1160.76 417.375C1161.86 418.04 1162.71 418.706 1163.24 419.197C1164.45 420.322 1164.53 422.22 1163.4 423.437C1162.32 424.607 1160.52 424.72 1159.31 423.727L1159.04 423.495C1159 423.461 1158.95 423.421 1158.89 423.375L1158.8 423.302C1158.46 423.032 1158.07 422.76 1157.65 422.508C1156.45 421.777 1155.31 421.407 1154.47 421.495C1154.18 421.525 1153.93 421.606 1153.68 421.753L1153.53 421.849C1152.18 422.806 1150.31 422.485 1149.35 421.133C1148.39 419.78 1148.71 417.908 1150.07 416.951C1151.22 416.139 1152.49 415.669 1153.84 415.528Z" fill="#2E186A"/>
<path fill-rule="evenodd" clip-rule="evenodd" d="M1247.3 441.8L1228.9 432.4C1231.2 418.7 1229.8 397.4 1204 385.4C1163.7 366.7 1149 407 1149 407L1241.3 453.6C1244.6 455.3 1248.6 454 1250.3 450.7C1251.9 447.5 1250.6 443.5 1247.3 441.8Z" fill="#FE7624"/>
<path fill-rule="evenodd" clip-rule="evenodd" d="M1154.8 469.3C1150.7 460.9 1169.9 466.6 1169.9 466.6C1169.9 466.6 1164.5 485.9 1154.8 469.3Z" fill="#2E186A"/>
<path fill-rule="evenodd" clip-rule="evenodd" d="M1226.7 446.4L1187.8 426.8C1183.3 440.9 1177.6 469.2 1201.7 476.6C1201.7 476.6 1220.6 482.8 1226 476.7C1226 476.7 1213.1 467.2 1216 459.5C1216 459.5 1229.2 479.1 1244.8 468.7C1244.8 468.5 1226.4 462.6 1226.7 446.4Z" fill="#2E186A"/>
<path fill-rule="evenodd" clip-rule="evenodd" d="M1119.5 227.9H937.7C923.943 227.9 912.8 239.044 912.8 252.8V267.2C912.8 280.957 923.943 292.1 937.7 292.1H1119.5C1133.15 292.1 1144.29 280.967 1144.4 267.225L1144.4 252.8C1144.4 239.044 1133.26 227.9 1119.5 227.9ZM937.7 233.9H1119.5C1129.94 233.9 1138.4 242.357 1138.4 252.8V267.2C1138.31 277.634 1129.85 286.1 1119.5 286.1H937.7C927.257 286.1 918.8 277.644 918.8 267.2V252.8C918.8 242.357 927.257 233.9 937.7 233.9Z" fill="#2E186A"/>
<path fill-rule="evenodd" clip-rule="evenodd" d="M1113.9 251C1115.56 251 1116.9 252.343 1116.9 254C1116.9 255.598 1115.65 256.904 1114.08 256.995L1113.9 257H944.8C943.143 257 941.8 255.657 941.8 254C941.8 252.402 943.049 251.096 944.624 251.005L944.8 251H1113.9Z" fill="#2E186A"/>
<path fill-rule="evenodd" clip-rule="evenodd" d="M1025 265.4C1026.66 265.4 1028 266.744 1028 268.4C1028 269.998 1026.75 271.304 1025.18 271.395L1025 271.4H944.8C943.143 271.4 941.8 270.057 941.8 268.4C941.8 266.803 943.049 265.497 944.624 265.405L944.8 265.4H1025Z" fill="#2E186A"/>
<path fill-rule="evenodd" clip-rule="evenodd" d="M828.2 555.6H646.4C632.643 555.6 621.5 566.743 621.5 580.5V594.9C621.5 608.656 632.643 619.8 646.4 619.8H828.2C841.957 619.8 853.1 608.656 853.1 594.9V580.5C853.1 566.743 841.957 555.6 828.2 555.6ZM646.4 561.6H828.2C838.643 561.6 847.1 570.056 847.1 580.5V594.9C847.1 605.343 838.643 613.8 828.2 613.8H646.4C635.957 613.8 627.5 605.343 627.5 594.9V580.5C627.5 570.056 635.957 561.6 646.4 561.6Z" fill="#2E186A"/>
<path fill-rule="evenodd" clip-rule="evenodd" d="M822.6 578.7C824.257 578.7 825.6 580.043 825.6 581.7C825.6 583.298 824.351 584.604 822.776 584.695L822.6 584.7H653.6C651.943 584.7 650.6 583.357 650.6 581.7C650.6 580.103 651.849 578.797 653.424 578.705L653.6 578.7H822.6Z" fill="#2E186A"/>
<path fill-rule="evenodd" clip-rule="evenodd" d="M733.8 593.1C735.457 593.1 736.8 594.443 736.8 596.1C736.8 597.697 735.551 599.003 733.976 599.095L733.8 599.1H653.6C651.943 599.1 650.6 597.756 650.6 596.1C650.6 594.502 651.849 593.196 653.424 593.105L653.6 593.1H733.8Z" fill="#2E186A"/>
<path fill-rule="evenodd" clip-rule="evenodd" d="M567.7 104.3H385.9C372.143 104.3 361 115.443 361 129.2V143.6C361 157.357 372.143 168.5 385.9 168.5H567.7C581.353 168.5 592.486 157.366 592.6 143.625L592.6 129.2C592.6 115.443 581.457 104.3 567.7 104.3ZM385.9 110.3H567.7C578.143 110.3 586.6 118.757 586.6 129.2V143.6C586.514 154.033 578.047 162.5 567.7 162.5H385.9C375.457 162.5 367 154.043 367 143.6V129.2C367 118.757 375.457 110.3 385.9 110.3Z" fill="#2E186A"/>
<path fill-rule="evenodd" clip-rule="evenodd" d="M562.1 127.4C563.757 127.4 565.1 128.744 565.1 130.4C565.1 131.998 563.851 133.304 562.276 133.395L562.1 133.4H393C391.343 133.4 390 132.057 390 130.4C390 128.803 391.249 127.497 392.824 127.405L393 127.4H562.1Z" fill="#2E186A"/>
<path fill-rule="evenodd" clip-rule="evenodd" d="M473.2 141.8C474.857 141.8 476.2 143.143 476.2 144.8C476.2 146.397 474.951 147.703 473.376 147.795L473.2 147.8H393C391.343 147.8 390 146.457 390 144.8C390 143.202 391.249 141.896 392.824 141.805L393 141.8H473.2Z" fill="#2E186A"/>
<path fill-rule="evenodd" clip-rule="evenodd" d="M440.132 390.043C440.771 388.514 442.528 387.793 444.057 388.432C456.2 393.507 463.014 402.261 465.72 413.644L465.84 414.166L465.988 414.243C470.165 416.438 474.516 419.558 479.414 423.738L481.837 425.84C483.844 427.606 485.578 429.219 489.04 432.545L497.519 440.728C500.483 443.576 502.729 445.682 504.965 447.694L505.368 448.056L505.43 448.096C505.621 448.224 505.789 448.365 505.99 448.554L506.282 448.84L507.013 449.51C532.894 473.557 542.526 510.464 531.785 544.206L531.45 545.238L523.85 568.338C523.592 569.122 523.023 569.763 522.281 570.113L521.938 570.254L513.72 573.44C510.904 574.527 507.9 575.682 504.735 576.894L501.517 578.124C485.946 584.071 470.086 590.017 454.879 595.568L450.852 597.034L446.888 598.469C407.126 612.826 380.958 621.1 372.9 621.1C361.556 621.1 329.492 598.886 306.494 574.234C276.533 542.119 264.622 510.894 279.979 487.073C290.721 470.431 302.733 456.317 315.492 444.557C324.281 436.455 332.865 429.973 340.781 425.021L341.132 424.802L341.099 424.65C337.911 409.527 349.654 397.21 377.772 388.977L378.675 388.716C380.268 388.26 381.928 389.182 382.384 390.775C382.84 392.368 381.918 394.028 380.325 394.484C352.866 402.342 343.605 412.841 347.466 425.313C347.875 426.634 347.327 428.064 346.141 428.774C337.949 433.676 328.886 440.37 319.558 448.968C307.164 460.393 295.481 474.12 285.021 490.326C271.634 511.091 282.592 539.818 310.881 570.141C322.149 582.219 335.517 593.688 348.179 602.461L349.146 603.126C360.053 610.579 369.234 615.1 372.9 615.1C379.805 615.1 405.783 606.908 443.698 593.242L448.804 591.394C450.133 590.912 451.472 590.424 452.821 589.932C466.914 584.788 481.572 579.302 496.041 573.791L501.53 571.696C504.726 570.474 507.763 569.307 510.616 568.207L518.592 565.118L525.752 543.356C536.288 511.559 527.352 476.599 502.929 453.906L502.184 453.222L501.977 453.021L501.915 452.982C501.861 452.945 501.807 452.906 501.755 452.865L501.602 452.738L500.953 452.156C498.468 449.92 495.987 447.585 492.586 444.307L487.464 439.367C473.894 426.334 468.904 422.244 461.909 418.908C461.047 418.497 460.433 417.701 460.254 416.764C458.246 406.28 452.605 398.507 441.743 393.968C440.214 393.329 439.493 391.572 440.132 390.043Z" fill="#2E186A"/>
<path fill-rule="evenodd" clip-rule="evenodd" d="M460.3 415C461.7 422.3 461.2 429.2 461 433.4C460.2 450.9 453.7 460.4 451.7 466.9C464.5 459.3 476.3 441.7 482.1 430.2C478.3 426.8 466.7 418.1 460.3 415Z" fill="#2E186A"/>
<path fill-rule="evenodd" clip-rule="evenodd" d="M390.4 468.2C384.1 465.3 351.9 444.5 346.5 424.3C340 427.8 329.9 433.9 323.6 441.4C330.9 445.8 372 470.2 390.1 468.9C390.4 468.9 390.6 468.9 390.8 468.8C390.6 468.6 390.5 468.4 390.4 468.2Z" fill="#2E186A"/>
<path fill-rule="evenodd" clip-rule="evenodd" d="M439.8 468.4C446.7 448.2 441.5 425.8 436.6 419.2C431.4 439.4 419.7 451.8 419.7 451.8C400 429.4 379.5 416.7 379.5 416.7L380.1 416C379.2 416 378.7 416.1 378.7 416.1L371.3 423.7C371.3 423.7 406.3 450.3 417.7 514.5C425.1 556.2 428.9 595.3 428.9 595.3L450.6 594.1C450.7 594.1 432.3 490.3 439.8 468.4Z" fill="#FE7624"/>
<path fill-rule="evenodd" clip-rule="evenodd" d="M368.828 368.839C370.354 368.192 372.115 368.903 372.762 370.429C373.409 371.954 372.697 373.715 371.172 374.362C366.791 376.221 364.813 379.13 367.019 383.834C368.905 387.881 372.286 387.994 377.054 385.372C378.506 384.573 380.33 385.103 381.129 386.555C381.927 388.006 381.398 389.831 379.946 390.629C377.004 392.247 374.002 393.209 371.075 393.111C366.979 392.975 363.612 390.728 361.584 386.375C359.42 381.761 359.689 377.559 362.007 374.151C363.65 371.734 366.109 369.992 368.828 368.839Z" fill="#2E186A"/>
<path fill-rule="evenodd" clip-rule="evenodd" d="M431.212 333.704C432.756 333.103 434.495 333.868 435.096 335.412C441.347 351.474 445.017 372.532 445.299 386.941C445.332 388.598 444.015 389.967 442.359 389.999C440.702 390.032 439.333 388.715 439.301 387.059C439.031 373.315 435.481 352.945 429.504 337.588C428.903 336.044 429.668 334.305 431.212 333.704Z" fill="#2E186A"/>
<path fill-rule="evenodd" clip-rule="evenodd" d="M386.7 400.6L386.876 400.605C388.471 400.699 389.701 402.022 389.7 403.6L389.695 403.776L389.395 408.876C389.36 409.46 389.156 410.021 388.809 410.488L388.672 410.659L384 416.075L384.464 416.392C387.108 418.211 390.048 420.357 393.212 422.822C401.879 429.574 410.544 437.386 418.682 446.191L419.625 447.22L420.048 446.674L420.33 446.304C422.51 443.41 424.696 440.039 426.738 436.232C431.074 428.151 434.152 419.258 435.426 409.703C435.645 408.061 437.154 406.907 438.796 407.126C440.439 407.345 441.593 408.854 441.374 410.496C439.998 420.813 436.685 430.384 432.026 439.069C429.832 443.158 427.48 446.785 425.122 449.914L424.656 450.526C423.445 452.101 422.484 453.221 421.881 453.86C420.668 455.144 418.614 455.107 417.447 453.781C416.726 452.961 415.997 452.146 415.26 451.337C407.075 442.348 398.298 434.39 389.524 427.555C386.693 425.349 384.051 423.41 381.657 421.746L381.063 421.335C380.303 420.812 379.617 420.351 379.011 419.953L378.217 419.438C378.084 419.353 377.985 419.29 377.92 419.25C376.407 418.312 376.048 416.283 377.109 414.887L377.228 414.74L383.465 407.509L383.705 403.424C383.799 401.829 385.122 400.598 386.7 400.6Z" fill="#2E186A"/>
<path fill-rule="evenodd" clip-rule="evenodd" d="M378.151 368.854L370.951 371.254C369.292 371.807 368.468 373.648 369.125 375.241L369.288 375.589L371.316 379.76L372.93 383.056C373.828 384.885 374.724 386.698 375.602 388.467L377.341 391.949C380.497 398.242 382.901 402.855 384.312 405.248L384.861 406.161C389.118 413.124 392.331 415.705 401.981 419.584C407.829 421.934 415.843 422.485 423.074 420.947C431.48 419.159 438.164 414.787 441.492 408.025C444.416 402.083 445.484 394.441 445.236 385.84C445.15 382.841 444.905 379.92 444.554 377.176L444.426 376.216C444.361 375.75 444.296 375.306 444.23 374.885L444.163 374.472C444.089 374.018 444.025 373.652 443.974 373.383L443.945 373.228C443.681 371.866 442.517 370.863 441.13 370.803C438.891 370.706 435.526 371.094 431.333 371.814C430.242 372.001 429.147 372.203 428.074 372.411L426.435 372.738L424.858 373.07L424.734 373.1C419.701 374.428 414.849 376.017 410.205 377.811C405.114 379.778 400.531 381.887 396.526 384L396.006 384.276L395.013 384.814L394.153 385.291L394.046 385.124C390.217 379.174 383.376 370.809 380.672 369.145C379.916 368.68 378.993 368.573 378.151 368.854ZM376.092 375.865L378.5 375.062L378.666 375.223C381.726 378.229 388.249 386.641 390.447 390.802C391.27 392.358 393.249 392.875 394.727 391.921L395.212 391.619C395.391 391.511 395.608 391.38 395.864 391.229C396.845 390.652 398.001 390.005 399.326 389.306C403.131 387.299 407.502 385.287 412.367 383.408L413.584 382.945C417.248 381.57 421.045 380.33 424.957 379.254L426.204 378.917L427.384 378.668C427.632 378.617 427.901 378.562 428.189 378.504C429.546 378.232 430.954 377.967 432.349 377.727L432.782 377.654C434.751 377.322 436.513 377.075 437.969 376.932L438.461 376.885L438.559 377.601C438.574 377.711 438.588 377.822 438.603 377.936C438.929 380.496 439.158 383.223 439.239 386.012C439.461 393.725 438.516 400.482 436.108 405.376C431.395 414.955 415.15 418.41 404.219 414.017L403.35 413.664C395.591 410.484 393.404 408.655 389.957 402.996L389.576 402.363C388.287 400.202 385.875 395.582 382.704 389.259L380.975 385.796C380.101 384.036 379.209 382.23 378.315 380.409L376.092 375.865Z" fill="#2E186A"/>
<path fill-rule="evenodd" clip-rule="evenodd" d="M374.6 377.4C374.6 377.4 366.3 369.6 361.7 360.6C357.3 352.1 359.2 341.6 366.5 335.5C372.7 330.4 378.5 331.8 378.5 331.8C378.5 331.8 368 321 376.3 307.1C379.3 302.2 384.1 298.7 389.7 297.5C403.4 294.5 410.4 305 410.4 305C410.4 305 418.4 274.7 452.1 283.1C455.5 284 460 287.6 462.4 290.2C476.7 305.9 449.6 335.5 433.1 341.4C415 347.9 403.4 347.5 396.3 344.4C401.4 345.8 403.3 374.8 374.6 377.4Z" fill="#2E186A"/>
<path fill-rule="evenodd" clip-rule="evenodd" d="M424.058 365.087C425.556 364.532 427.214 365.249 427.847 366.694L427.913 366.858L434.213 383.858C434.918 385.761 433.571 387.781 431.578 387.895L431.4 387.9H424.9C423.243 387.9 421.9 386.557 421.9 384.9C421.9 383.303 423.149 381.997 424.724 381.905L424.9 381.9L427.088 381.899L422.287 368.943C421.732 367.445 422.449 365.786 423.894 365.153L424.058 365.087Z" fill="#2E186A"/>
<path fill-rule="evenodd" clip-rule="evenodd" d="M433.662 368.913C434.627 368.674 435.098 367.221 434.714 365.666C434.33 364.111 433.237 363.044 432.272 363.282C431.306 363.521 430.835 364.974 431.22 366.529C431.604 368.084 432.697 369.151 433.662 368.913Z" fill="#2E186A"/>
<path fill-rule="evenodd" clip-rule="evenodd" d="M417.436 372.777C418.429 372.723 419.163 371.383 419.077 369.784C418.99 368.185 418.115 366.932 417.122 366.986C416.13 367.039 415.395 368.379 415.482 369.979C415.569 371.578 416.444 372.831 417.436 372.777Z" fill="#2E186A"/>
<path fill-rule="evenodd" clip-rule="evenodd" d="M412.087 355.602C413.743 355.539 415.135 356.831 415.198 358.487C415.258 360.083 414.059 361.435 412.489 361.586L412.313 361.598C410.808 361.654 409.643 362.192 408.703 363.079C408.159 363.592 407.812 364.092 407.668 364.366L407.631 364.441C406.945 365.949 405.167 366.616 403.659 365.931C402.15 365.245 401.483 363.467 402.169 361.958L402.298 361.694C402.422 361.453 402.591 361.162 402.806 360.833C403.283 360.107 403.872 359.387 404.586 358.714C406.534 356.877 409.048 355.716 412.087 355.602Z" fill="#2E186A"/>
<path fill-rule="evenodd" clip-rule="evenodd" d="M432.66 345.555C434.708 345.593 436.588 346.29 438.089 347.747C439.278 348.901 439.307 350.801 438.153 351.99C437.045 353.131 435.25 353.203 434.057 352.186L433.911 352.053C433.567 351.72 433.149 351.565 432.547 351.553C431.757 351.538 430.776 351.787 429.763 352.228C429.139 352.499 428.665 352.765 428.444 352.91C427.058 353.818 425.199 353.43 424.291 352.044C423.383 350.658 423.77 348.799 425.156 347.891L425.479 347.688C425.953 347.403 426.596 347.062 427.371 346.725C429.107 345.971 430.88 345.521 432.66 345.555Z" fill="#2E186A"/>
<path fill-rule="evenodd" clip-rule="evenodd" d="M426.82 389.93L426.819 389.905L416.919 390.505C414.587 390.647 413.304 393.28 414.63 395.203C414.813 395.467 415.096 395.807 415.49 396.191C416.077 396.763 416.796 397.317 417.654 397.822C419.513 398.915 421.805 399.649 424.538 399.888C424.651 399.898 424.765 399.902 424.879 399.899C428.116 399.814 430.11 397.804 430.317 395.049C430.376 394.255 430.286 393.48 430.101 392.741C430.036 392.479 429.96 392.231 429.881 392.014L429.818 391.848L429.705 391.593C429.68 391.543 429.643 391.478 429.545 391.307L429.502 391.215C429.423 391.065 429.288 390.956 428.431 390.261L428.116 390.111C427.841 389.99 427.664 389.958 427.17 389.941L426.82 389.93Z" fill="#2E186A"/>
<path fill-rule="evenodd" clip-rule="evenodd" d="M393.107 460.648C394.572 460.012 396.267 460.638 396.978 462.047L397.075 462.26L397.461 463.172L397.917 464.275C398.22 465.016 398.545 465.823 398.887 466.69C400.252 470.153 401.617 473.868 402.892 477.692C404.282 481.861 405.481 485.911 406.432 489.756C407.515 494.133 408.252 498.144 408.587 501.72C408.742 503.37 407.53 504.832 405.88 504.987C404.23 505.142 402.768 503.93 402.613 502.28C402.309 499.032 401.624 495.305 400.608 491.197C399.697 487.518 398.543 483.617 397.2 479.59C396.099 476.288 394.927 473.064 393.747 470.022L393.305 468.89C393.039 468.217 392.785 467.581 392.544 466.987L391.926 465.487L391.548 464.594C390.888 463.074 391.586 461.307 393.107 460.648Z" fill="#2E186A"/>
<path fill-rule="evenodd" clip-rule="evenodd" d="M446.442 461.411C448.034 461.273 449.442 462.405 449.669 463.966L449.701 464.284L450.396 472.098L450.791 476.418C451.173 480.568 451.563 484.686 451.952 488.659L452.285 492.027C452.457 493.739 452.625 495.394 452.79 496.986L453.083 499.782C453.258 501.43 452.065 502.908 450.417 503.083C448.828 503.252 447.398 502.148 447.141 500.592L447.117 500.417L446.822 497.606C446.689 496.325 446.555 495.005 446.418 493.648L445.814 487.529C445.535 484.654 445.256 481.715 444.981 478.751L444.287 471.161L443.711 464.658C443.569 463.007 444.791 461.553 446.442 461.411Z" fill="#2E186A"/>
<path fill-rule="evenodd" clip-rule="evenodd" d="M367.709 495.056C368.948 493.956 370.844 494.069 371.944 495.309C373.001 496.5 372.937 498.299 371.829 499.413L371.691 499.544L356.591 512.944C355.598 513.825 354.144 513.949 353.017 513.248C344.715 508.09 337.878 508.259 332.316 511.516C331.475 512.009 330.746 512.534 330.137 513.051L329.809 513.339C329.718 513.421 329.647 513.49 329.595 513.541L329.516 513.622C328.4 514.846 326.502 514.933 325.278 513.816C324.054 512.699 323.967 510.802 325.084 509.578C325.319 509.32 325.709 508.94 326.252 508.478C327.118 507.743 328.129 507.015 329.284 506.339C336.152 502.317 344.566 501.825 353.935 506.85L354.234 507.013L367.709 495.056Z" fill="#2E186A"/>
<path fill-rule="evenodd" clip-rule="evenodd" d="M350.594 508.414C351.415 506.974 353.247 506.473 354.686 507.294L384.463 524.233C390.11 527.433 393.581 529.386 394.042 529.617C395.524 530.358 396.124 532.16 395.383 533.642C394.67 535.069 392.972 535.678 391.524 535.06L391.358 534.983C390.876 534.742 388.379 533.344 384.133 530.942L368.493 522.063L351.714 512.506C350.275 511.685 349.773 509.853 350.594 508.414Z" fill="#2E186A"/>
<path fill-rule="evenodd" clip-rule="evenodd" d="M477.395 489.653C478.858 489.011 480.556 489.63 481.272 491.036L481.347 491.195L488.847 508.295C489.513 509.813 488.822 511.582 487.305 512.248C485.842 512.889 484.144 512.27 483.428 510.865L483.353 510.705L475.853 493.605C475.187 492.088 475.878 490.318 477.395 489.653Z" fill="#2E186A"/>
<path fill-rule="evenodd" clip-rule="evenodd" d="M390.8 598.8C390.8 598.8 353.3 583.2 306.9 551C260.5 518.8 231 568.6 243.4 589C254.4 607 316.2 668.7 316.2 668.7L526.5 667C526.5 667 575.9 604.8 583.7 595.1C609.9 562.2 588.3 544.7 559.4 542.2C532.3 539.8 459 593.2 450 600.1L390.8 598.8Z" fill="#2E186A"/>
<path fill-rule="evenodd" clip-rule="evenodd" d="M519.5 507.7H384.3C382.5 507.7 381 508.9 380.6 510.6L362.3 588.1H328.3C328.3 588.1 325.2 604 343.2 604C347.8 604 354.6 604 362.2 604C362.5 604.1 362.9 604.2 363.3 604.2H498.5C500.3 604.2 501.8 603 502.2 601.3L523.2 512.4C523.8 510 522 507.7 519.5 507.7Z" fill="#FE7624"/>
<path fill-rule="evenodd" clip-rule="evenodd" d="M1520.59 660.4C1522.24 660.393 1523.59 661.73 1523.6 663.387C1523.61 664.984 1522.36 666.296 1520.79 666.394L1520.61 666.4L3.41384 673.4C1.75701 673.408 0.407678 672.071 0.400034 670.414C0.392663 668.817 1.63554 667.505 3.20991 667.406L3.38616 667.4L1520.59 660.4Z" fill="#2E186A"/>
</svg>
