<?xml version="1.0" standalone="no"?>
<!DOCTYPE svg PUBLIC "-//W3C//DTD SVG 20010904//EN"
 "http://www.w3.org/TR/2001/REC-SVG-20010904/DTD/svg10.dtd">
<svg version="1.0" xmlns="http://www.w3.org/2000/svg"
 width="540.000000pt" height="542.000000pt" viewBox="0 0 540.000000 542.000000"
 preserveAspectRatio="xMidYMid meet">

<g transform="translate(0.000000,542.000000) scale(0.100000,-0.100000)"
fill="#000000" stroke="none">
<path d="M2649 5120 c-65 -34 -116 -111 -138 -205 -6 -27 -49 -315 -96 -640
-46 -324 -91 -613 -100 -642 -14 -48 -52 -93 -78 -93 -5 0 -24 15 -41 34 -31
33 -43 61 -171 369 -189 458 -288 607 -402 607 -60 0 -99 -22 -125 -73 -21
-39 -23 -54 -22 -202 1 -88 9 -230 18 -315 46 -436 55 -543 62 -703 l7 -174
-37 -28 c-30 -22 -43 -26 -72 -22 -40 7 -69 32 -301 261 -78 78 -161 151 -184
164 -111 59 -219 -7 -219 -133 0 -139 131 -491 297 -800 151 -280 273 -438
359 -463 141 -41 224 22 278 213 50 174 132 312 258 437 180 177 384 270 627
284 294 17 561 -91 771 -313 99 -104 157 -200 207 -342 35 -99 36 -101 68
-101 108 0 213 75 269 194 105 217 224 1003 252 1657 10 234 -17 339 -98 381
-47 25 -87 17 -135 -25 -47 -41 -91 -108 -218 -332 -145 -255 -265 -435 -339
-509 -110 -110 -156 -111 -206 -3 -53 114 -71 214 -120 687 -38 360 -54 473
-86 598 -29 117 -64 176 -128 220 -56 37 -102 41 -157 12z m124 -4 c78 -33
132 -128 166 -292 27 -129 35 -191 71 -539 57 -552 89 -693 166 -754 32 -25
45 -26 86 -5 110 57 212 201 502 707 136 236 211 290 298 209 61 -56 76 -172
59 -443 -26 -411 -56 -682 -112 -1014 -75 -451 -131 -608 -244 -685 -45 -31
-139 -58 -166 -48 -8 3 -25 39 -38 79 -68 215 -208 393 -414 527 -242 156
-552 194 -832 101 -294 -98 -555 -371 -636 -665 -26 -97 -57 -160 -98 -198
-24 -23 -42 -30 -86 -34 -79 -6 -151 30 -213 110 -159 203 -359 594 -467 913
-52 153 -65 251 -42 307 17 41 68 78 107 78 74 0 98 -18 298 -214 109 -106
210 -202 226 -214 42 -32 88 -29 132 10 l37 33 -6 165 c-4 91 -23 325 -43 520
-43 416 -50 645 -22 697 29 51 64 73 120 73 46 0 53 -4 105 -52 48 -46 67 -77
144 -233 48 -99 129 -279 179 -400 50 -121 102 -239 116 -263 44 -74 102 -76
142 -3 26 47 37 111 127 746 42 292 81 550 86 573 14 66 33 104 70 147 64 72
115 90 182 61z"/>
<path d="M4559 2751 c-47 -30 -82 -69 -267 -306 -371 -475 -853 -966 -1167
-1191 -95 -67 -208 -130 -299 -165 -209 -80 -490 -31 -735 129 -75 48 -214
188 -286 287 -144 196 -256 252 -329 164 -57 -68 -29 -266 61 -429 163 -295
494 -665 729 -815 159 -102 314 -166 419 -172 192 -12 399 87 672 321 335 286
782 848 1099 1377 172 290 244 485 244 671 0 65 -12 103 -42 136 -28 29 -45
28 -99 -7z m83 8 c65 -35 61 -238 -8 -431 -150 -415 -801 -1316 -1229 -1698
-332 -296 -566 -403 -787 -359 -80 16 -320 138 -423 216 -285 215 -628 652
-714 910 -29 87 -30 229 -1 266 23 29 66 42 110 32 42 -9 118 -81 209 -199
181 -235 339 -350 580 -423 73 -22 106 -26 221 -27 158 -1 187 6 352 91 338
174 908 732 1408 1378 105 136 171 209 215 236 35 22 40 23 67 8z"/>
<path d="M2239 2555 c-60 -19 -127 -79 -164 -146 -26 -47 -30 -64 -30 -134 0
-89 20 -146 75 -215 16 -21 30 -42 30 -46 0 -5 -13 -18 -29 -28 -34 -23 -77
-87 -86 -127 -16 -73 117 -255 221 -300 60 -27 158 -36 210 -19 21 7 60 25 86
41 l47 28 51 -34 c81 -54 134 -58 200 -13 66 45 72 62 80 222 l7 145 59 73
c32 40 93 114 135 163 121 142 129 157 129 232 0 82 -19 116 -84 148 -107 53
-150 34 -291 -129 -65 -75 -120 -129 -134 -133 -20 -5 -31 2 -58 33 -193 221
-223 243 -335 250 -48 2 -89 -1 -119 -11z m200 -118 c23 -15 74 -66 113 -114
127 -153 182 -206 204 -199 11 3 65 61 121 129 145 174 188 217 218 217 30 0
75 -41 75 -68 0 -24 -54 -98 -179 -247 -139 -164 -140 -168 -151 -330 -10
-144 -20 -177 -60 -190 -12 -4 -35 -1 -50 5 -33 14 -34 16 -49 174 -7 71 -17
113 -35 150 -38 76 -275 356 -301 356 -6 0 -22 -11 -35 -25 -22 -24 -22 -25
-5 -52 10 -15 74 -96 141 -180 131 -161 142 -185 130 -267 -13 -86 -102 -166
-185 -166 -87 0 -183 66 -230 158 -26 51 -27 76 -1 102 35 35 65 26 140 -45
38 -36 73 -65 77 -65 17 0 53 32 53 47 0 21 -29 61 -144 193 -54 63 -110 139
-124 168 -48 106 -15 205 89 260 58 31 130 27 188 -11z"/>
</g>
</svg>
