<?xml version="1.0" standalone="no"?>
<!DOCTYPE svg PUBLIC "-//W3C//DTD SVG 20010904//EN"
 "http://www.w3.org/TR/2001/REC-SVG-20010904/DTD/svg10.dtd">
<svg version="1.0" xmlns="http://www.w3.org/2000/svg"
 width="540.000000pt" height="542.000000pt" viewBox="0 0 540.000000 542.000000"
 preserveAspectRatio="xMidYMid meet">

<g transform="translate(0.000000,542.000000) scale(0.100000,-0.100000)"
fill="#000000" stroke="none">
<path d="M2655 5124 c-72 -37 -125 -114 -145 -212 -6 -26 -21 -126 -35 -222
-13 -96 -40 -283 -59 -415 -19 -132 -47 -325 -61 -430 -15 -104 -34 -208 -44
-230 -38 -85 -86 -95 -132 -28 -14 21 -58 121 -99 223 -81 205 -198 464 -255
566 -44 78 -96 139 -138 161 -44 22 -109 20 -145 -5 -85 -61 -90 -174 -32
-722 33 -304 41 -401 47 -552 l6 -166 -31 -31 c-35 -36 -77 -41 -120 -14 -15
9 -110 100 -212 204 -114 116 -201 195 -227 208 -53 26 -118 27 -159 2 -83
-50 -85 -165 -7 -391 53 -152 142 -363 198 -465 18 -33 51 -95 73 -137 55
-104 161 -266 208 -318 65 -72 118 -100 189 -100 48 0 70 5 96 23 44 29 92
110 108 181 58 261 244 496 504 640 253 140 631 140 885 0 249 -138 400 -314
483 -560 l32 -96 52 4 c139 12 238 113 293 303 52 180 117 549 157 895 25 225
55 630 55 758 0 202 -67 308 -180 285 -54 -10 -119 -89 -214 -259 -225 -401
-303 -521 -401 -620 -108 -110 -162 -109 -211 3 -51 115 -70 235 -129 823 -41
416 -85 584 -170 659 -61 54 -122 65 -180 35z"/>
<path d="M4554 2751 c-52 -38 -84 -74 -184 -206 -218 -286 -469 -574 -720
-826 -335 -337 -541 -500 -764 -605 -105 -49 -169 -64 -269 -64 -272 0 -536
127 -728 350 -36 41 -77 93 -92 115 -47 71 -128 155 -168 175 -71 37 -145 18
-170 -42 -22 -52 -17 -172 10 -253 92 -272 428 -696 736 -928 103 -77 301
-180 390 -202 216 -54 449 39 755 302 312 268 716 761 1022 1248 178 283 245
415 294 580 27 90 40 219 30 288 -8 53 -44 97 -79 97 -13 0 -42 -13 -63 -29z"/>
<path d="M2255 2561 c-46 -11 -76 -29 -123 -75 -118 -112 -124 -286 -15 -422
18 -23 33 -45 33 -50 0 -5 -14 -18 -30 -28 -37 -21 -76 -81 -85 -129 -10 -50
28 -125 102 -207 73 -79 135 -113 220 -118 85 -6 120 2 187 43 l57 34 45 -34
c73 -56 144 -59 216 -9 54 38 68 82 68 222 1 69 6 128 13 144 7 14 71 95 142
178 183 215 180 210 180 289 0 79 -24 119 -93 152 -50 25 -125 23 -166 -4 -14
-9 -78 -78 -142 -152 -136 -158 -111 -157 -231 -8 -81 101 -147 155 -208 172
-44 12 -124 13 -170 2z m171 -114 c37 -20 124 -113 209 -223 50 -64 93 -104
114 -104 11 0 30 13 43 29 13 15 78 94 146 175 114 135 126 146 157 146 36 0
75 -36 75 -70 0 -25 -48 -89 -178 -242 -63 -73 -122 -151 -131 -173 -13 -29
-20 -78 -23 -175 -6 -130 -7 -135 -32 -157 -31 -26 -44 -28 -80 -11 -32 14
-33 19 -41 143 -10 161 -19 179 -183 371 -15 18 -43 51 -62 75 -47 58 -80 89
-96 89 -18 0 -54 -36 -54 -54 0 -8 58 -85 130 -170 71 -86 136 -169 145 -185
23 -45 19 -128 -8 -175 -55 -98 -164 -133 -262 -86 -65 31 -155 144 -155 193
0 41 28 67 72 67 21 0 43 -15 89 -65 65 -68 81 -75 111 -48 36 33 25 54 -112
208 -136 154 -160 195 -160 271 0 55 4 68 33 106 66 86 166 112 253 65z"/>
</g>
</svg>
